<?xml version="1.0" encoding="UTF-8" standalone="no"?>
<svg
   width="151.75285"
   zoomAndPan="magnify"
   viewBox="0 0 113.81464 119.03125"
   height="158.70833"
   preserveAspectRatio="xMidYMid meet"
   version="1.0"
   id="svg31"
   sodipodi:docname="1.svg"
   inkscape:version="1.1.1 (3bf5ae0d25, 2021-09-20)"
   xmlns:inkscape="http://www.inkscape.org/namespaces/inkscape"
   xmlns:sodipodi="http://sodipodi.sourceforge.net/DTD/sodipodi-0.dtd"
   xmlns="http://www.w3.org/2000/svg"
   xmlns:svg="http://www.w3.org/2000/svg">
  <sodipodi:namedview
     id="namedview33"
     pagecolor="#ffffff"
     bordercolor="#666666"
     borderopacity="1.0"
     inkscape:pageshadow="2"
     inkscape:pageopacity="0.0"
     inkscape:pagecheckerboard="0"
     showgrid="false"
     inkscape:zoom="0.66346921"
     inkscape:cx="51.999399"
     inkscape:cy="312.75001"
     inkscape:window-width="1920"
     inkscape:window-height="1001"
     inkscape:window-x="-9"
     inkscape:window-y="-9"
     inkscape:window-maximized="1"
     inkscape:current-layer="svg31"
     fit-margin-top="0"
     fit-margin-left="0"
     fit-margin-right="0"
     fit-margin-bottom="0" />
  <defs
     id="defs11">
    <clipPath
       id="id1">
      <path
         d="M 43.199219,30.03125 H 157.01172 V 149.0625 H 43.199219 Z m 0,0"
         clip-rule="nonzero"
         id="path2" />
    </clipPath>
    <clipPath
       id="id2">
      <path
         d="M 51.53125,34.320312 H 157.01172 V 149.0625 H 51.53125 Z m 0,0"
         clip-rule="nonzero"
         id="path5" />
    </clipPath>
    <clipPath
       id="id3">
      <path
         d="M 43.078125,34 H 120 V 83 H 43.078125 Z m 0,0"
         clip-rule="nonzero"
         id="path8" />
    </clipPath>
    <clipPath
       id="id1-6">
      <path
         d="M 138.0625,82 H 267.73437 V 200.66797 H 138.0625 Z m 0,0"
         clip-rule="nonzero"
         id="path2-6" />
    </clipPath>
    <clipPath
       id="id2-9">
      <path
         d="M 138.08594,90.347656 H 253.45703 V 200.58984 H 138.08594 Z m 0,0"
         clip-rule="nonzero"
         id="path5-9" />
    </clipPath>
    <clipPath
       id="id3-1">
      <path
         d="m 238,82 h 29.73437 v 45 H 238 Z m 0,0"
         clip-rule="nonzero"
         id="path8-3" />
    </clipPath>
  </defs>
  <g
     clip-path="url(#id1)"
     id="g15"
     transform="translate(-43.197083,-30.03125)">
    <path
       fill="#f68d98"
       d="m 118.77734,115.3125 c -2.66015,-1.26562 -5.63281,-1.89453 -8.57812,-1.77344 -4.64844,0.19922 -9.18359,2.26563 -12.382814,5.64063 -1.554687,1.63672 -2.789062,3.55469 -4.398437,5.13281 -0.855469,0.83984 -1.859375,1.58984 -2.953125,2.07813 -0.402344,-0.55469 -0.832032,-1.10157 -1.28125,-1.63282 -0.496094,-0.58984 -1.015625,-1.16797 -1.558594,-1.71484 -1.238281,-1.26563 -2.59375,-2.42188 -4.035156,-3.44922 -0.558594,-3.23047 -0.464844,-6.66016 -0.5,-9.96484 v -0.0195 c 3.3125,-0.12891 6.570312,-1.08204 9.125,-3.15235 3.5625,-2.89062 5.273437,-8.253905 3.140625,-12.320311 -2.183594,-4.160157 -7.519531,-5.964844 -9.550781,-10.203125 -1.082032,-2.253906 -1.078126,-4.910156 -2.195313,-7.148438 -1.199219,-2.417968 -3.542969,-4.015625 -5.578125,-5.789062 -0.671875,-0.585938 -1.328125,-1.230469 -1.902344,-1.929688 0.03125,-0.5 0.08984,-0.996094 0.183594,-1.492187 0.46875,-2.5 1.753906,-4.757813 3.027344,-6.964844 0.605468,-1.050781 1.214844,-2.101563 1.832031,-3.152344 3.117187,-2.90625 7.46875,-4.441406 11.71875,-4.183593 1.015625,0.0625 2.023437,0.226562 3.007813,0.496093 0.816406,0.226563 1.628906,0.523438 2.472656,0.585938 0.542968,0.04297 1.121094,-0.02734 1.609375,-0.253907 0.882811,2.625 1.371091,5.382813 1.429691,8.152344 0.0352,1.71875 -0.0664,3.523438 0.70312,5.058594 0.71875,1.421875 2.17578,2.4375 3.75391,2.609375 1.16015,0.128906 2.35937,-0.199219 3.3125,-0.878906 0.14062,0.09766 0.27344,0.199219 0.41015,0.300781 2.8086,2.109375 5.00391,5.023438 6.85157,8.039062 2.25781,3.679688 4.10937,7.609376 6.6289,11.109376 3.01953,4.199218 6.98047,7.714843 11.4961,10.238281 -5.75,5.035161 -11.04297,10.589841 -15.78907,16.582031 z M 157,93.308594 c -0.23828,-2.265625 -1.84766,-4.117188 -3.37891,-5.804688 -11.33593,-12.484375 -22.67187,-24.960937 -34.0039,-37.441406 -0.17969,-0.199219 -0.35547,-0.390625 -0.52735,-0.585938 -2.33593,-4.011718 -5.22656,-7.699218 -8.55078,-10.929687 -0.2539,-2.132813 -1.23437,-4.1875 -2.7539,-5.710937 -1.87891,-1.871094 -4.5625,-2.914063 -7.21485,-2.796876 -3.605466,0.164063 -6.785154,2.308594 -9.707029,4.417969 -0.0078,0.0078 -0.01172,0.0078 -0.01563,0.01172 -6.492187,4.683594 -12.859375,9.632812 -18.152344,15.632812 -2.515624,2.84375 -4.789062,5.9375 -6.34375,9.402344 -0.01953,0.04687 -0.03906,0.08984 -0.05859,0.136719 L 66.253906,59.625 c -4.453125,-2.554688 -10.535156,-1.503906 -14.460937,1.742188 -1.066407,0.878906 -1.988281,1.886718 -2.769531,2.992187 -2.101563,2.972656 -3.207032,6.617187 -3.445313,10.226563 -0.02344,0.371093 -0.04297,0.742187 -0.05078,1.113281 -0.703125,1.710937 -1.410156,3.421875 -2.117188,5.136719 -0.164062,0.394531 -0.324218,0.859374 -0.109375,1.230468 0.152344,0.269532 0.457031,0.402344 0.75,0.5 0.695313,0.238282 1.417969,0.371094 2.152344,0.394532 0.410156,2.117187 0.960937,4.21875 1.5625,6.289062 0.195313,0.65625 0.410156,1.347656 0.949219,1.792969 1.355468,1.128906 3.390625,-0.05469 5.175781,-0.238281 2.179687,-0.214844 4.234375,1.238281 5.3125,3.058593 0.992187,1.675781 1.320313,3.613281 1.582031,5.53125 -3.4375,5.160159 -7.433594,10.203129 -8.734375,16.152349 -1.804687,8.26562 2.148438,17.05859 8.472657,22.67578 1.109374,0.98437 2.28125,1.88281 3.503906,2.69531 5.753906,3.86328 12.636718,5.99219 19.511718,7.15234 1.375,0.23438 2.773438,0.42578 4.171876,0.57813 14.390621,1.57031 29.617191,-1.19141 40.558591,-10.53125 6.46484,-5.51953 11.00391,-12.91016 15.43359,-20.17188 3.6875,-6.03906 7.36329,-12.07812 11.05079,-18.113279 1.21875,-2.003906 2.48437,-4.195312 2.24609,-6.523437"
       fill-opacity="1"
       fill-rule="nonzero"
       id="path13" />
  </g>
  <path
     fill="#0f0e0c"
     d="m 50.943542,10.507812 c 0.05859,-0.01172 0.117187,-0.02344 0.171875,-0.03516 -0.05078,0.04687 -0.105469,0.08984 -0.15625,0.136719 -0.0039,-0.03516 -0.0078,-0.06641 -0.01563,-0.101563"
     fill-opacity="1"
     fill-rule="nonzero"
     id="path17" />
  <g
     clip-path="url(#id2)"
     id="g21"
     transform="translate(-43.197083,-30.03125)">
    <path
       fill="#778991"
       d="m 83.589844,119.59375 c -0.558594,-3.23047 -0.464844,-6.66016 -0.5,-9.96484 v -0.0195 C 82.976562,99.503906 81.363281,89.414062 78.316406,79.78125 c -1.097656,-3.492188 -2.40625,-7.109375 -2.1875,-10.714844 0.03125,-0.5 0.08984,-0.996094 0.183594,-1.492187 0.46875,-2.5 1.753906,-4.757813 3.027344,-6.964844 0.605468,-1.050781 1.214844,-2.101563 1.832031,-3.152344 C 83.75,53.066406 86.5,48.722656 89.804688,44.9375 c 1.347656,-1.539062 2.789062,-2.984375 4.351562,-4.296875 -0.0039,-0.03516 -0.0078,-0.06641 -0.01563,-0.101563 -0.390625,-2.308593 -1.5625,-4.492187 -3.277344,-6.082031 -0.0078,0.0078 -0.01172,0.0078 -0.01563,0.01172 -6.492187,4.683594 -12.859375,9.632812 -18.152344,15.632812 -2.515624,2.84375 -4.789062,5.9375 -6.34375,9.402344 -0.01953,0.04687 -0.03906,0.08984 -0.05859,0.136719 -2.246094,5.09375 -2.847657,10.800781 -2.472657,16.363281 0.01172,0.171875 0.02344,0.335938 0.03516,0.5 0.09766,1.246094 0.238281,2.480469 0.414062,3.714844 0.40625,2.804688 1,5.582031 1.675781,8.34375 -0.808593,3.867188 -2.855468,7.375 -5.160156,10.832031 -3.4375,5.160158 -7.433594,10.203128 -8.734375,16.152348 -1.804687,8.26562 2.148438,17.05859 8.472657,22.67578 1.109374,0.98437 2.28125,1.88281 3.503906,2.69531 9.644531,-2.89453 18.191406,-9.375 23.597656,-17.875 -1.238281,-1.26563 -2.59375,-2.42188 -4.035156,-3.44922 z M 154.75391,99.832031 c -3.6875,6.035159 -7.36329,12.074219 -11.05079,18.113279 -4.42968,7.26172 -8.96875,14.65235 -15.43359,20.17188 -10.9414,9.33984 -26.16797,12.10156 -40.558592,10.53125 -2.730469,-6.88282 -2.570313,-14.87891 0.386718,-21.66406 0.324219,-0.75782 0.691406,-1.5 1.085938,-2.22657 0.449218,0.53125 0.878906,1.07813 1.28125,1.63282 1.09375,-0.48829 2.097656,-1.23829 2.953125,-2.07813 1.609375,-1.57812 2.84375,-3.49609 4.398437,-5.13281 3.199224,-3.375 7.734374,-5.44141 12.382814,-5.64063 2.94531,-0.12109 5.91797,0.50782 8.57812,1.77344 4.7461,-5.99219 10.03907,-11.54687 15.78907,-16.582031 2.10937,-1.851563 4.28125,-3.632813 6.51171,-5.335938 C 134.36328,89.355469 129.375,82.796875 125.25,76.058594 122.35156,71.3125 119.74609,66.355469 116.78125,61.65625 c -0.83984,-1.335938 -1.71094,-2.648438 -2.625,-3.929688 -0.0469,-0.0625 -0.0898,-0.128906 -0.14062,-0.191406 1.15234,-2.867187 3.0625,-5.421875 5.46484,-7.367187 0.0469,-0.03906 0.0898,-0.07031 0.13672,-0.109375 11.33203,12.484375 22.66797,24.960937 34.0039,37.445312 1.53125,1.6875 3.14063,3.535156 3.37891,5.804688 0.23828,2.328125 -1.02734,4.519531 -2.24609,6.519531"
       fill-opacity="1"
       fill-rule="nonzero"
       id="path19" />
  </g>
  <path
     fill="#f68d98"
     d="m 21.072448,50.1875 c -0.175781,-1.234375 -0.316406,-2.46875 -0.414062,-3.714844 -0.01172,-0.164062 -0.02344,-0.328125 -0.03516,-0.5 -0.714843,0.75 -1.464843,1.472656 -2.25,2.148438 -0.574218,0.496094 -1.242187,0.996094 -1.992187,0.941406 C 15.642758,49 15.049008,48.394531 14.752133,47.71875 14.451352,47.042969 14.392758,46.289062 14.279476,45.558594 13.537289,40.734375 10.24432,36.386719 5.8263524,34.328125 c -2.101563,2.972656 -3.207032,6.617187 -3.445313,10.226563 -0.02344,0.371093 -0.04297,0.742187 -0.05078,1.113281 -0.05859,2.429687 0.214844,4.855469 0.675781,7.261719 0.410156,2.117187 0.960937,4.21875 1.5625,6.289062 0.195313,0.65625 0.410156,1.347656 0.949219,1.792969 1.355468,1.128906 3.390625,-0.05469 5.1757806,-0.238281 2.179687,-0.214844 4.234375,1.238281 5.3125,3.058593 0.992187,1.675781 1.320313,3.613281 1.582031,5.53125 2.304688,-3.457031 4.351563,-6.964843 5.160156,-10.832031 -0.675781,-2.761719 -1.269531,-5.539062 -1.675781,-8.34375 z m -0.242187,60.69922 c 5.753906,3.86328 12.636718,5.99219 19.511718,7.15234 1.375,0.23438 2.773438,0.42578 4.171876,0.57813 -2.730469,-6.88282 -2.570313,-14.87891 0.386718,-21.66406 0.324219,-0.75782 0.691406,-1.5 1.085938,-2.22657 -0.496094,-0.58984 -1.015625,-1.16797 -1.558594,-1.71484 -5.40625,8.5 -13.953125,14.98047 -23.597656,17.875 z M 56.955257,11.523438 c 1.46094,0.660156 2.85157,1.464843 4.15235,2.40625 -0.70703,-2.300782 -1.81641,-4.414063 -3.51953,-6.078126 0.34375,-1.292968 1.21484,-2.449218 2.38281,-3.105468 0.67578,-0.375 1.44141,-0.585938 2.20703,-0.617188 1.82031,1.34375 3.54688,2.808594 5.16406,4.386719 -0.2539,-2.132813 -1.23437,-4.1875 -2.7539,-5.707031 -1.87891,-1.875 -4.5625,-2.917969 -7.21485,-2.796875 -3.60156,0.160156 -6.785154,2.304687 -9.707029,4.414062 1.714844,1.589844 2.890625,3.773438 3.277344,6.082031 0.05859,-0.01172 0.121094,-0.02344 0.175781,-0.03516 0.480469,-0.09375 0.96875,-0.132812 1.453125,-0.121094 1.523438,0.04297 2.996094,0.542969 4.382809,1.171876 z M 73.584167,31.625 c -3.19531,1.609375 -5.79297,4.390625 -7.19141,7.6875 -0.13281,-0.101562 -0.26953,-0.203125 -0.41015,-0.300781 -0.95313,0.679687 -2.15235,1.007812 -3.3125,0.878906 -1.57813,-0.171875 -3.03516,-1.1875 -3.75391,-2.609375 -0.76953,-1.53125 -0.66797,-3.339844 -0.70312,-5.058594 -0.0586,-2.769531 -0.54688,-5.523437 -1.429691,-8.152344 -0.894531,-2.683593 -2.203125,-5.234374 -3.867188,-7.519531 -0.742187,-1.019531 -1.59375,-2.34375 -0.949219,-3.433593 0.570313,-0.957032 2.046876,-0.988282 2.964844,-0.351563 0.179688,0.125 0.347656,0.265625 0.492188,0.425781 0.683594,2.972656 2.917966,5.558594 5.773436,6.632813 0.3125,0.117187 0.65625,0.203125 0.9961,0.230469 0.043,0.546874 0.0703,1.09375 0.0937,1.636718 0.0703,2.023438 0.14843,4.285156 1.58984,5.703125 1.12109,1.109375 2.85156,1.410157 4.41016,1.15625 0.83593,-0.136719 1.63671,-0.40625 2.41406,-0.746093 0.0898,-0.03516 0.17578,-0.07031 0.25781,-0.109376 0.91797,1.28125 1.78906,2.597657 2.625,3.929688"
     fill-opacity="1"
     fill-rule="nonzero"
     id="path23"
     style="fill:#f9b08f;fill-opacity:1" />
  <g
     clip-path="url(#id3)"
     id="g27"
     transform="translate(-43.197083,-30.03125)">
    <path
       fill="#f1516a"
       d="m 45.527344,75.699219 c -0.703125,1.710937 -1.410156,3.421875 -2.117188,5.136719 -0.164062,0.394531 -0.324218,0.859374 -0.109375,1.230468 0.152344,0.269532 0.457031,0.402344 0.75,0.5 0.695313,0.238282 1.417969,0.371094 2.152344,0.394532 -0.460937,-2.40625 -0.734375,-4.832032 -0.675781,-7.261719 z M 119.61719,50.0625 c -0.0508,0.03516 -0.0937,0.06641 -0.13672,0.109375 -2.40234,1.941406 -4.3125,4.496094 -5.46484,7.363281 0.0508,0.0625 0.0937,0.128906 0.14062,0.191406 -0.0859,0.03906 -0.17187,0.07422 -0.25781,0.109376 -0.78125,0.339843 -1.58203,0.613281 -2.41797,0.746093 -1.55469,0.253907 -3.28516,-0.04687 -4.40625,-1.15625 -1.44531,-1.417969 -1.51953,-3.679687 -1.59375,-5.703125 -0.0195,-0.542968 -0.0469,-1.089844 -0.0898,-1.636718 -0.34375,-0.02344 -0.6875,-0.113282 -0.9961,-0.230469 -2.85937,-1.074219 -5.089842,-3.660157 -5.773436,-6.632813 -0.144532,-0.160156 -0.3125,-0.300781 -0.492188,-0.425781 -0.921875,-0.636719 -2.398437,-0.605469 -2.964844,0.351563 -0.648437,1.089843 0.203126,2.417968 0.945313,3.433593 1.667969,2.289063 2.976563,4.835938 3.871094,7.519531 -0.488281,0.226563 -1.066407,0.296876 -1.609375,0.257813 C 97.527344,54.292969 96.714844,54 95.898438,53.769531 94.914062,53.5 93.90625,53.335938 92.890625,53.277344 c -0.472656,-2.945313 -1.519531,-5.800782 -3.085937,-8.335938 1.347656,-1.542968 2.789062,-2.988281 4.351562,-4.300781 0.05078,-0.04687 0.105469,-0.08984 0.15625,-0.136719 0.480469,-0.09375 0.96875,-0.132812 1.453125,-0.121094 1.523437,0.04297 3,0.542969 4.386715,1.171876 1.46094,0.660156 2.85157,1.464843 4.15235,2.40625 -0.71094,-2.300782 -1.82031,-4.414063 -3.51953,-6.078126 0.34375,-1.292968 1.21484,-2.449218 2.3789,-3.105468 0.67578,-0.375 1.44141,-0.585938 2.20703,-0.617188 1.82032,1.34375 3.54688,2.808594 5.16407,4.386719 3.32812,3.230469 6.21875,6.917969 8.55078,10.929687 0.17578,0.195313 0.35156,0.390626 0.53125,0.585938"
       fill-opacity="1"
       fill-rule="nonzero"
       id="path25"
       style="fill:#f68c58;fill-opacity:1" />
  </g>
  <path
     fill="#2a3742"
     d="m 61.068547,14.503906 c 0.20703,0.8125 0.43359,1.613282 0.53125,2.453125 0.0898,0.820313 0.0352,1.648438 0.10156,2.46875 0.0195,0.21875 0.37109,0.167969 0.41797,-0.0078 0.46093,-1.589844 0.10156,-3.558594 -0.6211,-5.019531 -0.0859,-0.171876 -0.48437,-0.109376 -0.42968,0.105468 z M 11.076355,52.746094 c -1.5351566,1.125 -3.1054686,1.734375 -5.0390626,1.664062 -0.109375,-0.0039 -0.148437,0.132813 -0.04687,0.179688 0.503906,0.226562 0.625,0.375 1.222656,0.421875 0.593745,0.04297 1.20312,-0.04297 1.777339,-0.203125 1.0117186,-0.277344 2.0195306,-0.820313 2.6093746,-1.714844 0.230469,-0.347656 -0.257813,-0.542969 -0.523437,-0.347656 z m -1.0625,-11.523438 c 0.28125,0.03906 0.738281,-0.335937 0.328124,-0.535156 -2.1601556,-1.050781 -5.0351556,-0.06641 -6.5234366,1.699219 -0.207031,0.242187 0.195313,0.464843 0.394531,0.292969 1.769532,-1.535157 3.554688,-1.757813 5.8007816,-1.457032 z m -1.7539066,5.167969 c 1.363281,-0.226563 2.5859376,-0.949219 3.2968746,-2.144531 0.195313,-0.324219 -0.390625,-0.402344 -0.5625,-0.214844 -0.753906,0.8125 -1.6523436,1.425781 -2.7460936,1.675781 -1.230468,0.285157 -2.136718,-0.171875 -3.3125,-0.335937 -0.117187,-0.01953 -0.238281,0.08984 -0.160156,0.199218 0.664063,0.972657 2.453125,0.992188 3.484375,0.820313 z M 23.056823,29.59375 c -4.453125,-2.554688 -10.535156,-1.5 -14.4609366,1.742188 -1.066407,0.878906 -1.988281,1.890624 -2.769531,2.996093 4.4179676,2.054688 7.7109366,6.402344 8.4531236,11.226563 0.113282,0.734375 0.171876,1.484375 0.46875,2.164062 0.300782,0.671875 0.894532,1.277344 1.632813,1.339844 0.75,0.05859 1.417969,-0.445312 1.992187,-0.9375 0.785157,-0.679688 1.535157,-1.398438 2.25,-2.148438 -0.375,-5.5625 0.226563,-11.269531 2.472657,-16.367187 z m 26.632813,-6.347656 c -0.46875,-2.945313 -1.515625,-5.800782 -3.082031,-8.335938 -3.308594,3.78125 -6.054688,8.128906 -8.636719,12.515625 3.117187,-2.902343 7.472656,-4.4375 11.71875,-4.179687 z m -7.082031,30.65625 c -1.085938,-2.25 -1.082032,-4.910156 -2.195313,-7.144532 -1.203125,-2.421874 -3.546875,-4.015624 -5.582031,-5.792968 -0.671875,-0.582032 -1.328125,-1.230469 -1.902344,-1.929688 -0.21875,3.609375 1.089844,7.222656 2.191406,10.714844 3.046875,9.632812 4.660156,19.722656 4.773438,29.82813 3.308594,-0.125 6.570312,-1.07813 9.121094,-3.15235 3.5625,-2.89062 5.277343,-8.253905 3.140624,-12.320311 -2.179687,-4.160157 -7.515624,-5.964844 -9.546874,-10.203125 z m 55.273432,9.460937 c -2.23437,1.703125 -4.40625,3.488281 -6.51562,5.335938 -4.51563,-2.519531 -8.47266,-6.035157 -11.49219,-10.238281 -2.51953,-3.5 -4.375,-7.429688 -6.6289,-11.105469 -1.84766,-3.019531 -4.04297,-5.933594 -6.85157,-8.042969 1.39454,-3.296875 3.9961,-6.078125 7.19141,-7.6875 2.96484,4.699219 5.56641,9.65625 8.46875,14.40625 4.12109,6.734375 9.10937,13.292969 15.82812,17.332031"
     fill-opacity="1"
     fill-rule="nonzero"
     id="path29" />
  <path
     style="fill:#778991;fill-opacity:1;stroke:none;stroke-width:0.75px;stroke-linecap:butt;stroke-linejoin:miter;stroke-opacity:1"
     d="m 20.830261,110.88672 c 0,0 10.221788,6.73933 23.683596,7.73047 l 1.472655,-23.89063 -1.558597,-1.71484 z"
     id="path883" />
</svg>
