<?xml version="1.0" encoding="UTF-8" standalone="no"?>
<svg
   width="108.29953"
   zoomAndPan="magnify"
   viewBox="0 0 81.224648 118.64775"
   height="158.19701"
   preserveAspectRatio="xMidYMid meet"
   version="1.0"
   id="svg36"
   sodipodi:docname="3.svg"
   inkscape:version="1.1.1 (3bf5ae0d25, 2021-09-20)"
   xmlns:inkscape="http://www.inkscape.org/namespaces/inkscape"
   xmlns:sodipodi="http://sodipodi.sourceforge.net/DTD/sodipodi-0.dtd"
   xmlns="http://www.w3.org/2000/svg"
   xmlns:svg="http://www.w3.org/2000/svg">
  <sodipodi:namedview
     id="namedview38"
     pagecolor="#ffffff"
     bordercolor="#666666"
     borderopacity="1.0"
     inkscape:pageshadow="2"
     inkscape:pageopacity="0.0"
     inkscape:pagecheckerboard="0"
     showgrid="false"
     inkscape:zoom="2.6538768"
     inkscape:cx="22.796838"
     inkscape:cy="78.941116"
     inkscape:window-width="1920"
     inkscape:window-height="1001"
     inkscape:window-x="-9"
     inkscape:window-y="-9"
     inkscape:window-maximized="1"
     inkscape:current-layer="svg36"
     fit-margin-top="0"
     fit-margin-left="0"
     fit-margin-right="0"
     fit-margin-bottom="0" />
  <defs
     id="defs14">
    <clipPath
       id="id1">
      <path
         d="m 169,89.378906 h 81.47266 V 208.55859 H 169 Z m 0,0"
         clip-rule="nonzero"
         id="path2" />
    </clipPath>
    <clipPath
       id="id2">
      <path
         d="m 171,89.378906 h 56 V 208 h -56 z m 0,0"
         clip-rule="nonzero"
         id="path5" />
    </clipPath>
    <clipPath
       id="id3">
      <path
         d="m 169.14844,90.117188 h 81.22265 V 171.4375 h -81.22265 z m 0,0"
         clip-rule="nonzero"
         id="path8" />
    </clipPath>
    <clipPath
       id="id4">
      <path
         d="M 176.74219,90.117188 H 235.125 V 208.28516 h -58.38281 z m 0,0"
         clip-rule="nonzero"
         id="path11" />
    </clipPath>
    <clipPath
       id="id1-6">
      <path
         d="M 138.0625,82 H 267.73437 V 200.66797 H 138.0625 Z m 0,0"
         clip-rule="nonzero"
         id="path2-4" />
    </clipPath>
    <clipPath
       id="id2-2">
      <path
         d="M 138.08594,90.347656 H 253.45703 V 200.58984 H 138.08594 Z m 0,0"
         clip-rule="nonzero"
         id="path5-0" />
    </clipPath>
    <clipPath
       id="id3-4">
      <path
         d="m 238,82 h 29.73437 v 45 H 238 Z m 0,0"
         clip-rule="nonzero"
         id="path8-5" />
    </clipPath>
  </defs>
  <g
     clip-path="url(#id1)"
     id="g18"
     transform="translate(-169.14675,-89.638687)">
    <path
       fill="#f79341"
       d="m 236.72656,105.86328 c -0.90234,2.41797 -1.46484,5.01953 -2.94531,7.13281 -3.07813,4.39454 -9.21484,5.53907 -12.83203,9.50782 -1.27735,1.39843 -2.1836,3.09375 -3.29688,4.63281 -0.57422,0.80078 -1.21093,1.55469 -1.90234,2.26172 -0.86328,0.88672 -1.80859,1.69531 -2.82422,2.40625 -1.63281,1.14453 -3.44141,2.03515 -5.34766,2.60937 -1.60156,0.48438 -3.27734,0.73438 -4.95312,0.7461 -1.87109,0.0117 -3.74219,-0.27344 -5.51953,-0.86329 -0.19531,-1.26953 -0.39453,-2.53515 -0.59375,-3.80468 -0.46875,-3.05078 -0.94922,-6.11719 -0.92188,-9.20313 0.0508,-6.64453 2.42188,-13.25781 1.39844,-19.82031 -0.17578,-1.12109 -0.43359,-2.332031 0.0898,-3.335938 0.54688,-1.046874 1.77344,-1.527343 2.59766,-2.367187 0.15625,-0.164063 0.29688,-0.332031 0.42188,-0.511719 0.70703,0.21875 1.58203,0.148438 2.30468,-0.08203 1.23828,-0.394531 2.4961,-1.074219 3.75391,-0.769531 2.70312,0.667968 3.25,5.277344 6.03125,5.351562 1.90234,0.04687 2.94922,-2.109375 4.48437,-3.269531 0.0898,-0.06641 0.17579,-0.128906 0.26172,-0.183594 2.16016,-1.402343 4.9961,-0.46875 7.42969,0.367188 2.60156,0.894531 5.25781,1.632812 7.94531,2.210937 2.72266,0.589844 5.77344,0.9375 8.31641,0.03516 -1.64453,2.097663 -2.96875,4.445323 -3.89844,6.949223 z m 13.19531,-14.20703 c -0.37109,-0.453125 -0.96875,-0.648438 -1.54296,-0.785156 -1.97657,-0.476563 -4.03125,-0.488282 -6.06641,-0.5 -6.30469,-0.03516 -12.60938,-0.07031 -18.91406,-0.109375 -2.4375,-0.01172 -4.875,-0.02344 -7.31641,-0.03906 -1.57812,-0.01172 -3.15625,-0.01563 -4.73828,-0.02734 -2.28516,-0.01172 -4.68359,0.01172 -6.90234,0.496094 -0.27344,-0.191406 -0.5625,-0.355468 -0.8711,-0.496094 -1.78906,-0.808593 -4.10547,-0.742187 -5.76562,0.238282 -1.94141,1.140625 -3.3086,3.058594 -4.35157,5.058594 -1.64062,3.136718 -2.62109,6.617195 -2.86328,10.152345 -0.14453,2.10938 -0.0273,4.22656 -0.0547,6.33985 -0.0508,3.8789 -0.58204,7.73437 -1.10938,11.58203 -0.23047,1.65234 -0.45703,3.30468 -0.79687,4.9414 -0.46875,2.25 -1.14844,4.47266 -1.21094,6.76172 -0.0312,1.28125 0.12109,2.54297 0.40234,3.78906 0.32813,1.46875 0.83594,2.92188 1.39844,4.34375 0.19141,0.48047 0.38672,0.95313 0.58594,1.42188 -0.78125,0.36719 -1.59375,0.66015 -2.42188,0.88672 -0.11719,-0.16797 -0.24219,-0.32813 -0.37109,-0.49219 -1.47266,-1.80859 -3.64453,-3.10938 -6.00781,-3.56641 -2.61329,-0.5039 -5.4375,0.0234 -7.65235,1.42969 -2.12109,1.34375 -3.67578,3.5 -4.09375,5.87891 -0.39844,2.26953 0.28516,4.70703 1.89063,6.42578 0.0781,0.0859 0.16015,0.17187 0.24218,0.2539 1.44532,1.39844 3.39454,2.17579 5.35938,2.82813 0.53125,0.85156 1.06641,1.69922 1.59766,2.54687 0.20312,0.32032 0.46484,0.67969 0.83984,0.69532 0.29297,0.0195 0.55078,-0.17969 0.76172,-0.38672 0.44531,-0.42578 0.82422,-0.91797 1.125,-1.46094 0.79687,0.25781 1.59375,0.51563 2.39062,0.76953 0.66797,0.21875 1.4375,0.42578 2.04297,0.0859 0.60547,-0.34375 0.78516,-1.08203 0.89453,-1.74219 0.22266,-1.27734 0.40625,-2.55859 0.5625,-3.84375 0.16797,-0.0625 0.33985,-0.11719 0.51563,-0.16797 0.11328,0.44141 0.28125,0.8711 0.5,1.27344 0.26953,0.48438 0.60937,0.94141 0.8125,1.45703 0.25781,0.64844 0.28906,1.36328 0.23047,2.0625 -0.125,1.47266 -0.63282,2.88281 -1.01953,4.3125 -0.38282,1.42578 -0.65235,2.9375 -0.30079,4.375 0.32422,1.31641 1.28125,2.54688 2.5625,2.90625 0.98047,-1.77344 2.25391,-3.45703 1.94532,-5.39453 -0.14453,-0.90234 -0.63282,-1.72656 -0.75782,-2.63281 -0.1914,-1.34375 0.4375,-2.69141 0.31641,-4.04297 -0.16406,-1.83984 -1.60547,-3.1875 -2.80469,-4.65234 0.92188,-0.14454 1.86328,-0.17188 2.79688,-0.0742 0.2539,0.42578 0.46094,0.86328 0.63672,1.3164 0.35937,0.92188 0.58203,1.89844 0.72656,2.90625 0.40625,2.82422 0.21875,5.89063 0.82422,8.69922 0.69922,3.26563 2.5039,6.26953 2.78125,9.59766 0.20703,2.51172 -0.47656,5 -0.87891,7.48437 -0.95703,5.88672 -0.35547,11.87891 0.48438,17.80469 -1,1.12891 -2.66016,1.58594 -4.19532,1.76172 -1.7539,0.20312 -3.59765,0.19141 -5.14453,1.03125 -0.78515,0.42187 -1.51172,1.42578 -0.97656,2.14062 0.30859,0.41016 0.87891,0.48829 1.38672,0.52735 3.14844,0.22265 6.32422,0.0586 9.4375,-0.4961 0.84375,-0.14843 1.73828,-0.36328 2.32812,-0.98828 0.65235,-0.69922 0.75391,-1.73047 0.82422,-2.68359 0.25391,-3.36719 0.50391,-6.73047 0.75782,-10.08984 0.1875,-2.49219 0.375,-4.99219 0.34765,-7.48829 -0.0234,-1.96484 -0.17969,-3.93359 -0.0117,-5.89453 0.16407,-1.98828 0.65235,-3.92968 1,-5.89453 0.79688,-4.5039 0.82813,-9.10156 0.76172,-13.67969 h 0.0117 c 2.71094,-0.18359 5.36328,-1.24609 7.43359,-3.01953 1.41016,-1.20312 2.56641,-2.72656 4.13282,-3.72265 1.12109,-0.71485 2.40234,-1.125 3.6289,-1.64063 1.05078,-0.4414 2.06641,-0.97265 3.03907,-1.57422 2.14453,-1.32812 4.0664,-3.02343 5.65625,-4.98437 0,0.043 0,0.082 -0.004,0.125 -0.20313,4 0.23437,8.03125 1.30469,11.89062 0.73047,2.64063 1.75781,5.21485 2.09375,7.9336 0.21875,1.78906 0.13281,3.60937 0.48828,5.375 0.28515,1.41015 0.84765,2.77343 0.89844,4.21093 0.0469,1.3711 -0.3711,2.70313 -0.71485,4.02735 -1.41015,5.47265 -1.53515,11.14844 -1.27734,16.82031 0.0117,0.32031 0.0273,0.64844 0.0469,0.97266 -2.64062,4.03515 -6.625,7.16406 -11.16797,8.76172 -0.59375,0.21093 -1.32421,0.58203 -1.2539,1.21093 0.043,0.35157 0.34375,0.60938 0.64844,0.78516 1.38671,0.79297 3.125,0.52734 4.64453,0.0547 1.52343,-0.47657 3.04297,-1.14063 4.63281,-1.07422 1.30078,0.0547 2.52344,0.59375 3.80078,0.8125 1.28516,0.21875 2.78906,0.0273 3.55078,-1.02735 0.45313,-0.6289 0.55078,-1.4414 0.5625,-2.21484 0.0312,-2.20312 -0.51562,-4.42578 -0.48437,-6.60547 0.0117,-0.63672 0.0703,-1.27344 0.20703,-1.90234 0.45703,-2.07422 1.72656,-3.85938 2.60937,-5.79297 2.88282,-6.32422 1.48828,-13.65234 1.37891,-20.60547 -0.13672,-8.91797 1.95703,-17.72656 2.24609,-26.64453 0.10157,-3.19141 -0.12109,-6.62891 -1.6289,-9.35547 0.58203,-1.23047 1.03125,-2.51172 1.33984,-3.83203 0.63281,-2.73828 0.66797,-5.60156 1.51953,-8.28516 0.66797,-2.10156 1.8125,-4.01562 2.81641,-5.97656 3.4375,-6.72656 5.28906,-14.23047 5.35937,-21.761721 0.004,-0.667968 -0.0234,-1.394531 -0.44922,-1.914062"
       fill-opacity="1"
       fill-rule="nonzero"
       id="path16" />
  </g>
  <path
     fill="rgb(97.648621%, 68.238831%, 40.388489%)"
     d="m 21.732156,54.634753 c -0.35157,0.19922 -0.71094,0.38281 -1.07422,0.55078 -0.19922,-0.46875 -0.39453,-0.94141 -0.58594,-1.42188 -0.5625,-1.42187 -1.07031,-2.875 -1.39844,-4.34375 1.26172,1.3086 2.58985,2.56641 4.21094,3.375 1.92969,0.96875 4.39062,1.1875 6.1875,-0.0117 0.87109,-0.57812 1.51953,-1.43359 2.08594,-2.30859 0.98437,-1.54297 1.76562,-3.21484 2.32031,-4.95312 1.67578,-0.0117 3.35156,-0.26172 4.95312,-0.7461 1.90625,-0.57422 3.71485,-1.46484 5.34766,-2.60937 1.22656,6.80078 4.04297,13.3125 8.17188,18.84765 -0.97266,0.60157 -1.98829,1.12891 -3.03907,1.57422 -1.22656,0.51563 -2.50781,0.92578 -3.6289,1.64063 -1.56641,0.99609 -2.72266,2.51953 -4.13282,3.72265 -2.07031,1.77344 -4.72265,2.83594 -7.43359,3.01563 h -0.0117 c -3.35547,-0.0352 -6.9414,-0.0117 -9.72656,-1.82813 -0.14453,-1.00781 -0.36719,-1.98437 -0.72656,-2.90625 0.67187,0.16797 1.32031,0.41016 1.97656,0.625 1.87891,0.6211 3.82031,1.04688 5.78906,1.26563 0.28906,0.0352 0.61328,0.0547 0.84375,-0.12891 0.20703,-0.16797 0.26953,-0.46094 0.28906,-0.73437 0.13672,-1.67969 -0.71875,-3.27344 -1.68359,-4.65625 -2.27344,-3.26563 -5.28516,-6 -8.73437,-7.96875"
     fill-opacity="1"
     fill-rule="nonzero"
     id="path20"
     style="fill:#e13a67;fill-opacity:1" />
  <g
     clip-path="url(#id2)"
     id="g24"
     style="fill:#f9b08f;fill-opacity:1"
     transform="translate(-169.14675,-89.638687)">
    <path
       fill="rgb(96.859741%, 57.649231%, 25.489807%)"
       d="m 226.98828,143.04297 c -0.0273,-1.02735 -0.19141,-2.04688 -0.47266,-3.01172 -0.88671,-3.05078 -2.86328,-5.60938 -5.19921,-7.50391 -1.6836,-1.37109 -3.57032,-2.42968 -5.56641,-3.1289 -0.86328,0.88672 -1.80859,1.69531 -2.82422,2.40625 1.22656,6.80078 4.04297,13.3125 8.17188,18.84765 2.14453,-1.32812 4.0664,-3.02343 5.65625,-4.98437 0,0.043 0,0.082 -0.004,0.12109 0.0117,-0.0469 0.0234,-0.10156 0.0312,-0.15625 0.16797,-0.84375 0.23437,-1.71875 0.20703,-2.58984 z M 197.80469,90.433594 c -1.94141,1.140625 -3.3086,3.058594 -4.35157,5.058594 -1.64062,3.140624 -2.62109,6.621092 -2.86328,10.152342 -0.14453,2.10938 -0.0273,4.22656 -0.0547,6.33985 -0.0508,3.8789 -0.58204,7.73437 -1.10938,11.58203 -0.23047,1.65234 -0.45703,3.30859 -0.79687,4.9414 -0.46875,2.25 -1.14844,4.47266 -1.21094,6.76563 -0.0312,1.27734 0.12109,2.53906 0.40234,3.78515 1.26172,1.3086 2.58985,2.56641 4.21094,3.375 1.92969,0.96875 4.39062,1.1875 6.1875,-0.0117 0.87109,-0.57812 1.51953,-1.42968 2.08594,-2.30859 0.98437,-1.53906 1.76562,-3.21094 2.32031,-4.95312 -1.87109,0.0117 -3.74219,-0.26954 -5.51953,-0.85938 -0.19531,-1.26953 -0.39453,-2.53906 -0.59375,-3.80859 -0.46875,-3.05078 -0.94922,-6.11719 -0.92188,-9.20313 0.0508,-6.64453 2.42188,-13.25781 1.39844,-19.82031 -0.17578,-1.12109 -0.43359,-2.332031 0.0898,-3.335938 0.54688,-1.046874 1.77344,-1.527343 2.59766,-2.367187 0.15625,-0.160156 0.29688,-0.332031 0.42188,-0.511719 0.62109,-0.859375 0.95703,-1.914062 1.43359,-2.871094 0.16406,-0.332031 0.35937,-0.660156 0.58203,-0.964843 0.74219,-0.316407 1.52344,-0.550781 2.32813,-0.726563 -0.27344,-0.191406 -0.5625,-0.355468 -0.8711,-0.496094 -1.78906,-0.808593 -4.10547,-0.742187 -5.76562,0.238282 z M 193.125,158.77734 c 0.40625,2.82422 0.21875,5.89063 0.82422,8.69922 0.69922,3.26563 2.5039,6.26953 2.78125,9.59766 0.20703,2.51172 -0.47656,5 -0.87891,7.48437 -0.95703,5.88672 -0.35547,11.87891 0.48438,17.80469 -1,1.12891 -2.66016,1.58594 -4.19532,1.76172 -1.7539,0.20312 -3.59765,0.19141 -5.14453,1.02734 -0.78515,0.42578 -1.51172,1.42969 -0.97656,2.14453 0.30859,0.41016 0.87891,0.48829 1.38672,0.52344 3.14844,0.22656 6.32422,0.0625 9.4375,-0.49219 0.84375,-0.14843 1.73828,-0.36328 2.32812,-0.98828 0.65235,-0.69922 0.75391,-1.73437 0.82422,-2.68359 0.25391,-3.36719 0.50391,-6.73047 0.75782,-10.08984 0.1875,-2.49219 0.375,-4.99219 0.34765,-7.48829 -0.0234,-1.96484 -0.17969,-3.93359 -0.0117,-5.89453 0.16407,-1.98828 0.65235,-3.92968 1,-5.89453 0.79688,-4.5039 0.82813,-9.10156 0.76172,-13.67969 -3.35547,-0.0391 -6.9414,-0.0156 -9.72656,-1.83203 z m -6.72266,0.19922 c -0.10937,0.66016 -0.28906,1.39844 -0.89453,1.74219 -0.60547,0.33984 -1.375,0.13281 -2.04297,-0.0859 -0.79687,-0.2539 -1.59375,-0.51172 -2.39062,-0.76953 -1.125,-0.35937 -2.25,-0.72266 -3.375,-1.08594 -0.31641,-0.0977 -0.63281,-0.20312 -0.94922,-0.30859 -1.96484,-0.65234 -3.91406,-1.42969 -5.35938,-2.82813 -0.082,-0.082 -0.16406,-0.16796 -0.24218,-0.2539 0.46875,-0.10156 0.92578,-0.24219 1.35937,-0.44531 0.52735,-0.25 1.00781,-0.58594 1.48047,-0.92969 1.41016,-1.01953 2.81641,-2.10547 3.90625,-3.44531 -0.66797,-1.79297 0.52734,-4.44141 2.59766,-3.05469 0.60547,0.39844 1.15625,1.09765 1.51172,1.88672 0.79296,-0.59375 1.58593,-1.1836 2.3789,-1.78125 0.69922,-0.51953 1.40235,-1.05078 2.00781,-1.67188 0.33204,-0.0664 0.66407,-0.14062 0.99219,-0.23437 0.82813,-0.22657 1.64063,-0.52344 2.42188,-0.88672 0.36328,-0.16797 0.72265,-0.35156 1.07422,-0.55078 3.44921,1.96875 6.46093,4.70312 8.73437,7.96875 0.96484,1.38281 1.82031,2.97656 1.68359,4.65625 -0.0195,0.27343 -0.082,0.5664 -0.28906,0.73437 -0.23047,0.1836 -0.55469,0.16406 -0.84375,0.12891 -1.96875,-0.21875 -3.91015,-0.64453 -5.78906,-1.26563 -0.65625,-0.21484 -1.30469,-0.45703 -1.97656,-0.625 -0.17578,-0.45312 -0.38282,-0.89062 -0.63672,-1.3164 -0.9336,-0.0977 -1.875,-0.0703 -2.79688,0.0742 -0.5,0.0781 -0.99609,0.1875 -1.48437,0.33593 -0.17578,0.0508 -0.34766,0.10547 -0.51563,0.16797 -0.15625,1.28516 -0.33984,2.56641 -0.5625,3.84375"
       fill-opacity="1"
       fill-rule="nonzero"
       id="path22"
       style="fill:#f9b08f;fill-opacity:1" />
  </g>
  <g
     clip-path="url(#id3)"
     id="g28"
     transform="translate(-169.14675,-89.638687)">
    <path
       fill="#292c6b"
       d="m 181.00391,141.65234 c -2.61329,-0.5039 -5.4375,0.0234 -7.65235,1.42969 -2.12109,1.33984 -3.67578,3.5 -4.09375,5.87891 -0.39844,2.26953 0.28516,4.70703 1.89063,6.42578 0.46875,-0.10156 0.92578,-0.24219 1.35937,-0.44531 0.52735,-0.25 1.00781,-0.58594 1.48047,-0.92969 1.41016,-1.01953 2.81641,-2.10547 3.90625,-3.44531 -0.66797,-1.79297 0.52734,-4.44141 2.59766,-3.05469 0.60547,0.39844 1.15625,1.09765 1.51172,1.88672 0.79296,-0.59375 1.58593,-1.1836 2.3789,-1.78125 0.69922,-0.51953 1.40235,-1.05078 2.00781,-1.67188 0.33204,-0.0664 0.66407,-0.14062 0.99219,-0.23437 -0.11719,-0.16797 -0.24219,-0.32813 -0.37109,-0.49219 -1.47266,-1.80859 -3.64453,-3.10938 -6.00781,-3.56641 z m 10.44921,21.67188 c -0.1914,-1.34375 0.4375,-2.69141 0.31641,-4.04297 -0.16406,-1.83984 -1.60547,-3.1875 -2.80469,-4.65234 -0.5,0.0781 -0.99609,0.1875 -1.48437,0.33593 0.11328,0.44141 0.28125,0.8711 0.5,1.27344 0.26953,0.48438 0.60937,0.94141 0.8125,1.45703 0.25781,0.64844 0.28906,1.36328 0.23047,2.0625 -0.125,1.47266 -0.63282,2.88281 -1.01953,4.3125 -0.38282,1.42578 -0.65235,2.9375 -0.30079,4.375 0.32422,1.31641 1.28125,2.54688 2.5625,2.90625 0.98047,-1.77344 2.25391,-3.45703 1.94532,-5.39453 -0.14453,-0.90234 -0.63282,-1.72656 -0.75782,-2.63281 z m 58.91797,-69.750001 c -0.0703,7.527341 -1.92187,15.031251 -5.35937,21.757811 -1.00391,1.96485 -2.14844,3.875 -2.81641,5.97656 -0.85156,2.6836 -0.88672,5.54688 -1.52344,8.28907 -0.30859,1.3164 -0.7539,2.60156 -1.33593,3.82812 -1.35157,2.86328 -3.40625,5.41016 -5.95703,7.32031 -1.91407,1.44141 -4.09766,2.53125 -5.94922,4.04688 -0.21094,0.28515 -0.42578,0.5664 -0.64844,0.84375 0.16406,-0.84375 0.23437,-1.71875 0.20703,-2.59375 -0.0312,-1.02344 -0.19141,-2.04297 -0.47266,-3.01172 -0.88671,-3.05078 -2.86328,-5.60938 -5.19921,-7.50391 -1.6836,-1.36718 -3.57422,-2.42968 -5.56641,-3.1289 0.69141,-0.70703 1.32812,-1.46094 1.90234,-2.26172 1.11328,-1.53906 2.01953,-3.23438 3.29688,-4.63281 3.61328,-3.96485 9.7539,-5.11328 12.83203,-9.50782 1.48047,-2.11328 2.04297,-4.71093 2.94531,-7.13281 0.92969,-2.5039 2.25391,-4.85156 3.89844,-6.949218 -2.54688,0.902344 -5.59375,0.554688 -8.31641,-0.03516 -2.6875,-0.578125 -5.34375,-1.316406 -7.94531,-2.207031 -2.43359,-0.835937 -5.26953,-1.769531 -7.42969,-0.371094 -0.0859,0.05859 -0.17187,0.121094 -0.26172,0.183594 -0.45312,-2.050781 -0.65234,-4.160156 -0.58984,-6.257813 2.44141,0.01172 4.87891,0.02344 7.31641,0.03906 6.30468,0.03516 12.60937,0.07031 18.91406,0.105469 2.03516,0.01172 4.08984,0.02734 6.06641,0.5 0.57421,0.136718 1.17187,0.335937 1.53906,0.785156 0.42969,0.523438 0.45703,1.246094 0.45312,1.917969"
       fill-opacity="1"
       fill-rule="nonzero"
       id="path26" />
  </g>
  <g
     clip-path="url(#id4)"
     id="g32"
     style="fill:#f9b08f;fill-opacity:1;stroke:#000000;stroke-width:0.0075;stroke-miterlimit:4;stroke-dasharray:none;stroke-opacity:1"
     transform="translate(-169.14675,-89.638687)">
    <path
       fill="rgb(95.689392%, 43.919373%, 16.079712%)"
       d="m 176.75,158.46875 c 0.53125,0.85156 1.06641,1.69922 1.59766,2.54687 0.20312,0.32032 0.46484,0.67969 0.83984,0.69532 0.29297,0.0195 0.55078,-0.17969 0.76172,-0.38672 0.44531,-0.42578 0.82422,-0.91797 1.125,-1.46094 -1.125,-0.35937 -2.25,-0.72266 -3.375,-1.08594 -0.31641,-0.0977 -0.63281,-0.20312 -0.94922,-0.30859 z m 39.33203,-68.242188 c -1.58203,-0.01172 -3.16016,-0.01953 -4.73828,-0.03125 -2.28516,-0.01172 -4.6875,0.01172 -6.90625,0.496094 -0.80078,0.175782 -1.58203,0.410156 -2.32422,0.726563 -0.22656,0.304687 -0.41797,0.632812 -0.58203,0.964843 -0.47656,0.957032 -0.8125,2.011719 -1.43359,2.871094 0.70703,0.21875 1.58203,0.148438 2.30468,-0.08203 1.23828,-0.394531 2.4961,-1.074219 3.75391,-0.765625 2.70312,0.664062 3.24609,5.277344 6.03125,5.347656 1.90234,0.04687 2.94922,-2.109375 4.48437,-3.269531 -0.45312,-2.050781 -0.65234,-4.160156 -0.58984,-6.257814 z m 18.92578,114.105468 c -0.0117,0.77344 -0.10937,1.58594 -0.5625,2.21484 -0.76172,1.05469 -2.26953,1.2461 -3.55078,1.02735 -1.27734,-0.21875 -2.50391,-0.75781 -3.80469,-0.8125 -1.58984,-0.0664 -3.10547,0.59765 -4.6289,1.07422 -1.51953,0.47265 -3.26172,0.73828 -4.64453,-0.0547 -0.30469,-0.17578 -0.60547,-0.43359 -0.64844,-0.78516 -0.0742,-0.6289 0.66015,-1 1.2539,-1.21093 4.54297,-1.59766 8.52735,-4.72657 11.16797,-8.76172 -0.0195,-0.32422 -0.0352,-0.65235 -0.0469,-0.97266 1.51562,0.89844 3.22656,1.47656 4.98047,1.67578 -0.0312,2.17969 0.51562,4.40235 0.48437,6.60547"
       fill-opacity="1"
       fill-rule="nonzero"
       id="path30"
       style="fill:#f9b08f;fill-opacity:1;stroke:#000000;stroke-width:0.0075;stroke-miterlimit:4;stroke-dasharray:none;stroke-opacity:1" />
  </g>
  <path
     fill="#181b38"
     d="m 8.8493361,65.826153 c -0.60937,-0.27343 -1.21093,-0.24609 -1.34375,0.0547 -0.13672,0.30078 0.25391,0.76563 0.86328,1.03906 0.60938,0.26953 1.21485,0.2461 1.34766,-0.0586 0.13281,-0.29688 -0.25391,-0.76563 -0.86719,-1.03516 z m -1.2539,-2.22265 c 0.22265,-0.10938 -0.0156,-0.32813 -0.19141,-0.27735 -1.41016,0.41797 -2.15234,2.06641 -1.62109,3.42188 0.0625,0.16015 0.42187,0.0937 0.375,-0.0859 -0.32813,-1.26172 0.28515,-2.48828 1.4375,-3.05859 z m 5.9140599,2.125 c 0.53906,1.28906 0.51562,2.66406 -0.15625,3.89843 -0.12891,0.23047 0.28125,0.35157 0.40625,0.17969 0.92187,-1.26172 1.07422,-2.92187 0.22266,-4.25781 -0.13672,-0.21484 -0.58594,-0.0937 -0.47266,0.17969 z m 58.30469,-12.58594 c -0.28907,8.91797 -2.37891,17.72656 -2.24219,26.64453 0.10937,6.95313 1.50391,14.28125 -1.37891,20.605467 -0.88281,1.93359 -2.15234,3.71875 -2.60937,5.79297 -0.13672,0.6289 -0.19531,1.26562 -0.20703,1.90234 -1.75391,-0.19922 -3.46485,-0.77734 -4.98047,-1.67578 -0.25781,-5.67187 -0.13281,-11.347657 1.27734,-16.820307 0.34375,-1.32422 0.76172,-2.65625 0.71485,-4.02735 -0.0547,-1.4375 -0.61719,-2.80078 -0.90235,-4.21093 -0.35547,-1.76563 -0.26562,-3.58594 -0.48828,-5.37891 -0.33203,-2.71484 -1.35937,-5.28906 -2.08984,-7.92969 -1.07032,-3.85937 -1.50782,-7.89062 -1.30469,-11.89453 0.0117,-0.0469 0.0195,-0.10156 0.0312,-0.15625 0.22266,-0.27344 0.4375,-0.55469 0.64844,-0.84375 1.85156,-1.51172 4.03125,-2.60156 5.94922,-4.04297 2.55078,-1.91406 4.60546,-4.45703 5.95703,-7.32422 1.50781,2.73047 1.73047,6.16797 1.625,9.35938"
     fill-opacity="1"
     fill-rule="nonzero"
     id="path34" />
  <path
     style="fill:#e13a67;fill-opacity:1;stroke:none;stroke-width:0.75px;stroke-linecap:butt;stroke-linejoin:miter;stroke-opacity:1"
     d="m 43.779026,42.165993 c 0,0 2.07197,-1.47846 2.82422,-2.40624 0,0 12.99988,4.38531 11.03125,16.23437 0,0 -3.5345,4.12471 -5.6836,5.01953 0,0 -10.87403,-10.96545 -8.17187,-18.84766 z"
     id="path3571" />
</svg>
