<?xml version="1.0" encoding="UTF-8" standalone="no"?>
<svg
   width="172.27039"
   zoomAndPan="magnify"
   viewBox="0 0 129.20279 118.07866"
   height="157.43822"
   preserveAspectRatio="xMidYMid meet"
   version="1.0"
   id="svg31"
   sodipodi:docname="5.svg"
   inkscape:version="1.1.1 (3bf5ae0d25, 2021-09-20)"
   xmlns:inkscape="http://www.inkscape.org/namespaces/inkscape"
   xmlns:sodipodi="http://sodipodi.sourceforge.net/DTD/sodipodi-0.dtd"
   xmlns="http://www.w3.org/2000/svg"
   xmlns:svg="http://www.w3.org/2000/svg">
  <sodipodi:namedview
     id="namedview33"
     pagecolor="#ffffff"
     bordercolor="#666666"
     borderopacity="1.0"
     inkscape:pageshadow="2"
     inkscape:pageopacity="0.0"
     inkscape:pagecheckerboard="0"
     showgrid="false"
     inkscape:zoom="0.46914358"
     inkscape:cx="710.8698"
     inkscape:cy="227.0094"
     inkscape:window-width="1920"
     inkscape:window-height="1001"
     inkscape:window-x="-9"
     inkscape:window-y="-9"
     inkscape:window-maximized="1"
     inkscape:current-layer="svg31"
     fit-margin-top="0"
     fit-margin-left="0"
     fit-margin-right="0"
     fit-margin-bottom="0" />
  <defs
     id="defs11">
    <clipPath
       id="id1">
      <path
         d="M 138.0625,82 H 267.73437 V 200.66797 H 138.0625 Z m 0,0"
         clip-rule="nonzero"
         id="path2" />
    </clipPath>
    <clipPath
       id="id2">
      <path
         d="M 138.08594,90.347656 H 253.45703 V 200.58984 H 138.08594 Z m 0,0"
         clip-rule="nonzero"
         id="path5" />
    </clipPath>
    <clipPath
       id="id3">
      <path
         d="m 238,82 h 29.73437 v 45 H 238 Z m 0,0"
         clip-rule="nonzero"
         id="path8" />
    </clipPath>
  </defs>
  <g
     clip-path="url(#id1)"
     id="g15"
     transform="translate(-138.08594,-82.51004)">
    <path
       fill="#f9b08f"
       d="m 246.69141,105.33594 c 0.21093,0.25781 0.42187,0.50781 0.64062,0.76172 -0.21875,-0.25391 -0.42969,-0.50391 -0.64062,-0.76172 z m -0.90625,-1.14844 c 0.20312,0.26953 0.41406,0.53906 0.6289,0.80469 -0.21484,-0.26563 -0.42578,-0.53516 -0.6289,-0.80469 z m 1.8164,2.21875 c 0.30469,0.34766 0.61328,0.6875 0.9336,1.01953 -0.32032,-0.33203 -0.62891,-0.67187 -0.9336,-1.01953 z m -2.03515,-2.51172 c -0.26172,-0.35156 -0.51563,-0.70312 -0.76563,-1.0625 0.25,0.35938 0.50391,0.71094 0.76563,1.0625 z m -3.08594,-4.878905 c 0.21484,0.398437 0.43359,0.792969 0.66015,1.187505 -0.22656,-0.394536 -0.44531,-0.789068 -0.66015,-1.187505 z m 0.71094,1.277345 c 0.49218,0.85156 1.01562,1.67969 1.57031,2.48828 -0.55469,-0.80859 -1.07813,-1.63672 -1.57031,-2.48828 z M 241.5,97.035156 c -0.22266,-0.480468 -0.43359,-0.96875 -0.63672,-1.457031 0.20313,0.488281 0.41406,0.976563 0.63672,1.457031 z m 0.27344,0.585938 c 0.20703,0.429687 0.42578,0.855468 0.64453,1.28125 -0.21875,-0.425782 -0.4375,-0.851563 -0.64453,-1.28125 z m -2.34375,-6.171875 c 0.0312,0.113281 0.0664,0.226562 0.10156,0.339843 -0.0352,-0.113281 -0.0703,-0.226562 -0.10156,-0.339843 z m 1.10156,3.289062 c 0.0781,0.210938 0.16016,0.421875 0.24609,0.628907 -0.0859,-0.207032 -0.16797,-0.417969 -0.24609,-0.628907 z m -0.35547,-0.949219 c 0.0664,0.183594 0.13281,0.367188 0.20313,0.550782 -0.0703,-0.183594 -0.13672,-0.367188 -0.20313,-0.550782 z m -0.42969,-1.285156 c 0.043,0.125 0.082,0.253906 0.1211,0.378906 -0.0391,-0.125 -0.0781,-0.253906 -0.1211,-0.378906 z m 26.67969,24.156254 c -0.81641,-2.20313 -1.97656,-4.29297 -2.46875,-6.59375 -0.62109,-2.89844 -0.14844,-5.90625 -0.0625,-8.8711 0.15625,-5.230466 -1.07812,-10.765622 -4.63672,-14.515622 -3.63281,-3.820313 -9.5039,-5.195313 -14.39062,-3.371094 -2.13282,0.796875 -4.10938,2.199218 -5.29688,4.183594 -1.01172,1.679687 -1.38672,3.804687 -0.86719,5.6875 -0.24218,1.609374 -0.4375,3.222656 -0.55078,4.839843 -0.63672,0.761719 -1.23047,1.5625 -1.77343,2.394529 -0.13672,0.20313 -0.26954,0.4336 -0.2461,0.67578 0.0391,0.42969 0.51953,0.64844 0.92578,0.78516 0.33594,0.10938 0.67578,0.22266 1.01172,0.33203 0.0703,1.77735 0.28906,3.54297 0.70703,5.28125 0.0625,0.26172 0.14063,0.53906 0.35157,0.70313 0.1914,0.14843 0.44531,0.17578 0.6875,0.18359 1.64843,0.0781 3.3125,-0.21094 4.83984,-0.83203 1.09766,1.46875 2.125,2.99219 3.07812,4.55859 -1.97265,2.58594 -4.14843,5.00391 -6.48828,7.22266 -1.49609,1.41406 -3.0664,2.76172 -4.34375,4.39453 -2.40625,3.07422 -3.64062,7.12891 -3.40234,11.10547 -0.0977,0.0977 -0.19922,0.1875 -0.29297,0.28125 -0.0859,0.0859 -0.0625,0.17187 0.004,0.23437 -0.12891,0 -0.26172,-0.004 -0.39063,-0.0195 -0.84765,-2.64062 -1.36719,-5.38672 -1.53125,-8.16015 0.10156,-0.0977 0.20313,-0.20313 0.30078,-0.3086 0.46875,-0.51953 0.89453,-1.09375 1.28907,-1.59375 1.3789,-1.73437 2.61718,-3.80078 3.63671,-5.76562 0.16016,-0.3086 0.32422,-0.65625 0.21875,-0.98828 -0.13671,-0.42969 -0.69531,-0.60157 -1.1289,-0.47266 -0.4336,0.125 -0.76953,0.46094 -1.08203,0.78516 -0.53516,0.55078 -1.07032,1.10156 -1.60157,1.65234 -0.25,0.25391 -0.51562,0.52344 -0.85937,0.62891 -0.0156,0.004 -0.0312,0.0117 -0.0508,0.0117 0.008,-1.22657 0.10937,-2.44922 0.3125,-3.66016 0.22656,-1.37109 0.57812,-2.73828 0.55469,-4.12891 -0.0234,-1.39453 -0.48829,-2.86328 -1.59766,-3.70312 -0.37891,-0.28906 -0.83984,-0.4961 -1.31641,-0.4961 -0.72265,0.004 -1.34765,0.47266 -1.91797,0.91797 -1.29687,1.01953 -2.63281,2.08203 -3.44921,3.52344 -0.91016,1.60156 -1.07813,3.51172 -1.08985,5.35156 -0.0156,2.44922 0.21875,4.89844 0.69922,7.30078 -0.0273,0.1836 -0.0469,0.36719 -0.0625,0.55469 -0.61719,5.86328 0.41797,11.89844 2.98438,17.20313 0.5664,1.17968 1.27734,2.38671 2.44921,2.95703 1.19141,0.58203 2.64454,0.37109 3.82422,-0.23047 0.82813,-0.42188 1.55078,-1.01172 2.23047,-1.64844 0.008,0.0664 0.082,0.11719 0.16406,0.13281 -0.004,0.52735 -0.0742,1.06641 -0.17968,1.60938 -0.11719,0.60937 -0.28516,1.21094 -0.46094,1.78125 -0.58203,1.89453 -1.16406,3.78906 -1.74219,5.68359 -0.043,0.14063 -0.0859,0.28516 -0.1289,0.42578 -0.28125,0.92188 -0.5586,1.85157 -0.81641,2.78907 -4.86719,-1.40235 -10.07031,-1.66407 -15.16016,-1.89844 -6.27734,-0.28906 -12.63281,-0.57422 -18.78125,0.71875 -2.02343,0.42578 -4.01172,1.01953 -6.05859,1.28515 -1.6875,0.21875 -3.39453,0.21094 -5.09766,0.20313 -3.11328,-0.0234 -6.22656,-0.0586 -9.33984,-0.10938 -5.89844,-0.0977 -11.85547,-0.25781 -17.57422,-1.6914 -3.61719,-0.91016 -7.10937,-2.31641 -10.76172,-3.03906 -0.25781,-0.0508 -0.51953,-0.0977 -0.77734,-0.14454 -3.69141,-0.61718 -7.75,-0.35156 -10.83203,1.72266 0.91015,1.48828 2.74218,2.4375 4.49218,2.93359 2.23438,0.63282 4.67188,0.87891 6.53125,2.26563 0.0586,0.043 0.11329,0.0859 0.16797,0.12891 2.26953,1.80859 3.53516,5.1289 6.38282,5.625 2.11718,0.36718 4.09375,-1.07032 6.20703,-1.47657 3.3125,-0.63281 6.49609,1.30469 9.64062,2.53516 6.64844,2.59766 14.01172,2.08984 21.1211,0.89844 -0.0586,0.0898 -0.10938,0.1875 -0.16407,0.28515 -1.33203,2.52344 -0.67187,5.77735 1.07813,8.03125 1.74609,2.25782 4.39844,3.64844 7.11328,4.53125 1.96484,0.63672 4.00391,1.04297 6.0625,1.20313 3.17578,0.25 6.38672,-0.0781 9.54297,0.33984 3.99609,0.52344 7.73828,2.21485 11.29687,4.10156 1.28125,0.67579 2.62891,1.47266 3.21875,2.79297 0,0.004 0,0.008 0.004,0.0117 0.85937,1.94141 -0.21875,4.26172 0.37109,6.30078 0.17188,0.58203 0.47657,1.13282 0.60157,1.71875 -1.1211,0.29297 -2.2461,0.58594 -3.36719,0.87891 -0.34766,0.0859 -0.71485,0.1875 -0.96485,0.44922 -0.52343,0.53515 -0.23828,1.50781 0.36719,1.94531 0.60547,0.4375 1.39844,0.49609 2.14453,0.53516 2.21094,0.11718 4.81641,0.0234 6.07032,-1.80078 0.68359,-0.99219 0.76953,-2.26172 1.03515,-3.4375 0.46485,-2.03907 1.53906,-3.94141 3.05078,-5.39063 0.73828,-0.70703 1.58203,-1.31641 2.17969,-2.14844 0.25,-0.35156 0.44922,-0.74609 0.58984,-1.15625 0.17579,-0.51953 0.26172,-1.0664 0.25782,-1.62109 1.71093,-0.37109 3.33984,-1.29297 4.64453,-2.48438 6.46484,-5.89062 7.7539,-14.30468 6.01562,-22.57421 -0.25,-1.1836 -0.45703,-2.38672 -0.60156,-3.59375 -0.32031,-2.67969 -0.32422,-5.39063 0.25391,-8.01563 0.0195,-0.0742 0.0352,-0.14844 0.0508,-0.22656 1.4375,-6.17188 5.94922,-11.17969 8.07031,-17.15235 0.52734,-1.48828 0.88672,-3.02734 1.08594,-4.58203 1.67578,0.0547 3.44531,-1.17578 4.14453,-2.82812 0.92187,-2.15625 0.45703,-4.67578 -0.35547,-6.88281"
       fill-opacity="1"
       fill-rule="nonzero"
       id="path13" />
  </g>
  <path
     fill="#ee2f4b"
     d="m 115.08984,73.83762 c -6.62891,1.13671 -13.54297,0.55078 -19.890618,-1.66407 -0.28125,0.92188 -0.5586,1.85157 -0.81641,2.78907 -0.37109,1.33203 -0.69531,2.68359 -0.91797,4.03515 -0.62891,0.42969 -1.38672,0.70703 -2.14062,0.8125 -1.51563,0.21485 -3.04688,-0.10937 -4.55469,-0.3789 -8.29297,-1.46875 -16.91016,-1.07813 -25.04297,1.1289 -2.76953,0.75391 -5.72656,1.91406 -7.18359,4.35938 -0.0586,0.0898 -0.10938,0.1875 -0.16407,0.28515 -1.33203,2.52344 -0.67187,5.77735 1.07813,8.03125 1.74609,2.25782 4.39844,3.64844 7.11328,4.53125 1.96484,0.63672 4.00391,1.04297 6.0625,1.20313 3.17578,0.25 6.38672,-0.0781 9.54297,0.33984 3.99609,0.52344 7.73828,2.21485 11.29687,4.10156 1.28125,0.67579 2.62891,1.47266 3.21875,2.79297 4.10547,0.0156 8.218748,-0.69531 12.082028,-2.09375 0.17579,-0.51953 0.26172,-1.0664 0.25782,-1.62109 1.71093,-0.37109 3.33984,-1.29297 4.64453,-2.48438 6.46484,-5.89062 7.7539,-14.30468 6.01562,-22.57421 -0.25,-1.1836 -0.45703,-2.38672 -0.60156,-3.59375 z m 9.46094,-29.97657 c -0.19922,1.55469 -0.5586,3.09375 -1.08594,4.58203 -2.12109,5.97266 -6.63281,10.98047 -8.07031,17.15235 -0.0156,0.0781 -0.0312,0.15234 -0.0508,0.22656 -5.96485,0.55469 -12.02735,0.0352 -17.812498,-1.53906 0.1289,-0.64063 0.20312,-1.27735 0.17968,-1.89453 -0.73046,0.69531 -1.5,1.34375 -2.39453,1.80078 -1.17968,0.60156 -2.63281,0.8125 -3.82422,0.23047 -1.17187,-0.57032 -1.88281,-1.77735 -2.44921,-2.95703 -2.56641,-5.30469 -3.60157,-11.33985 -2.98438,-17.20313 0.0469,-0.0391 0.0977,-0.0742 0.14844,-0.10937 0.34375,-0.23438 0.71875,-0.42188 1.10156,-0.57032 1.90625,-0.72265 4.11328,-0.46093 5.87109,0.5586 0.008,0.17187 0.0156,0.34375 0.0234,0.51172 0.16406,2.77343 0.6836,5.51953 1.53125,8.16015 0.23828,0.0273 0.47656,0.0273 0.71094,-0.004 -0.37109,-4.12891 0.86719,-8.39844 3.37109,-11.59766 1.277348,-1.63281 2.847658,-2.98047 4.343748,-4.39453 2.33985,-2.21875 4.51563,-4.63672 6.48828,-7.22266 0.80469,-1.05468 1.57813,-2.13281 2.31641,-3.24218 0.30078,0.24609 0.61328,0.47656 0.94531,0.67578 2.11328,1.28906 4.73438,1.44531 6.97266,2.5 1.20703,0.57031 2.28516,1.41015 3.14844,2.42578 1.48047,3.76562 2.03125,7.90625 1.51953,11.91015"
     fill-opacity="1"
     fill-rule="nonzero"
     id="path17" />
  <g
     clip-path="url(#id2)"
     id="g21"
     transform="translate(-138.08594,-82.51004)">
    <path
       fill="#f9b08f"
       d="m 148.91797,152.79687 c -3.69141,-0.61718 -7.75,-0.35156 -10.83203,1.72266 0.91015,1.48828 2.74218,2.4375 4.49218,2.93359 2.23438,0.63282 4.67188,0.87891 6.53125,2.26563 0.0586,0.043 0.11329,0.0859 0.16797,0.12891 -0.42187,-2.28516 -0.28125,-4.6836 0.41797,-6.90625 -0.25781,-0.0508 -0.51953,-0.0977 -0.77734,-0.14454 z m 81.86328,35.92969 c 0.85937,1.94141 -0.21875,4.26172 0.37109,6.30078 0.17188,0.58203 0.47657,1.13282 0.60157,1.71875 -1.1211,0.29297 -2.2461,0.58594 -3.36719,0.87891 -0.35156,0.0859 -0.71485,0.1875 -0.96485,0.44922 -0.52343,0.53515 -0.23828,1.50781 0.36719,1.94531 0.60547,0.4375 1.39844,0.49609 2.14453,0.53516 2.21094,0.11718 4.81641,0.0234 6.07032,-1.80078 0.68359,-0.99219 0.76953,-2.26172 1.03515,-3.4375 0.46094,-2.03907 1.53906,-3.94141 3.05078,-5.39063 0.73828,-0.70703 1.58203,-1.31641 2.17578,-2.14844 0.25391,-0.35156 0.45313,-0.74609 0.59375,-1.15625 -3.86328,1.39844 -7.97656,2.10938 -12.08593,2.09375 0.004,0.004 0.004,0.008 0.008,0.0117 z m 0.48437,-62.07812 c 0.004,0.17187 0.0117,0.34375 0.0234,0.51172 0.10156,-0.0977 0.20313,-0.20313 0.30078,-0.3086 0.46875,-0.51953 0.89063,-1.09375 1.28907,-1.59375 1.3789,-1.73437 2.61718,-3.80078 3.63671,-5.76562 0.16016,-0.3086 0.32422,-0.65625 0.21875,-0.98828 -0.13671,-0.42969 -0.69531,-0.60157 -1.1289,-0.47266 -0.4336,0.125 -0.76953,0.46094 -1.08203,0.78516 -0.53516,0.55078 -1.07032,1.10156 -1.60157,1.65234 -0.25,0.25391 -0.51953,0.52344 -0.85937,0.62891 -0.0156,0.004 -0.0312,0.0117 -0.0508,0.0117 0.004,-1.22657 0.10937,-2.44922 0.3125,-3.66016 0.22656,-1.37109 0.57812,-2.73828 0.55469,-4.12891 -0.0234,-1.39453 -0.49219,-2.86328 -1.60157,-3.70312 -0.375,-0.28906 -0.83593,-0.4961 -1.3125,-0.4961 -0.72265,0.004 -1.34765,0.47266 -1.91797,0.91797 -1.30078,1.01953 -2.63281,2.08203 -3.44921,3.52344 -0.91016,1.60156 -1.07813,3.51172 -1.08985,5.35156 -0.0156,2.44922 0.21875,4.89844 0.69922,7.30078 -0.0273,0.1836 -0.0469,0.36719 -0.0625,0.55469 0.0469,-0.0391 0.0977,-0.0742 0.14844,-0.10937 0.34375,-0.23438 0.71875,-0.42188 1.10156,-0.57032 1.90625,-0.72265 4.11328,-0.46093 5.87109,0.5586 z m 7.51172,-19.16016 c 0.0625,0.26172 0.14063,0.53906 0.35157,0.70313 0.1875,0.14843 0.44531,0.17578 0.6875,0.18359 1.64843,0.0781 3.3125,-0.21094 4.83984,-0.83203 1.09766,1.46875 2.125,2.99219 3.07812,4.55859 0.80469,-1.05468 1.57813,-2.13281 2.3125,-3.24218 -0.53515,-0.4375 -1.03515,-0.92969 -1.51171,-1.4336 -4.51954,-4.74219 -7.78516,-10.667968 -9.38672,-17.023436 -0.15625,0.921875 -0.3086,1.847656 -0.44532,2.777344 -0.24218,1.609374 -0.4414,3.222656 -0.55078,4.839843 -0.10156,1.398438 -0.13672,2.796879 -0.082,4.187499 0.0664,1.77735 0.28906,3.54297 0.70703,5.28125 z m 14.39844,48.85938 c -6.62891,1.13671 -13.54297,0.55078 -19.89062,-1.66407 0.043,-0.14062 0.0859,-0.28515 0.1289,-0.42578 0.57813,-1.89453 1.16016,-3.78906 1.74219,-5.68359 0.17187,-0.57031 0.34375,-1.17188 0.46094,-1.78125 5.78515,1.57422 11.84765,2.09375 17.8125,1.54297 -0.57813,2.62109 -0.57422,5.33203 -0.25391,8.01172"
       fill-opacity="1"
       fill-rule="nonzero"
       id="path19" />
    <path
       style="fill:#ee2f4b;fill-opacity:1;stroke:none;stroke-width:0.75px;stroke-linecap:butt;stroke-linejoin:miter;stroke-opacity:1"
       d="m 235.61719,146.79297 c 0,0 -2.10804,7.4415 -2.33204,7.89062 -0.22398,0.44912 13.28137,4.02709 19.89063,1.66406 0,0 -0.41401,-6.14385 0.25391,-8.01562 z"
       id="path1113" />
  </g>
  <path
     fill="#de1c32"
     d="m 95.445312,52.85715 c 2.83203,-2.24219 5.464838,-4.76172 8.058588,-7.27735 2.45703,-2.3789 4.91407,-4.80078 7.07422,-7.45703 0.21094,-0.26172 -0.21875,-0.42187 -0.40625,-0.24218 -2.54687,2.4414 -4.94922,5.03515 -7.46484,7.51171 -2.48438,2.44922 -5.089848,4.76953 -7.585938,7.20313 -0.19531,0.1914 0.15234,0.39844 0.32422,0.26172 z M 120.53515,30.59934 c -0.17968,-0.26563 -0.76562,-0.082 -0.59375,0.24609 3.4375,6.67969 -0.74609,13.38672 -5.70703,17.84765 -5.34765,4.8125 -11.30859,8.91797 -16.640618,13.7461 -0.15235,0.14062 0.10547,0.30078 0.24218,0.20703 3.394538,-2.42188 6.613288,-5.11328 9.871098,-7.71875 2.84765,-2.27344 5.78906,-4.47266 8.38672,-7.04688 4.32422,-4.28124 8.32031,-11.42968 4.4414,-17.28124 z m -16.14453,71.01562 c -8.316398,2.58203 -15.874998,-2.79297 -22.816398,-6.59375 -5.69532,-3.11719 -14.03125,-6.34766 -20.03907,-2.07813 -0.18359,0.13282 -0.004,0.36329 0.1875,0.27735 3.64063,-1.65235 7.33203,-1.91797 11.22266,-0.95703 3.85156,0.94531 7.32422,2.94922 10.72266,4.92187 6.24609,3.6211 13.54687,7.6875 20.964838,5.25391 0.63672,-0.20703 0.40234,-1.02344 -0.24219,-0.82422 z M 61.726562,80.56027 c -2.76953,0.75391 -5.72656,1.91406 -7.18359,4.35938 -7.10938,1.1914 -14.47266,1.69922 -21.1211,-0.89844 -3.14453,-1.23047 -6.32812,-3.16797 -9.64062,-2.53516 -2.11328,0.40625 -4.08985,1.84375 -6.20703,1.47657 -2.84766,-0.4961 -4.11329,-3.81641 -6.38282,-5.625 -0.42187,-2.28516 -0.28125,-4.6836 0.41797,-6.90625 3.65235,0.72265 7.14453,2.1289 10.76172,3.03906 5.71875,1.43359 11.67578,1.59375 17.57422,1.6914 3.11328,0.0508 6.22656,0.0859 9.33984,0.10938 1.70313,0.008 3.41016,0.0156 5.09766,-0.20313 2.04687,-0.26562 4.03516,-0.85937 6.05859,-1.28515 6.14844,-1.29297 12.50391,-1.00781 18.78125,-0.71875 5.08985,0.23437 10.29297,0.49609 15.16016,1.89844 -0.37109,1.33203 -0.69531,2.68359 -0.91797,4.03515 -0.62891,0.42969 -1.38672,0.70703 -2.14062,0.8125 -1.51563,0.21485 -3.04688,-0.10937 -4.55469,-0.3789 -8.29297,-1.46875 -16.91016,-1.07813 -25.04297,1.1289"
     fill-opacity="1"
     fill-rule="nonzero"
     id="path23" />
  <path
     fill="#f68c58"
     d="m 92.914062,28.15793 c -1.48828,2.19922 -2.20313,5.27734 -2.47266,7.89062 -0.0273,0.25391 0.39063,0.26954 0.44922,0.0391 0.35156,-1.39844 0.70313,-2.79297 1.1836,-4.16016 0.43359,-1.23437 1.03125,-2.41797 1.40625,-3.67187 0.0977,-0.32813 -0.44532,-0.27735 -0.56641,-0.0977 z m -1.62891,-1.35156 c -1.96484,2.21093 -3.27734,6.05859 -2.79297,9.02343 0.0273,0.15235 0.30079,0.15625 0.33204,0.004 0.35546,-1.61719 0.50781,-3.21875 1.05078,-4.80078 0.48828,-1.40625 1.21484,-2.69141 1.83203,-4.03906 0.11719,-0.25391 -0.27735,-0.35157 -0.42188,-0.1875 z m -3.75781,3.19531 c -1.25781,1.65625 -1.76172,4.54687 -0.99609,6.5 0.0469,0.10937 0.22656,0.0664 0.23437,-0.043 0.10156,-1.08984 0.0156,-2.17969 0.20703,-3.26562 0.1875,-1.07422 0.6211,-2.0625 0.91016,-3.10938 0.0547,-0.21094 -0.26953,-0.19531 -0.35547,-0.082 z m 12.45703,-10.30469 c -0.33594,-0.10937 -0.67578,-0.22265 -1.01172,-0.33203 -0.40625,-0.13672 -0.88672,-0.35547 -0.92578,-0.78516 -0.0234,-0.24218 0.10938,-0.47265 0.2461,-0.67578 0.54296,-0.832029 1.13671,-1.63281 1.773428,-2.394529 -0.101558,1.398438 -0.136718,2.796879 -0.082,4.187499"
     fill-opacity="1"
     fill-rule="nonzero"
     id="path25" />
  <g
     clip-path="url(#id3)"
     id="g29"
     transform="translate(-138.08594,-82.51004)">
    <path
       fill="#6e1829"
       d="m 241.87891,103.76563 c -0.75,-0.0547 -1.57032,0.15625 -2.29297,0.34765 -0.34375,0.0898 -0.29688,0.48828 0.0703,0.45313 0.73828,-0.0664 1.58203,-0.14453 2.26562,-0.44922 0.19141,-0.082 0.19141,-0.33594 -0.043,-0.35156 z m 24.90234,19.77734 c -0.69922,1.65234 -2.46875,2.88281 -4.14453,2.82812 0.51172,-4.0039 -0.0391,-8.14453 -1.51953,-11.91015 -0.86328,-1.01563 -1.94141,-1.85547 -3.14844,-2.42578 -2.23828,-1.05469 -4.85938,-1.21094 -6.97266,-2.5 -0.33203,-0.19922 -0.64453,-0.42969 -0.94531,-0.67578 -0.53906,-0.4375 -1.03906,-0.92969 -1.51562,-1.4336 -2.75,-2.88672 -5.03125,-6.21094 -6.76172,-9.804686 -0.76953,0.257812 -1.69922,0.08594 -2.34766,-0.375 -0.3125,-0.21875 0.0937,-0.519532 0.35938,-0.390625 0.58203,0.285156 1.14453,0.296875 1.71484,0.179687 -0.98438,-2.132812 -1.77734,-4.355468 -2.35156,-6.632812 -0.15625,0.921875 -0.3086,1.847656 -0.44532,2.777344 -0.51953,-1.882813 -0.14453,-4.007813 0.86719,-5.6875 1.1875,-1.984376 3.16406,-3.386719 5.29688,-4.183594 4.88672,-1.824219 10.75781,-0.449219 14.39062,3.371094 3.5586,3.75 4.79297,9.285156 4.63672,14.515622 -0.0859,2.96485 -0.55859,5.97266 0.0625,8.8711 0.49219,2.30078 1.65234,4.39062 2.46875,6.59375 0.8125,2.20703 1.27734,4.72656 0.35547,6.88281"
       fill-opacity="1"
       fill-rule="nonzero"
       id="path27" />
  </g>
</svg>
