<?xml version="1.0" encoding="UTF-8" standalone="no"?>
<svg
   width="167.73235"
   zoomAndPan="magnify"
   viewBox="0 0 125.79926 119.17957"
   height="158.9061"
   preserveAspectRatio="xMidYMid meet"
   version="1.0"
   id="svg36"
   sodipodi:docname="Chest.svg"
   inkscape:version="1.1.1 (3bf5ae0d25, 2021-09-20)"
   xmlns:inkscape="http://www.inkscape.org/namespaces/inkscape"
   xmlns:sodipodi="http://sodipodi.sourceforge.net/DTD/sodipodi-0.dtd"
   xmlns="http://www.w3.org/2000/svg"
   xmlns:svg="http://www.w3.org/2000/svg">
  <sodipodi:namedview
     id="namedview38"
     pagecolor="#ffffff"
     bordercolor="#666666"
     borderopacity="1.0"
     inkscape:pageshadow="2"
     inkscape:pageopacity="0.0"
     inkscape:pagecheckerboard="0"
     showgrid="false"
     inkscape:zoom="0.46914358"
     inkscape:cx="849.42013"
     inkscape:cy="538.21476"
     inkscape:window-width="1920"
     inkscape:window-height="1001"
     inkscape:window-x="-9"
     inkscape:window-y="-9"
     inkscape:window-maximized="1"
     inkscape:current-layer="svg36"
     fit-margin-top="0"
     fit-margin-left="0"
     fit-margin-right="0"
     fit-margin-bottom="0" />
  <defs
     id="defs14">
    <clipPath
       id="id1">
      <path
         d="M 146.89062,89.378906 H 272.69141 V 208.55859 H 146.89062 Z m 0,0"
         clip-rule="nonzero"
         id="path2" />
    </clipPath>
    <clipPath
       id="id2">
      <path
         d="m 216,106.49219 h 56.69141 v 46.80468 H 216 Z m 0,0"
         clip-rule="nonzero"
         id="path5" />
    </clipPath>
    <clipPath
       id="id3">
      <path
         d="M 146.89062,89.378906 H 269.79687 V 208.55859 H 146.89062 Z m 0,0"
         clip-rule="nonzero"
         id="path8" />
    </clipPath>
    <clipPath
       id="id4">
      <path
         d="m 170,89.378906 h 38 V 139 h -38 z m 0,0"
         clip-rule="nonzero"
         id="path11" />
    </clipPath>
  </defs>
  <g
     id="g2122"
     transform="translate(-146.89215,-89.379019)">
    <g
       clip-path="url(#id1)"
       id="g18">
      <path
         fill="#f57f3f"
         d="m 255.99609,163.40234 c -2.78515,5.55469 -6.96093,10.40625 -12.01562,14.02344 0.12109,-5.08203 0.53906,-10.16406 0.35937,-15.24219 -0.10937,-2.98828 -0.4375,-6.00781 -1.13672,-8.91406 6.95313,-1.42969 13.42188,-4.65234 19.66797,-8.20312 -0.0351,0.14843 -0.0625,0.29687 -0.0781,0.44531 -0.17578,1.40234 -0.21094,3.03125 -1.32031,3.91015 -1.35157,1.07032 -3.64454,0.4336 -4.76172,1.74219 -1.22657,1.44141 0.11718,3.53516 0.61328,5.35547 0.10156,0.37109 0.16015,0.74609 0.1875,1.12109 0.14844,1.96485 -0.61719,3.96875 -1.51563,5.76172 z m 15.60157,-30.6914 c -0.87891,-1.38672 -2.1211,-2.4961 -3.35938,-3.57032 -8.28906,-7.17578 -17.24609,-13.78124 -23.91406,-22.47656 -0.0391,-0.0508 -0.082,-0.10547 -0.1211,-0.16015 -4.1875,-5.4961 -7.5,-11.871098 -12.41796,-16.593754 -1.11329,-1.066406 -2.98438,-0.4375 -3.21094,1.089844 -0.25,1.714844 0.16015,3.652344 0.8125,5.300781 1.07812,2.726563 2.67187,5.460939 2.32422,8.371099 -0.15235,1.28906 -0.69141,2.50781 -0.91797,3.78906 -0.22656,1.28125 -0.0742,2.76172 0.90234,3.625 1.59375,1.40625 4.1875,0.34375 6.17188,1.11719 0.20703,0.082 0.40625,0.18359 0.59375,0.29687 0.92578,0.57031 1.61328,1.50391 2.2539,2.39844 4.07032,5.6914 8.14453,11.38281 12.21875,17.07422 -2.98437,-0.3125 -6.14453,0.35937 -9.11328,1.08593 -2.9414,0.72657 -6.01953,1.48828 -9,1.375 -2.23828,-0.99609 -4.59765,-1.66406 -7.04297,-1.8125 -4.3789,-0.26172 -9.03906,1.42969 -11.65234,4.8711 -0.48047,0.16015 -0.96484,0.3164 -1.44531,0.46484 -0.47657,0.14453 -0.95703,0.28516 -1.44922,0.40625 -2.99219,0.75 -6.1875,0.97266 -8.90235,-0.37891 0.96094,-1.16406 0.89454,-2.89062 0.40235,-4.42968 -0.11328,-0.36719 -0.25391,-0.71875 -0.41016,-1.05469 -0.86328,-1.86328 -2.12109,-3.68359 -2.05469,-5.73828 0.0859,-2.58594 2.21485,-4.56641 3.53516,-6.79297 2.57422,-4.32031 1.91016,-10.31641 -1.53906,-13.97656 -1.97656,-2.09375 -4.72656,-3.47656 -6.20313,-5.94141 -1.4414,-2.398436 -1.4375,-5.453124 -2.88672,-7.847655 -1.20703,-1.996094 -3.41796,-3.359375 -5.74609,-3.535156 -1.04297,-0.07422 -2.10156,0.08594 -3.08203,0.445312 -0.1875,0.07031 -0.27734,0.273438 -0.20703,0.457031 v 0.0039 c -0.5625,0.179687 -1.1211,0.363281 -1.67578,0.554687 -2.5586,0.890625 -5.05469,1.972656 -7.45313,3.222656 -0.97656,-0.01562 -1.95312,-0.03125 -2.93359,-0.04687 -1.03125,-0.01563 -2.31641,0.128906 -2.67578,1.097656 -0.25,0.675781 0.10156,1.332031 0.62109,1.882812 -0.80078,0.527344 -1.58594,1.074219 -2.35547,1.640625 -1.07031,0.792969 -2.17187,1.710942 -2.5039,3.000002 -0.34766,1.34766 0.27343,2.79688 1.24218,3.80078 0.59766,0.61719 1.31641,1.09766 2.06641,1.51953 0.0234,0.0156 0.043,0.0273 0.0625,0.0352 -1.47266,6.42188 -0.35938,13.40625 3.01953,19.0625 -1.35156,4.30859 -1.73437,8.875 -2.19141,13.375 -1.01171,10.03516 -2.44921,20.02344 -4.30859,29.93359 -1.53906,8.20313 -3.42969,16.52344 -7.80859,23.63282 -3.21875,5.23046 -7.65625,9.57812 -12.1211,13.80859 -0.42968,0.41016 -0.22265,1.13281 0.35547,1.26172 3.70703,0.8164 7.13281,-0.87891 10.03125,-3.26953 0.54688,-0.44922 1.375,-0.3086 1.73047,0.30859 0.5625,0.97656 1.25781,1.88281 2.0625,2.67188 0.28125,0.27734 0.67188,0.4375 1.0625,0.37109 0.89844,-0.15234 0.9375,-1.21875 0.71484,-1.98828 -0.42968,-1.46094 -1.3164,-2.73828 -1.875,-4.15235 -0.0703,-0.1914 -0.14062,-0.39062 -0.19921,-0.59375 3.57812,-3.98046 5.80859,-8.97656 7.95703,-13.88281 5.51562,-12.59375 10.93359,-25.33594 14.91406,-38.46484 0.95312,1.74609 2.26172,3.30469 3.79687,4.64062 1.625,1.41797 3.50782,2.58203 5.47657,3.44141 5.0664,2.21094 10.69922,2.69141 16.22265,2.9375 1.40235,0.0586 2.8125,0.10937 4.21485,0.17187 3.10547,0.13282 6.21093,0.33204 9.25,0.86329 0.9414,8.76171 4.02734,17.33984 7.08203,25.68359 1.49219,4.07812 2.99219,8.17578 5.08984,11.97266 0.8125,1.47265 1.73438,2.92187 3.03906,3.98046 1.3086,1.0625 3.0586,1.6836 4.69532,1.29688 2.4375,-0.58594 3.83203,-3.07422 4.9375,-5.32031 6.69531,-13.6211 13.40625,-27.28125 18.73437,-41.47657 0.7461,-1.98828 1.46485,-3.98437 2.15235,-5.99609 0.58984,-1.72266 1.16015,-3.49219 1.13671,-5.30859 -0.0234,-1.54297 -0.55078,-3.14453 -1.64062,-4.20313 1.91406,-1.14453 3.90234,-2.51172 4.47266,-4.64453 0.42578,-1.58203 -0.0586,-3.30078 -0.9375,-4.68359"
         fill-opacity="1"
         fill-rule="nonzero"
         id="path16" />
    </g>
    <g
       clip-path="url(#id2)"
       id="g22">
      <path
         fill="#d62224"
         d="m 242.41406,110.23047 c 0.83594,-1.06641 1.48047,-2.28125 1.91016,-3.56641 6.66797,8.69532 15.625,15.30078 23.91406,22.47656 1.23828,1.07422 2.48047,2.1836 3.35938,3.57032 0.8789,1.38281 1.36328,3.10156 0.9375,4.68359 -0.57032,2.13281 -2.5586,3.49609 -4.47266,4.64453 -0.10547,0.0625 -0.21094,0.125 -0.3125,0.1836 -1.61719,0.95312 -3.24219,1.91015 -4.87891,2.84375 -6.24609,3.55078 -12.71484,6.77343 -19.66797,8.20312 -0.70703,-2.9375 -1.78906,-5.76172 -3.39453,-8.30859 -3.1875,-5.07032 -8.7539,-8.87891 -14.67578,-8.69532 -3.09765,0.0977 -6.04687,1.23829 -9.00781,2.22657 2.61328,-3.44141 7.27344,-5.13282 11.65234,-4.8711 2.44532,0.14844 4.80469,0.81641 7.04297,1.8125 2.98047,0.11328 6.0586,-0.64843 9,-1.375 2.96875,-0.72656 6.12891,-1.39843 9.11328,-1.08593 -4.07422,-5.69141 -8.14843,-11.38282 -12.21875,-17.07422 -0.64062,-0.89453 -1.32812,-1.82813 -2.2539,-2.39844 1.53125,-0.79687 2.89062,-1.91406 3.95312,-3.26953"
         fill-opacity="1"
         fill-rule="nonzero"
         id="path20" />
    </g>
    <path
       fill="#f0421d"
       d="m 198.03516,131.37109 c -1.66016,1.89063 -3.38672,3.73047 -5.42188,5.20313 -1.78516,1.29297 -3.84766,2.28906 -6.00391,2.65625 -0.80468,3.40234 -1.72265,6.77734 -2.73437,10.125 0.95312,1.74609 2.26172,3.30469 3.79687,4.64062 6.78907,-3.19922 12.38672,-8.85937 15.57422,-15.64843 -2.36328,-1.625 -3.82031,-4.27735 -5.21093,-6.97657 z m 68.3789,26.17578 c -5.32812,14.19532 -12.03906,27.85547 -18.73437,41.47657 -1.10547,2.24609 -2.5,4.73437 -4.9375,5.32031 -1.63672,0.38672 -3.38672,-0.23438 -4.69532,-1.29688 -1.30468,-1.05859 -2.22656,-2.51171 -3.03906,-3.98046 -2.09765,-3.79688 -3.59765,-7.89454 -5.08984,-11.97266 -3.05469,-8.34375 -6.14063,-16.92188 -7.08203,-25.68359 -3.03907,-0.53125 -6.14453,-0.73047 -9.25,-0.86329 -0.51953,-1.32421 -0.8125,-2.75781 -0.91407,-4.17187 -0.21484,-3.04688 0.34766,-6.08984 0.70704,-9.125 0.3125,-2.62109 0.46484,-5.33203 -0.14844,-7.88672 0.49219,-0.12109 0.97265,-0.26172 1.44922,-0.40625 0.48047,-0.14844 0.96484,-0.30469 1.44531,-0.46484 2.96094,-0.98828 5.91016,-2.12891 9.00781,-2.22657 5.92188,-0.18359 11.48828,3.625 14.67578,8.69532 1.60547,2.54687 2.6875,5.37109 3.39453,8.30859 0.69922,2.90625 1.02735,5.92578 1.13672,8.91406 0.17969,5.07813 -0.23828,10.16016 -0.35937,15.24219 5.05469,-3.61719 9.23047,-8.46875 12.01562,-14.02344 0.89844,-1.79297 1.66407,-3.79687 1.51563,-5.76172 1.78906,0.64454 3.71484,0.89063 5.60547,0.69922 1.1289,-0.11328 2.23828,-0.3789 3.29687,-0.79297"
       fill-opacity="1"
       fill-rule="nonzero"
       id="path24" />
    <g
       clip-path="url(#id3)"
       id="g28">
      <path
         fill="#f57f3f"
         d="m 170.46875,107.24609 c 3.88281,1.33594 8.05078,1.84766 12.14453,1.48829 -0.0195,-0.1875 -0.0742,-0.3711 -0.16406,-0.55469 -0.375,-0.72656 -1.26172,-1 -1.84766,-1.56641 -1.27734,-1.23437 -0.75781,-3.45703 0.39453,-4.80469 1.15235,-1.34765 2.78516,-2.21484 3.96094,-3.539059 1.82813,-2.050781 2.17578,-5.164062 1.17969,-7.695312 -0.5625,0.175781 -1.1211,0.363281 -1.67578,0.554687 -2.5586,0.890625 -5.05469,1.972656 -7.45313,3.222656 -1.71094,0.890626 -3.3789,1.871094 -4.98828,2.933594 -0.80078,0.527344 -1.58594,1.074219 -2.35547,1.640625 -1.07031,0.792969 -2.17187,1.710939 -2.5039,2.999999 -0.34766,1.34766 0.27343,2.79688 1.24218,3.80078 0.59766,0.61719 1.31641,1.09766 2.06641,1.51953 z m 27.56641,24.125 c -0.60547,-1.17968 -1.20313,-2.36718 -1.85547,-3.48437 -3.42188,-5.85156 -9.14453,-10.25781 -15.59375,-12.08203 -0.17578,0.1289 -0.34766,0.2539 -0.51172,0.39062 -2.85156,2.26953 -4.90625,5.57422 -6.15235,9.03907 -0.1289,0.36718 -0.2539,0.73437 -0.37109,1.10937 -1.35156,4.30859 -1.73437,8.875 -2.19141,13.375 -1.01171,10.03516 -2.44921,20.02344 -4.30859,29.92969 -1.53906,8.20703 -3.42969,16.52734 -7.80859,23.63672 -3.21875,5.23046 -7.65625,9.57812 -12.1211,13.80859 -0.42968,0.41016 -0.22265,1.13281 0.35547,1.26172 3.70703,0.8164 7.13281,-0.87891 10.03125,-3.26953 0.54688,-0.44922 1.375,-0.3086 1.73047,0.30859 0.5625,0.97656 1.25781,1.88281 2.0625,2.67188 0.28125,0.27734 0.67188,0.4375 1.0625,0.37109 0.89844,-0.15234 0.9375,-1.21875 0.71484,-1.98828 -0.42968,-1.46094 -1.3164,-2.73828 -1.875,-4.15235 -0.0703,-0.1914 -0.14062,-0.39062 -0.19921,-0.59375 3.57812,-3.98046 5.80859,-8.97656 7.95703,-13.88281 5.51562,-12.59375 10.9375,-25.33594 14.91406,-38.46484 1.01172,-3.34766 1.92969,-6.72266 2.73437,-10.125 2.15625,-0.36719 4.21875,-1.36328 6.00782,-2.65625 2.03125,-1.47266 3.75781,-3.3125 5.41797,-5.20313 z m 15.19531,7.99219 c -2.99219,0.75 -6.1875,0.97266 -8.90235,-0.37891 -0.0703,-0.0312 -0.13671,-0.0625 -0.19921,-0.0977 -0.3086,-0.16016 -0.60157,-0.34375 -0.88282,-0.53906 -3.1875,6.78906 -8.78515,12.44921 -15.57422,15.64843 1.625,1.41797 3.50782,2.58203 5.47657,3.44141 5.0664,2.21094 10.69922,2.69141 16.22265,2.9375 1.40235,0.0586 2.8125,0.10937 4.21485,0.17187 -0.51953,-1.32421 -0.8125,-2.75781 -0.91407,-4.17187 -0.21093,-3.04688 0.34766,-6.08984 0.70704,-9.125 0.3125,-2.62109 0.46484,-5.33203 -0.14844,-7.88672 z m 18.55469,-49.449218 c -1.11329,-1.070312 -2.98438,-0.4375 -3.21094,1.085938 -0.25,1.714844 0.16406,3.652344 0.8164,5.300781 1.07422,2.726563 2.66797,5.460939 2.32032,8.371099 -0.15235,1.28906 -0.69141,2.50781 -0.91797,3.78906 -0.22656,1.28125 -0.0742,2.76172 0.90234,3.625 1.59375,1.40625 4.1875,0.34375 6.17188,1.11719 0.20703,0.0859 0.40625,0.18359 0.59765,0.29687 1.52735,-0.79297 2.88672,-1.91406 3.94922,-3.26953 0.83594,-1.06641 1.48047,-2.28125 1.91406,-3.56641 -0.043,-0.0508 -0.0859,-0.10547 -0.125,-0.15625 -4.1875,-5.5 -7.5,-11.871091 -12.41796,-16.593748 z m 37.91796,56.328128 c 0.0234,1.8164 -0.54687,3.58593 -1.13671,5.30859 -0.6875,2.01172 -1.40625,4.00781 -2.15235,5.99609 -1.05859,0.41407 -2.16797,0.67969 -3.29687,0.79297 -1.89063,0.19141 -3.81641,-0.0547 -5.60547,-0.69922 -0.0274,-0.375 -0.0859,-0.75 -0.1875,-1.12109 -0.4961,-1.82031 -1.83985,-3.91406 -0.61328,-5.35547 1.11718,-1.30859 3.41015,-0.67187 4.76172,-1.74219 1.10937,-0.8789 1.14453,-2.50781 1.32031,-3.91015 0.0156,-0.14844 0.043,-0.29688 0.0781,-0.44531 1.63672,-0.9336 3.26172,-1.89063 4.87891,-2.84375 0.10156,-0.0586 0.20703,-0.1211 0.3125,-0.1836 1.08984,1.0586 1.61719,2.66016 1.64062,4.20313"
         fill-opacity="1"
         fill-rule="nonzero"
         id="path26" />
    </g>
    <path
       fill="#ef5c2c"
       d="m 185.3125,124.64453 c -0.12109,-0.16406 -0.53906,0.004 -0.40234,0.19922 1.38671,2.06641 2.2539,4.42969 2.50781,6.91016 0.2539,2.52734 -0.29688,4.80468 -0.88672,7.23437 -0.0547,0.22656 0.32031,0.23828 0.40625,0.0859 2.59375,-4.39844 1.26953,-10.53906 -1.625,-14.42969 z m -14.84375,-17.39844 c 0.0234,0.0156 0.043,0.0273 0.0625,0.0352 -1.47266,6.42188 -0.35938,13.40625 3.01953,19.0625 0.11719,-0.375 0.24219,-0.74219 0.37109,-1.10937 1.2461,-3.46485 3.30079,-6.76954 6.15235,-9.03907 -0.008,-0.17578 -0.008,-0.35547 0,-0.53125 0.043,-1.44531 0.47265,-2.8789 1.26953,-4.08984 0.57812,-0.875 1.36719,-1.88281 1.26953,-2.83984 -4.09375,0.35937 -8.26172,-0.15235 -12.14453,-1.48829 z m 1.55078,-9.960934 c -0.51953,-0.550781 -0.87109,-1.207031 -0.62109,-1.882812 0.35937,-0.96875 1.64453,-1.113282 2.67578,-1.097656 0.98047,0.01562 1.95703,0.03125 2.93359,0.04687 -1.71094,0.890626 -3.3789,1.871094 -4.98828,2.933594"
       fill-opacity="1"
       fill-rule="nonzero"
       id="path30" />
    <g
       clip-path="url(#id4)"
       id="g34">
      <path
         fill="#34262b"
         d="m 180.54297,93.714844 c 0.8164,0.300781 1.52344,0.835937 2.03515,1.539062 0.47266,0.644532 0.64844,1.355469 0.88282,2.097656 0.0781,0.25 0.55468,0.261719 0.58203,-0.03125 0.19531,-1.894531 -1.60156,-3.554687 -3.3125,-3.9375 -0.23047,-0.05078 -0.47266,0.230469 -0.1875,0.332032 z m 0.57031,6.148437 c 0.1875,0.08203 0.46484,-0.140625 0.30469,-0.324219 -0.4961,-0.574218 -1.01953,-1.085937 -1.34766,-1.789062 -0.16797,-0.359375 -0.28515,-0.753906 -0.35937,-1.140625 -0.0664,-0.378906 -0.0117,-0.734375 -0.24219,-1.042969 -0.0469,-0.0625 -0.16016,-0.0625 -0.21094,-0.0078 -0.51172,0.5625 -0.20312,1.644531 0.0508,2.28125 0.34766,0.871094 0.92969,1.644531 1.80469,2.023437 z m -6.64844,2.351559 c -1.3125,-0.0703 -2.47265,-0.80859 -2.91406,-2.0664 -0.0859,-0.246096 -0.62891,-0.11328 -0.55078,0.14844 0.42969,1.49609 1.87891,2.5664 3.45312,2.30859 0.2461,-0.043 0.29688,-0.375 0.0117,-0.39063 z m 31.33594,18.75391 c -1.32031,2.22656 -3.44922,4.20703 -3.53516,6.79297 -0.0664,2.05469 1.19141,3.875 2.05469,5.73828 0.15625,0.33203 0.29688,0.6875 0.41016,1.05469 0.49219,1.53906 0.55859,3.26562 -0.40235,4.42968 -0.0703,-0.0312 -0.13671,-0.0625 -0.19921,-0.0977 -0.3086,-0.16016 -0.60157,-0.34375 -0.88282,-0.53906 -2.36328,-1.625 -3.82031,-4.27735 -5.21093,-6.97657 -0.60547,-1.17968 -1.20313,-2.36718 -1.85547,-3.48437 -3.42188,-5.85156 -9.14453,-10.25781 -15.59375,-12.08203 -0.17578,0.1289 -0.34766,0.2539 -0.51172,0.39062 -0.008,-0.17578 -0.008,-0.35547 0,-0.53125 0.043,-1.44531 0.47265,-2.8789 1.26953,-4.08984 0.57812,-0.875 1.36719,-1.88281 1.26953,-2.83984 -0.0195,-0.1875 -0.0742,-0.3711 -0.16406,-0.55469 -0.375,-0.72656 -1.26172,-1 -1.84766,-1.56641 -1.27734,-1.23437 -0.75781,-3.45703 0.39453,-4.80469 1.15235,-1.34765 2.78516,-2.21484 3.96094,-3.539059 1.82813,-2.050781 2.17578,-5.164062 1.17969,-7.695312 v -0.0039 c -0.0703,-0.183593 0.0195,-0.386718 0.20703,-0.457031 0.98047,-0.359375 2.03906,-0.519531 3.08203,-0.445312 2.32813,0.175781 4.53906,1.535156 5.74609,3.535156 1.44922,2.394531 1.44532,5.449219 2.88672,7.847658 1.47657,2.46485 4.22657,3.84766 6.20313,5.94141 3.44922,3.66015 4.11328,9.65625 1.53906,13.97656"
         fill-opacity="1"
         fill-rule="nonzero"
         id="path32" />
    </g>
    <path
       style="fill:#f0421d;fill-opacity:1;stroke:none;stroke-width:0.75px;stroke-linecap:butt;stroke-linejoin:miter;stroke-opacity:1"
       d="m 213.58594,160.54687 c 0,0 -18.89052,0.86838 -25.91406,-6.55077 -7.02356,-7.41917 15.57421,-15.64845 15.57421,-15.64845 2.6784,2.04957 10.63995,0.89581 10.69089,0.87433 3.66288,-1.54453 -0.35104,21.32489 -0.35104,21.32489 z"
       id="path888"
       sodipodi:nodetypes="cscsc" />
  </g>
</svg>
