<?xml version="1.0" encoding="UTF-8" standalone="no"?>
<svg
   width="129.95576"
   zoomAndPan="magnify"
   viewBox="0 0 97.466824 119.08594"
   height="158.78125"
   preserveAspectRatio="xMidYMid meet"
   version="1.0"
   id="svg38"
   sodipodi:docname="Shoulder.svg"
   inkscape:version="1.1.1 (3bf5ae0d25, 2021-09-20)"
   xmlns:inkscape="http://www.inkscape.org/namespaces/inkscape"
   xmlns:sodipodi="http://sodipodi.sourceforge.net/DTD/sodipodi-0.dtd"
   xmlns="http://www.w3.org/2000/svg"
   xmlns:svg="http://www.w3.org/2000/svg">
  <sodipodi:namedview
     id="namedview40"
     pagecolor="#ffffff"
     bordercolor="#666666"
     borderopacity="1.0"
     inkscape:pageshadow="2"
     inkscape:pageopacity="0.0"
     inkscape:pagecheckerboard="0"
     showgrid="false"
     inkscape:zoom="7.5062972"
     inkscape:cx="59.350168"
     inkscape:cy="104.64547"
     inkscape:window-width="1920"
     inkscape:window-height="1001"
     inkscape:window-x="-9"
     inkscape:window-y="-9"
     inkscape:window-maximized="1"
     inkscape:current-layer="svg38"
     fit-margin-top="0"
     fit-margin-left="0"
     fit-margin-right="0"
     fit-margin-bottom="0" />
  <defs
     id="defs14">
    <clipPath
       id="id1">
      <path
         d="m 161.09375,89.421875 h 97.42969 V 208.50781 h -97.42969 z m 0,0"
         clip-rule="nonzero"
         id="path2" />
    </clipPath>
    <clipPath
       id="id2">
      <path
         d="M 161.09375,110 H 211 v 67 h -49.90625 z m 0,0"
         clip-rule="nonzero"
         id="path5" />
    </clipPath>
    <clipPath
       id="id3">
      <path
         d="M 161.09375,89.421875 H 252 V 208.50781 h -90.90625 z m 0,0"
         clip-rule="nonzero"
         id="path8" />
    </clipPath>
    <clipPath
       id="id4">
      <path
         d="m 190,179.07031 h 68.52344 v 28.60938 H 190 Z m 0,0"
         clip-rule="nonzero"
         id="path11" />
    </clipPath>
  </defs>
  <g
     id="g2077"
     transform="translate(-161.05661,-89.421875)">
    <g
       clip-path="url(#id1)"
       id="g18">
      <path
         fill="#e37756"
         d="m 179.86719,174.27734 c 0.0234,-0.5 0.0977,-0.98047 0.21093,-1.45312 5.58985,2.64062 11.92188,3.60547 17.64063,6.03906 3.07812,1.30859 6.00781,3.05078 9.26953,3.79297 2.65625,0.60547 5.42969,0.51953 8.08594,1.11719 2.30469,0.51953 4.46484,1.54297 6.59765,2.55859 0.91016,0.43359 1.82422,0.87109 2.73829,1.30469 1.74609,0.83203 3.49218,1.66015 5.24218,2.49219 3.71485,1.76562 7.54297,3.625 10.55469,6.35546 -4.81641,1.36719 -10.09375,-0.0156 -14.99219,-1.36328 -4.2539,-1.17578 -8.83984,-2.28515 -13.08203,-1.53906 -0.0781,-0.1875 -0.16015,-0.37891 -0.25,-0.5625 -0.91015,-1.85937 -2.5039,-3.45703 -4.5,-4.02344 -0.80859,-0.23437 -1.65234,-0.29297 -2.5039,-0.28515 -0.0977,-0.0352 -0.19532,-0.0664 -0.29688,-0.0898 -0.86328,-0.25 -1.76172,-0.39843 -2.64062,-0.49609 -1.08594,-0.11719 -2.17188,-0.17969 -3.26563,-0.18359 -0.65234,-0.26954 -1.30469,-0.53907 -1.95703,-0.80469 -0.64453,-0.26172 -1.30469,-0.52735 -2,-0.55078 -0.69531,-0.0234 -1.44531,0.2539 -1.79297,0.85547 -0.19141,0.32421 -0.24609,0.70703 -0.36328,1.07031 -0.64453,0.12109 -1.28906,0.26953 -1.92578,0.43359 -0.33985,0.0898 -0.69141,0.1875 -0.96485,0.40235 -0.46875,0.35156 -0.64062,0.92187 -0.66796,1.51953 -1.75,-2.44141 -3.50391,-4.89453 -5.25391,-7.33985 -0.96875,-1.35156 -1.95703,-2.76953 -2.69531,-4.26562 -0.51563,-1.04297 -0.91016,-2.125 -1.08985,-3.2461 -0.0937,-0.5664 -0.13281,-1.14453 -0.0977,-1.73828 z m 78.625,31.69532 c -0.21094,-0.71875 -1.15625,-0.83985 -1.86328,-1.10547 -1.57032,-0.58594 -2.36719,-2.34766 -3.78125,-3.24219 -0.33985,-0.21875 -0.71094,-0.37891 -1.09375,-0.50781 0.54687,-1.02344 -0.0156,-3.02344 -0.94532,-3.70313 0.48047,-1.47656 0.44532,-3.12109 -0.1289,-4.5664 -0.30078,-0.75 -0.76563,-1.48047 -1.47657,-1.86329 -0.82812,-0.45312 -1.82421,-0.38281 -2.76562,-0.41015 -4.22656,-0.13281 -8.04297,-2.53906 -11.29688,-5.23828 -2.43359,-2.01953 -4.72265,-4.26563 -7.27734,-6.09766 -0.86328,-0.62109 -1.75781,-1.19141 -2.69531,-1.69141 -5.76172,-3.07421 -12.76953,-3.21875 -18.4375,-6.46484 -5.84766,-3.33984 -9.94922,-9.79687 -16.31641,-11.69141 1.07031,-1.48046 2.02344,-3.04687 2.85547,-4.67578 1.42578,-2.78515 2.48438,-5.73828 3.48438,-8.70703 3.65234,-10.82031 6.74218,-22.13281 13.32421,-31.42187 0.31641,-0.44531 0.63672,-0.88672 0.96485,-1.32031 4.58984,-6.02735 10.58594,-10.81641 16.52734,-15.519536 2.10547,-1.664063 4.23438,-3.351563 6.11328,-5.257813 0.97266,-0.980469 0.42188,-2.648437 -0.9414,-2.886719 -0.60547,-0.105468 -1.21875,-0.175781 -1.83985,-0.179687 -1.86328,-0.01563 -3.73047,0.59375 -5.22656,1.703125 -0.92578,0.691406 -1.74219,1.582031 -2.83594,1.957031 -1.66406,0.578125 -3.71484,-0.148437 -5.15234,0.882813 -1.70703,1.21875 -1.23047,3.824218 -1.61328,5.921875 -3.44141,4.074221 -8.10938,6.816411 -12.25781,10.156251 -0.11719,0.0898 -0.23047,0.17969 -0.33985,0.26953 -5.29687,4.33594 -8.57422,11.10156 -12.27344,16.74219 -2.64453,4.03125 -5.28515,8.0664 -7.93359,12.10156 -2.07812,3.17187 -3.95703,7.67187 -7.34375,9.63672 -2.09766,1.21484 -4.64062,1.48828 -6.75781,2.67187 -3.42969,1.92578 -5.14453,5.88282 -6.17578,9.66797 -1.05078,3.87891 -1.63672,7.8711 -1.82813,11.88281 -0.14453,3.03907 -0.0664,6.08985 0.21094,9.11719 0.33203,3.66797 0.96484,7.375 2.29687,10.78906 0.48829,1.26172 1.07422,2.48438 1.77735,3.65235 0.17578,0.28906 0.35937,0.58203 0.54687,0.86328 5.04688,7.55859 14.65235,11.44922 23.79297,11.04297 4.07422,-0.17969 8.07422,-1.10547 12.09766,-1.77735 5.94922,-0.99218 11.97656,-1.44531 18.0039,-1.54296 6.6211,-0.10938 13.45313,0.16015 19.75391,-1.63282 1.16016,0.0859 2.32422,0.16797 3.48438,0.1836 1.46484,0.0195 2.94531,-0.0781 4.36718,-0.39844 1.94922,1.41797 4.07422,2.60156 6.3086,3.5 0.98437,0.39844 2.02343,0.74609 3.07812,0.67187 0.42188,-0.0234 0.85938,-0.1289 1.19141,-0.39062 0.32422,-0.26172 0.53515,-0.71094 0.41797,-1.12109"
         fill-opacity="1"
         fill-rule="nonzero"
         id="path16" />
    </g>
    <path
       fill="#33639f"
       d="m 227.86328,179.23828 c -0.73047,2.94922 -1.89844,5.78906 -3.45312,8.39844 -0.91407,-0.4336 -1.82813,-0.8711 -2.73829,-1.30469 -2.13281,-1.01562 -4.29296,-2.03906 -6.59765,-2.55859 -2.65625,-0.59766 -5.42969,-0.51172 -8.08594,-1.11719 -3.26172,-0.74219 -6.19141,-2.48438 -9.26953,-3.79297 -5.71875,-2.43359 -12.05078,-3.39844 -17.64063,-6.03906 0.90235,-3.78516 4.375,-6.66016 7.15235,-9.58594 1.14844,-1.20703 2.21484,-2.49219 3.18359,-3.84766 6.36719,1.89454 10.46875,8.35157 16.31641,11.69141 5.66797,3.24609 12.67578,3.39063 18.4375,6.46484 0.9375,0.5 1.83203,1.07032 2.69531,1.69141"
       fill-opacity="1"
       fill-rule="nonzero"
       id="path20" />
    <g
       clip-path="url(#id2)"
       id="g24">
      <path
         fill="#70cfd9"
         d="m 203.81641,110.04297 c 2.33984,1.11328 4.47656,2.66406 6.26171,4.54297 -6.58203,9.28906 -9.67187,20.60156 -13.32421,31.42187 -1,2.96875 -2.0586,5.92188 -3.48438,8.70703 -0.83203,1.62891 -1.78516,3.19532 -2.85547,4.67578 -0.96875,1.35547 -2.03515,2.64063 -3.18359,3.84766 -2.77735,2.92578 -6.25,5.80078 -7.15235,9.58594 -0.11328,0.47265 -0.1875,0.95312 -0.21093,1.45312 -0.0352,0.59375 0.004,1.17188 0.0977,1.73828 -3.0625,0.29297 -6.13672,0.34766 -9.17968,-0.0234 -3.35157,-0.40625 -6.67188,-1.35157 -9.6211,-2.97657 0.19141,-4.01171 0.77735,-8.0039 1.82813,-11.88281 1.03125,-3.78515 2.74609,-7.74219 6.17578,-9.66797 2.11719,-1.18359 4.66015,-1.45703 6.75781,-2.67187 3.38672,-1.96485 5.26563,-6.46485 7.34375,-9.63672 2.64844,-4.03516 5.28906,-8.07031 7.93359,-12.10156 3.69922,-5.64063 6.97657,-12.40625 12.27344,-16.74219 0.10938,-0.0898 0.22266,-0.17969 0.33985,-0.26953"
         fill-opacity="1"
         fill-rule="nonzero"
         id="path22" />
    </g>
    <path
       fill="#70cfd9"
       d="m 189.04687,191.83203 c 0.14063,1.11719 0.5625,3.07422 1.01563,4.67578 -1.83203,-1.21094 -3.96484,-2.03125 -6.19141,-2.46484 -1.63672,-0.31641 -3.32031,-0.42578 -4.96484,-0.32031 -4.5,0.28515 -8.76953,1.84375 -12.91016,3.71484 -0.1875,-0.28125 -0.37109,-0.57422 -0.54687,-0.86328 -0.70313,-1.16797 -1.28906,-2.39063 -1.77735,-3.65235 5.10547,-5.34375 10.97657,-9.96093 17.38282,-13.66015 0.73828,1.49609 1.72656,2.91406 2.69531,4.26562 1.75,2.44532 3.50391,4.89844 5.25391,7.33985 -0.0195,0.32422 0.004,0.65234 0.043,0.96484"
       fill-opacity="1"
       fill-rule="nonzero"
       id="path26" />
    <g
       clip-path="url(#id3)"
       id="g30">
      <path
         fill="#e37756"
         d="m 179.96484,176.01562 c -3.0625,0.29297 -6.13672,0.34766 -9.17968,-0.0234 -3.35157,-0.40625 -6.67188,-1.35157 -9.6211,-2.97657 -0.14453,3.03907 -0.0664,6.08985 0.21094,9.11719 0.33203,3.66797 0.96484,7.375 2.29687,10.78906 5.10547,-5.34375 10.97657,-9.96093 17.38282,-13.66015 -0.51563,-1.04297 -0.91016,-2.125 -1.08985,-3.2461 z m 70.84375,21.39844 c -0.0156,-0.0156 -0.0391,-0.0312 -0.0586,-0.0469 -1.57422,-1.03516 -3.62891,-0.92188 -5.41797,-1.20703 -1.53906,-0.25 -3.08203,0.22656 -4.49219,0.92578 -0.29687,0.14453 -0.58984,0.30468 -0.87109,0.46484 -0.80859,0.46094 -1.59766,0.98047 -2.40234,1.45313 -8.16797,0.40234 -16.42188,-2.60157 -24.60547,-2.16407 -0.69922,0.0352 -1.39844,0.0977 -2.09375,0.1875 -2.32813,0.3086 -4.60547,0.9375 -6.9375,1.21875 -2.22657,0.26953 -4.47657,0.21485 -6.71875,0.14453 0,-0.0703 -0.008,-0.13671 -0.0117,-0.20703 -0.004,-0.0781 -0.0156,-0.15234 -0.0273,-0.23047 0,-0.0273 -0.004,-0.0547 -0.0117,-0.082 -0.004,-0.0508 -0.0156,-0.10156 -0.0312,-0.15234 -0.0117,-0.0625 -0.0234,-0.125 -0.043,-0.18359 -0.008,-0.0352 -0.0156,-0.0664 -0.0273,-0.0977 -0.0156,-0.0508 -0.0312,-0.10156 -0.0508,-0.15234 -0.008,-0.0195 -0.0156,-0.043 -0.0234,-0.0625 -0.0234,-0.0547 -0.0469,-0.10938 -0.0703,-0.16016 -0.004,-0.008 -0.008,-0.0195 -0.0117,-0.0273 -0.0312,-0.0625 -0.0625,-0.1211 -0.0977,-0.1836 -0.0391,-0.0742 -0.0859,-0.14844 -0.13282,-0.21484 -0.40625,-0.59766 -1.03515,-1.26172 -0.73437,-1.91016 0.12109,-0.27344 0.39062,-0.45312 0.65234,-0.60156 1.17969,-0.65625 2.53125,-0.93359 3.82422,-1.33594 1.28906,-0.40625 2.59766,-0.99219 3.40625,-2.07422 0.4336,-0.58203 0.6875,-1.28125 0.75391,-2.0039 0.004,-0.0273 0.008,-0.0586 0.008,-0.0898 -0.86328,-0.25 -1.76172,-0.39843 -2.64062,-0.49609 -1.08594,-0.11719 -2.17188,-0.17969 -3.26563,-0.18359 -2.05078,-0.0117 -4.09766,0.17968 -6.11328,0.57031 -0.64453,0.12109 -1.28906,0.26953 -1.92578,0.43359 -0.33985,0.0898 -0.69141,0.1875 -0.96485,0.40235 -0.46875,0.35156 -0.64062,0.92187 -0.66796,1.51953 -0.0195,0.32422 0.004,0.65234 0.043,0.96484 0.14063,1.11719 0.5625,3.07422 1.01563,4.67578 -1.83203,-1.21094 -3.96484,-2.03125 -6.19141,-2.46484 -1.63672,-0.31641 -3.32031,-0.42578 -4.96484,-0.32031 -4.5,0.28515 -8.76953,1.84375 -12.91016,3.71484 5.04688,7.55859 14.65235,11.44922 23.79297,11.04297 4.07422,-0.17969 8.07422,-1.10547 12.09766,-1.77735 5.94922,-0.99218 11.97656,-1.44531 18.0039,-1.54296 6.6211,-0.10938 13.45313,0.16015 19.75391,-1.63282 1.16016,0.0859 2.32422,0.16797 3.48438,0.1836 1.46484,0.0195 2.94531,-0.0781 4.36718,-0.39844 1.10547,-0.25 2.16407,-0.63281 3.14844,-1.19922 0.41797,-0.23828 0.82813,-0.52734 1.07813,-0.94531 0.0117,-0.0156 0.0195,-0.0352 0.0312,-0.0508 0.54687,-1.02344 -0.0156,-3.02344 -0.94532,-3.70313 z m -46.99218,-87.37109 c 4.14843,-3.33984 8.8164,-6.08203 12.25781,-10.156251 0.38281,-2.097657 -0.0937,-4.703125 1.61328,-5.921875 1.4375,-1.03125 3.48828,-0.304688 5.15234,-0.878906 1.09375,-0.378907 1.91016,-1.265626 2.83594,-1.960938 1.49609,-1.109375 3.36328,-1.71875 5.22656,-1.703125 0.6211,0.0039 1.23438,0.07422 1.83985,0.179687 1.36328,0.238282 1.91406,1.90625 0.9414,2.886719 -1.8789,1.90625 -4.00781,3.59375 -6.11328,5.257813 -5.9414,4.707036 -11.9375,9.492186 -16.52734,15.519536 -0.32813,0.43359 -0.64844,0.875 -0.96485,1.32031 -1.78515,-1.87891 -3.92187,-3.42969 -6.26171,-4.54297"
         fill-opacity="1"
         fill-rule="nonzero"
         id="path28" />
    </g>
    <path
       fill="#191d40"
       d="m 199.37109,189.23437 c 0.53516,0.16407 0.98047,0.33594 1.375,0.75782 0.36328,0.39062 0.47266,0.875 0.66407,1.35937 0.0625,0.15625 0.33984,0.10156 0.3789,-0.0469 0.32031,-1.21485 -1.26562,-2.48047 -2.40234,-2.21485 -0.0742,0.0156 -0.0977,0.1211 -0.0156,0.14453 z m -5.85156,3.32422 c -1.17578,-0.64453 -1.56641,-1.73828 -1.07031,-2.98047 0.0742,-0.18359 -0.19141,-0.27343 -0.30469,-0.14453 -1.08203,1.16797 -0.34375,3.15235 1.26563,3.30078 0.0859,0.0117 0.23046,-0.10546 0.10937,-0.17578 z m 4.98438,-0.46875 c -0.47266,-0.67187 -0.47657,-1.42578 -0.17969,-2.16406 0.0898,-0.23437 -0.25781,-0.33984 -0.39844,-0.17578 -0.625,0.75391 -0.49609,1.85937 0.16016,2.55078 0.14062,0.14844 0.5664,-0.004 0.41797,-0.21094 z m 14.45703,4.75 c -0.69922,0.0352 -1.39844,0.0977 -2.09375,0.1875 -2.32813,0.3086 -4.60547,0.9375 -6.9375,1.21875 -2.22657,0.26953 -4.47657,0.21485 -6.71875,0.14453 0,-0.0703 -0.008,-0.13671 -0.0117,-0.20703 -0.004,-0.0781 -0.0156,-0.15234 -0.0273,-0.23047 0,-0.0234 -0.004,-0.0547 -0.0117,-0.082 -0.004,-0.0508 -0.0156,-0.10156 -0.0312,-0.15234 -0.0117,-0.0625 -0.0234,-0.125 -0.043,-0.18359 -0.008,-0.0352 -0.0156,-0.0664 -0.0273,-0.0977 -0.0156,-0.0547 -0.0312,-0.10156 -0.0508,-0.15234 -0.008,-0.0195 -0.0156,-0.043 -0.0234,-0.0625 -0.0195,-0.0547 -0.0469,-0.10938 -0.0703,-0.16016 -0.004,-0.008 -0.008,-0.0195 -0.0117,-0.0273 -0.0312,-0.0625 -0.0625,-0.125 -0.0977,-0.1836 -0.0391,-0.0742 -0.0859,-0.14844 -0.13282,-0.21484 -0.40625,-0.59766 -1.03515,-1.26172 -0.73437,-1.91016 0.12109,-0.27344 0.39062,-0.45312 0.65234,-0.60156 1.17969,-0.65625 2.53125,-0.93359 3.82422,-1.33594 1.28906,-0.40625 2.59766,-0.99219 3.40625,-2.07422 0.4336,-0.58203 0.6875,-1.28125 0.75391,-2.0039 0.004,-0.0273 0.008,-0.0586 0.008,-0.0898 0.10156,0.0234 0.19922,0.0547 0.29688,0.0898 0.85156,-0.008 1.69531,0.0508 2.5039,0.28515 1.9961,0.56641 3.58985,2.16407 4.5,4.02344 0.0898,0.18359 0.17188,0.375 0.25,0.5625 0.4336,1.03516 0.6875,2.14063 0.82813,3.25781"
       fill-opacity="1"
       fill-rule="nonzero"
       id="path32" />
    <g
       clip-path="url(#id4)"
       id="g36">
      <path
         fill="#cc4f31"
         d="m 251.14844,199.55469 c -2.26172,1.02734 -4.38672,1.66015 -6.89844,1.27343 -0.23828,-0.0352 -0.42188,0.32422 -0.13672,0.39063 2.41797,0.58594 5.33203,0.32031 7.32422,-1.28516 0.25781,-0.20703 -0.0234,-0.49609 -0.28906,-0.3789 z m -0.46094,-1.16016 c 0.24219,-0.0625 0.33203,-0.43359 0.008,-0.42187 -2.4375,0.0781 -4.91015,0.2539 -7.33984,0.41015 -0.17188,0.0117 -0.1875,0.21875 -0.0195,0.25 2.32812,0.4375 5.0625,0.3711 7.35156,-0.23828 z m -53.67188,-0.35156 c -2.34375,-0.47656 -4.39062,-0.92969 -6.60546,-1.8711 -0.16016,-0.0664 -0.40625,0.16016 -0.21094,0.27344 1.98047,1.15235 4.49609,1.96094 6.80078,1.91016 0.21875,-0.004 0.22266,-0.27344 0.0156,-0.3125 z m -2.29687,-11.45703 c -0.69531,-0.0234 -1.44531,0.2539 -1.79297,0.85547 -0.19141,0.32421 -0.24609,0.70703 -0.36328,1.07031 2.01562,-0.39063 4.0625,-0.58203 6.11328,-0.57031 -0.65234,-0.26954 -1.30469,-0.53907 -1.95703,-0.80469 -0.64453,-0.26172 -1.30469,-0.52735 -2,-0.55078 z m 50.61328,9.57422 c 1.78906,0.28515 3.84375,0.17187 5.41797,1.20703 0.0195,0.0156 0.043,0.0312 0.0586,0.0469 0.48047,-1.47656 0.44532,-3.12109 -0.1289,-4.5664 -0.30078,-0.75 -0.76563,-1.48047 -1.47657,-1.86329 -0.82812,-0.45312 -1.82421,-0.38281 -2.76562,-0.41015 -4.22656,-0.13281 -8.04297,-2.53906 -11.29688,-5.23828 -2.43359,-2.01953 -4.72265,-4.26563 -7.27734,-6.09766 -0.73047,2.94922 -1.89844,5.78906 -3.45312,8.39844 1.74609,0.83203 3.49218,1.66015 5.24218,2.49219 3.71485,1.76562 7.54297,3.625 10.55469,6.35546 -4.81641,1.36719 -10.09375,-0.0156 -14.99219,-1.36328 -4.2539,-1.17578 -8.83984,-2.28515 -13.08203,-1.53906 0.4336,1.03516 0.6875,2.14063 0.82813,3.25781 8.18359,-0.4375 16.4375,2.56641 24.60547,2.16407 0.80468,-0.47266 1.59375,-0.99219 2.40234,-1.45313 0.28125,-0.16016 0.57422,-0.32031 0.87109,-0.46484 1.41016,-0.69922 2.95313,-1.17578 4.49219,-0.92578 z m 12.74219,10.93359 c -0.33203,0.26562 -0.76953,0.36719 -1.19141,0.39062 -1.05469,0.0742 -2.09375,-0.27343 -3.07812,-0.67187 -2.23438,-0.89844 -4.35938,-2.08203 -6.3086,-3.5 1.10547,-0.25 2.16407,-0.63281 3.14844,-1.19922 0.41797,-0.23828 0.82813,-0.52734 1.07813,-0.94531 0.0117,-0.0156 0.0195,-0.0352 0.0312,-0.0508 0.38281,0.1289 0.7539,0.28906 1.09375,0.50781 1.41406,0.89453 2.21093,2.65625 3.78125,3.24219 0.70703,0.26562 1.65234,0.38672 1.86328,1.10547 0.11718,0.41015 -0.0937,0.85937 -0.41797,1.12109"
         fill-opacity="1"
         fill-rule="nonzero"
         id="path34" />
    </g>
    <path
       style="fill:#70cfd9;fill-opacity:1;stroke:none;stroke-width:0.75px;stroke-linecap:butt;stroke-linejoin:miter;stroke-opacity:1"
       d="m 161.16406,173.01562 c -0.24475,-0.30594 -0.3071,14.77726 2.50782,19.90626 l 17.38281,-13.66016 c 0.0214,-0.0428 -0.84416,-1.80386 -1.08984,-3.24609 -0.29236,-1.71631 -18.80079,-3 -18.80079,-3.00001 z"
       id="path890"
       sodipodi:nodetypes="cccsc" />
  </g>
</svg>
