<?xml version="1.0" encoding="UTF-8" standalone="no"?>
<svg
   width="214.64638"
   zoomAndPan="magnify"
   viewBox="0 0 160.98478 118.83784"
   height="158.45045"
   preserveAspectRatio="xMidYMid meet"
   version="1.0"
   id="svg30"
   sodipodi:docname="2.svg"
   inkscape:version="1.1.1 (3bf5ae0d25, 2021-09-20)"
   xmlns:inkscape="http://www.inkscape.org/namespaces/inkscape"
   xmlns:sodipodi="http://sodipodi.sourceforge.net/DTD/sodipodi-0.dtd"
   xmlns="http://www.w3.org/2000/svg"
   xmlns:svg="http://www.w3.org/2000/svg">
  <sodipodi:namedview
     id="namedview32"
     pagecolor="#ffffff"
     bordercolor="#666666"
     borderopacity="1.0"
     inkscape:pageshadow="2"
     inkscape:pageopacity="0.0"
     inkscape:pagecheckerboard="0"
     showgrid="false"
     inkscape:zoom="0.93828715"
     inkscape:cx="81.531544"
     inkscape:cy="242.46309"
     inkscape:window-width="1920"
     inkscape:window-height="1001"
     inkscape:window-x="-9"
     inkscape:window-y="-9"
     inkscape:window-maximized="1"
     inkscape:current-layer="svg30"
     fit-margin-top="0"
     fit-margin-left="0"
     fit-margin-right="0"
     fit-margin-bottom="0" />
  <defs
     id="defs8">
    <clipPath
       id="id1">
      <path
         d="M 129,89.378906 H 290.13281 V 208.55859 H 129 Z m 0,0"
         clip-rule="nonzero"
         id="path2" />
    </clipPath>
    <clipPath
       id="id2">
      <path
         d="M 129,89.378906 H 290.13281 V 208.55859 H 129 Z m 0,0"
         clip-rule="nonzero"
         id="path5" />
    </clipPath>
  </defs>
  <g
     id="g1755"
     transform="translate(-129.04704,-89.607968)">
    <g
       clip-path="url(#id1)"
       id="g12">
      <path
         fill="#262e38"
         d="m 215.79297,122.84766 c -0.0234,0.0469 -0.0508,0.0859 -0.0742,0.13281 0.0234,-0.0469 0.0508,-0.0859 0.0742,-0.13281 z m -5.58985,6.84375 c 0.0508,-0.0352 0.10157,-0.0742 0.15625,-0.11329 -0.0547,0.0391 -0.10546,0.0781 -0.15625,0.11329 z m 0.45313,-0.33594 c 0.0625,-0.0469 0.125,-0.0977 0.17969,-0.14453 -0.0547,0.0469 -0.11719,0.0977 -0.17969,0.14453 z m 0.86328,-0.73828 c 0.0664,-0.0547 0.12891,-0.11328 0.1875,-0.17578 -0.0586,0.0625 -0.12109,0.12109 -0.1875,0.17578 z m -0.42187,0.3789 c 0.0625,-0.0547 0.125,-0.10937 0.1875,-0.16406 -0.0625,0.0547 -0.125,0.10938 -0.1875,0.16406 z m 0.83203,-0.76953 c 0.0664,-0.0625 0.125,-0.1289 0.18359,-0.1875 -0.0586,0.0586 -0.11719,0.125 -0.18359,0.1875 z m 0.39453,-0.41406 c 0.0625,-0.0625 0.12109,-0.12891 0.18359,-0.19922 -0.0625,0.0703 -0.12109,0.13672 -0.18359,0.19922 z m 0.3789,-0.42187 c 0.0586,-0.0664 0.1211,-0.13672 0.17969,-0.21094 -0.0586,0.0742 -0.12109,0.14453 -0.17969,0.21094 z m 0.71485,-0.88282 c 0.0586,-0.0781 0.12109,-0.15234 0.17969,-0.23047 -0.0586,0.0781 -0.1211,0.15235 -0.17969,0.23047 z m -0.35156,0.44532 c 0.0625,-0.0703 0.12109,-0.14454 0.17968,-0.21875 -0.0586,0.0742 -0.11718,0.14843 -0.17968,0.21875 z m 1.53515,-2.13282 c 0.29688,-0.46093 0.58203,-0.92187 0.85547,-1.38672 -0.27344,0.46485 -0.55859,0.92579 -0.85547,1.38672 z m -0.22265,0.33594 c 0.0703,-0.10156 0.13671,-0.20312 0.20312,-0.30469 -0.0664,0.10157 -0.13281,0.20313 -0.20312,0.30469 z m -0.29688,0.44531 c 0.0586,-0.0898 0.12109,-0.17968 0.18359,-0.26953 -0.0625,0.0898 -0.125,0.17969 -0.18359,0.26953 z m -0.32422,0.45313 c 0.0625,-0.082 0.1211,-0.16406 0.17578,-0.2461 -0.0547,0.082 -0.11328,0.16407 -0.17578,0.2461 z m 76.00781,74.86328 c -0.375,-0.58203 -1.03125,-0.95313 -1.67968,-1.26563 -6.45313,-3.125 -14.1211,-2.77343 -21.28516,-1.23437 -0.16016,0.0312 -0.32031,0.0625 -0.48047,0.10156 -8.08594,-2.91797 -17.76953,-0.87891 -25.74609,-4.46094 -2.55469,-1.15234 -4.83985,-2.83593 -7.34375,-4.08984 -3.36719,-1.6875 -7.07031,-2.55859 -10.63672,-3.76172 -6.13672,-2.06641 -12.05078,-5.16016 -18.42188,-6.02344 0.1875,-3.14453 -0.375,-6.32812 -1.61718,-9.23047 -0.23438,-0.54687 -0.4961,-1.08203 -0.78516,-1.60937 0.625,-1.30859 1.26563,-2.60156 1.92969,-3.89063 0.14844,-0.28906 0.30078,-0.57812 0.44922,-0.86718 0.32812,-0.6211 0.65234,-1.23828 0.99218,-1.85157 0.0352,0.57422 0.10938,1.13672 0.21485,1.69922 0.33984,1.76172 1.01172,3.45703 2.0039,4.94922 2.34375,3.5 6.40625,5.79297 10.60938,5.97656 4.14453,0.17969 8.36719,-1.71875 10.875,-5.02734 0.66016,-0.87109 1.19922,-1.81641 1.63281,-2.8125 0.11328,-0.25781 0.21875,-0.52344 0.31641,-0.78516 0.30859,0.23829 0.61719,0.47657 0.93359,0.71094 0.89453,0.67188 1.79688,1.32813 2.71485,1.95703 0.88671,0.60938 1.78906,1.19141 2.70312,1.75782 6.75391,4.16015 14.19141,7.16406 21.59766,10.08203 0.23047,0.082 0.45703,0.17187 0.6875,0.26172 0.12109,-0.13282 0.24218,-0.27344 0.35547,-0.41407 1.49609,1.36719 3.09375,2.625 4.76953,3.76172 1.07422,0.72656 2.26953,1.42969 3.5664,1.40625 1.42188,-0.0273 2.66797,-0.91406 3.8086,-1.76562 0.47656,-0.35157 1,-0.81641 0.94922,-1.40625 -0.0586,-0.66407 -0.80469,-1.01563 -1.42969,-1.22657 -3.375,-1.15625 -6.7461,-2.30468 -10.11719,-3.45703 0.0547,-0.14453 0.10938,-0.28906 0.14844,-0.4414 0.0312,-0.0742 0.0547,-0.14844 0.0742,-0.22266 -1.74219,-1.03516 -3.47657,-2.08984 -5.19532,-3.16406 -0.0234,-0.008 -0.043,-0.0234 -0.0625,-0.0391 -5.33203,-3.32813 -10.55859,-6.82422 -15.78906,-10.31641 -2.88281,-1.92578 -5.79687,-3.88281 -8.54687,-6.01172 0,-0.082 -0.004,-0.16016 -0.008,-0.23437 -0.19531,-4.16407 -1.21875,-8.30079 -2.17187,-12.44141 -0.40625,-1.77734 -0.80078,-3.55469 -1.11328,-5.33594 -0.79688,-4.57031 -1.04297,-9.23047 -1.95313,-13.77734 -0.72656,-3.58594 -1.91406,-7.17188 -3.95312,-10.16797 -0.0703,-0.10156 -0.14063,-0.19922 -0.21094,-0.30078 -0.49219,-0.69922 -1.02734,-1.35938 -1.62109,-1.97656 -3.19922,-3.35547 -8.16407,-5.28907 -12.58985,-3.94922 -2.67187,0.80859 -4.89062,2.67969 -6.80078,4.71484 -0.69531,0.73828 -1.33984,1.42578 -1.94922,2.08985 -1.20312,1.30078 -2.23828,2.5 -3.13672,3.75781 -1.45312,2.03515 -2.55078,4.22656 -3.39843,7.29297 -0.008,0.0273 -0.0156,0.0586 -0.0195,0.0859 -1.44532,-0.22656 -2.85547,-0.92187 -4.09375,-1.73828 -1.83985,-1.20703 -3.51172,-2.71093 -5.53516,-3.57422 -3.17969,-1.35546 -6.875,-0.99218 -10.08594,-2.28125 -1.97656,-0.78906 -3.66015,-2.16796 -5.30469,-3.51953 -3.53125,-2.91797 -7.04687,-5.84765 -10.58203,-8.7539 -4.69531,-3.8711 -9.4375,-7.71485 -14.55468,-10.984379 -0.10547,-0.09375 -0.21485,-0.1875 -0.32422,-0.277343 -2.0586,-1.769532 -4.17578,-3.558594 -6.35547,-4.960938 -1.92188,-1.242188 -4.07031,-2.457031 -6.33985,-2.242188 -0.3164,0.02734 -0.6875,0.132813 -0.78906,0.4375 -0.0781,0.238282 0.0547,0.496094 0.1875,0.707032 0.66797,1.089844 1.51953,2.0625 2.5,2.875 0.46485,0.382812 0.96485,0.742187 1.30078,1.238281 0.41797,0.617187 0.54688,1.382813 0.92578,2.027344 0.59766,1.007812 1.73438,1.554687 2.8086,2.039062 1.20312,0.554688 2.41406,1.105469 3.625,1.656249 0.21875,0.0977 0.4375,0.19922 0.65625,0.29688 11.08594,11.80468 23.03515,22.78906 35.72656,32.83984 1.99609,1.58203 4.11328,3.28125 4.91016,5.69922 0.48437,1.46094 0.42578,3.04687 0.35937,4.58594 -0.18359,4.51562 -0.36719,9.03125 -0.55078,13.53906 -0.0781,1.85937 -0.15234,3.71875 -0.23047,5.57812 -0.0156,0.42578 -0.0352,0.85547 -0.10156,1.27344 -0.043,0.28125 -0.10938,0.5625 -0.21484,0.82813 -0.4336,1.13671 -1.48047,1.92187 -2.66016,2.28906 -4.48047,-4.66016 -9.80859,-8.51953 -15.17969,-12.16797 -2.30078,-1.56641 -4.63672,-3.10938 -7.17578,-4.25391 -0.64844,-0.29297 -1.32031,-0.55859 -2.01953,-0.66015 -3.03125,-0.42188 -5.68359,2.52734 -6.13281,5.5625 -0.44922,3.03125 0.67187,6.05078 1.72265,8.92968 3.07813,8.39844 5.7461,16.94532 7.99219,25.60547 0.23047,0.89453 0.46484,1.79688 0.6875,2.69532 0.42969,1.73828 0.85547,3.5039 1.63281,5.12109 1.21094,2.51172 3.28125,4.68359 4.02344,7.32031 -0.42187,0.35938 -0.93359,0.61719 -1.48047,0.71485 -0.73047,0.13281 -1.72265,0.1875 -1.86719,0.91796 -0.16796,0.88672 1.12891,1.19532 2.01954,1.10157 2.15625,-0.22657 4.80468,-0.86328 5.29296,-2.97657 0.54688,-2.38671 -2.23828,-4.875 -1.12109,-7.05468 0.44531,-0.86719 1.39453,-1.34766 2.00781,-2.10938 0.82422,-1.02344 0.91797,-2.57031 0.22657,-3.6914 -0.63672,-1.04297 -1.79688,-1.61719 -2.79688,-2.31641 -0.73047,-0.51172 -1.39062,-1.10938 -1.97266,-1.77734 -1.32031,-1.51563 -2.23828,-3.37891 -2.60156,-5.35157 -0.48437,-2.66015 0,-5.39453 -0.0469,-8.10156 -0.0156,-0.67187 -0.0625,-1.33984 -0.14844,-2 2.14062,3.375 4.77344,6.4375 7.79297,9.05859 2.16406,1.88282 4.62109,3.57422 7.42969,4.1211 2.65625,0.51562 5.48437,-0.0234 8.03906,0.85937 3.20312,1.10938 5.28125,4.17969 8.12109,6.03516 2.89063,1.875 6.41406,2.40625 9.82422,2.89062 6.96484,0.99219 13.92969,1.98438 20.89844,2.98047 3.84375,0.54297 7.73047,1.10547 11.33984,2.53907 2.69922,1.07421 5.20313,2.625 7.96485,3.53515 7.76171,2.55469 15.96484,-0.27344 24.16406,-1.42969 0.45312,-0.0625 0.90625,-0.125 1.35547,-0.17187 0.45312,0.26562 0.8789,0.58203 1.28125,0.90625 1.08984,0.90234 2.10156,1.93359 3.40234,2.54297 1.30078,0.61719 3.03516,0.70312 4.09766,-0.23047 0.82812,-0.73047 1.0664,-1.90234 1.89843,-2.625 0.83985,-0.73047 2.07813,-0.84375 3.22266,-0.89453 1.91016,-0.0898 3.82813,-0.10938 5.73828,-0.0625 0.57031,0.0156 1.19922,0.0195 1.63672,-0.31641 0.5625,-0.4375 0.56641,-1.28515 0.18359,-1.87109"
         fill-opacity="1"
         fill-rule="nonzero"
         id="path10" />
    </g>
    <path
       fill="#262e38"
       d="m 230.79297,166.73437 c -0.0977,0.26172 -0.20313,0.52735 -0.31641,0.78516 -0.43359,0.99609 -0.97265,1.94141 -1.63281,2.8125 -2.50781,3.30859 -6.73047,5.20703 -10.875,5.02734 -4.20313,-0.18359 -8.26563,-2.47656 -10.60938,-5.97656 -0.99218,-1.49219 -1.66406,-3.1875 -2.0039,-4.94922 -0.10547,-0.5625 -0.17969,-1.125 -0.21485,-1.69922 0.77735,-1.4414 1.58985,-2.87109 2.42188,-4.28515 0.94531,-1.58985 2.05469,-3.27735 3.80859,-3.86719 0.65625,-0.22266 1.33594,-0.26953 2.01563,-0.20312 0.22265,0.10937 0.4414,0.21875 0.66015,0.33203 6.05469,3.07422 11.25391,7.80468 16.7461,12.02343"
       fill-opacity="1"
       fill-rule="nonzero"
       id="path14" />
    <path
       fill="#f36f30"
       d="m 208,130.89453 c -1.80859,0.75391 -3.79688,1.07422 -5.78906,1.13281 1.23437,1.09766 2.77343,1.84766 4.39453,2.16797 0.90234,0.17578 1.82812,0.21875 2.73828,0.11328 0.18359,-0.60156 0.34375,-1.21875 0.48047,-1.83593 -0.0742,-0.0781 -0.14844,-0.15625 -0.22266,-0.23438 -0.49219,-0.50391 -1,-0.98437 -1.60156,-1.34375 z m 12.35156,-0.19922 c -0.45312,0.29297 -1.07422,0.19141 -1.52734,-0.10547 -0.19141,-0.125 -0.35547,-0.27734 -0.50391,-0.44531 0.8711,-1.39453 1.65235,-2.85156 2.32813,-4.35156 0.0898,0.93359 0.17968,1.86328 0.26953,2.79687 0.0742,0.76172 0.0742,1.6875 -0.56641,2.10547"
       fill-opacity="1"
       fill-rule="nonzero"
       id="path16" />
    <path
       fill="#f8a060"
       d="m 204.14844,164.58594 c -0.14844,0.28906 -0.30078,0.57812 -0.44922,0.86718 -0.66406,1.28907 -1.30469,2.58204 -1.92969,3.89063 0.28906,0.52734 0.55078,1.0625 0.78516,1.60937 -0.54297,0.0859 -1.08203,0.15235 -1.62891,0.19141 -7.10937,0.58984 -14.45312,-1.91016 -19.73828,-6.71875 0.0664,-0.41797 0.0859,-0.84766 0.10156,-1.27344 0.0781,-1.85937 0.15235,-3.71875 0.23047,-5.57812 6.01172,5.03515 14.02344,7.65234 21.83984,7.07812 0.26563,-0.0156 0.53125,-0.0391 0.78907,-0.0664"
       fill-opacity="1"
       fill-rule="nonzero"
       id="path18" />
    <path
       fill="#0f0e0c"
       d="m 142.87891,97.113281 c -0.11329,-0.07813 -0.23047,-0.152343 -0.34766,-0.226562 0.0117,-0.01563 0.0156,-0.03516 0.0234,-0.05078 0.10937,0.08984 0.21875,0.183593 0.32422,0.277343"
       fill-opacity="1"
       fill-rule="nonzero"
       id="path20" />
    <path
       fill="#419daa"
       d="m 142.87891,97.113281 c 5.11718,3.269529 9.85937,7.113279 14.55468,10.984379 3.53516,2.90625 7.05078,5.83593 10.58203,8.7539 1.64454,1.35157 3.32813,2.73047 5.30469,3.51953 3.21094,1.28907 6.90625,0.92579 10.08594,2.28125 2.02344,0.86329 3.69531,2.36719 5.53516,3.57422 1.23828,0.81641 2.64843,1.51172 4.09375,1.73828 0.0156,0 0.0273,0 0.043,0 0.0312,0.13282 0.0703,0.26953 0.1211,0.39844 0.33594,0.94531 0.98047,1.66016 1.78906,2.19922 -0.18359,0.40625 -0.36719,0.80469 -0.55078,1.20312 -0.55859,1.22266 -1.13281,2.52344 -0.97656,3.86329 0.1289,1.10546 0.74609,2.08593 1.3789,3 1.12891,1.63671 2.47266,3.27343 4.35547,3.89062 0.99219,0.32422 2.05078,0.33594 3.08985,0.32031 1.09765,-0.0117 2.26953,-0.0781 3.15625,-0.72265 0.625,-0.44922 1.03515,-1.125 1.40625,-1.80078 0.77343,-1.41407 1.4375,-2.88672 1.98046,-4.40625 0.48047,0.14843 0.96485,0.30859 1.44922,0.48828 2.62891,0.95703 5.16797,2.35937 6.82032,4.46484 2.28125,2.91016 4.07812,6.17188 6.34375,9.09375 1.89062,2.42969 4.07421,4.58203 6.42968,6.55859 0.3125,0.26954 0.62891,0.53125 0.95313,0.78907 0.375,0.30468 0.7539,0.60937 1.13672,0.90234 2.75,2.12891 5.66406,4.08594 8.54687,6.01172 5.23047,3.49219 10.45703,6.98828 15.78906,10.31641 0.0195,0.0156 0.0391,0.0312 0.0625,0.0391 1.71875,1.07422 3.45313,2.1289 5.19532,3.16406 -0.0195,0.0742 -0.043,0.14844 -0.0742,0.22266 -0.0391,0.15234 -0.0937,0.29687 -0.14844,0.4414 -0.36719,0.96875 -0.89062,1.87891 -1.54687,2.6875 -0.11329,0.14063 -0.23438,0.28125 -0.35547,0.41407 -0.23047,-0.0898 -0.45703,-0.17969 -0.6875,-0.26172 -7.40625,-2.91797 -14.84375,-5.92188 -21.59766,-10.08203 -0.91406,-0.56641 -1.81641,-1.14844 -2.70312,-1.75782 -0.91797,-0.6289 -1.82032,-1.28515 -2.71485,-1.95703 -0.3164,-0.23437 -0.625,-0.47265 -0.93359,-0.71094 -5.49219,-4.21875 -10.69141,-8.94921 -16.7461,-12.02343 -0.21875,-0.11328 -0.4375,-0.22266 -0.66015,-0.33203 -0.67969,-0.0664 -1.35938,-0.0195 -2.01563,0.20312 -1.7539,0.58984 -2.86328,2.27734 -3.80859,3.86719 -0.83203,1.41406 -1.64453,2.84375 -2.42188,4.28515 -0.33984,0.61329 -0.66406,1.23047 -0.99218,1.85157 -0.25782,0.0273 -0.52344,0.0508 -0.78907,0.0664 -7.8164,0.57422 -15.82812,-2.04297 -21.84375,-7.07812 0.1875,-4.50781 0.3711,-9.02344 0.55469,-13.53906 0.0664,-1.53907 0.125,-3.125 -0.35937,-4.58594 -0.79688,-2.41797 -2.91407,-4.11719 -4.91016,-5.69922 -12.69141,-10.05078 -24.64062,-21.03516 -35.72656,-32.83984 -0.21875,-0.0977 -0.4375,-0.19922 -0.65625,-0.29688 0.0508,-0.0742 0.10937,-0.15234 0.16406,-0.23047 0.78906,-1.078122 1.44531,-2.253904 1.94922,-3.496091 0.11719,0.07422 0.23437,0.148437 0.34766,0.226562"
       fill-opacity="1"
       fill-rule="nonzero"
       id="path22" />
    <g
       clip-path="url(#id2)"
       id="g26">
      <path
         fill="#f8a060"
         d="m 129.85937,89.632812 c -0.3164,0.02734 -0.6875,0.132813 -0.78906,0.4375 -0.0781,0.238282 0.0547,0.496094 0.1875,0.707032 0.66797,1.089844 1.51953,2.0625 2.5,2.875 0.46485,0.382812 0.96485,0.742187 1.30078,1.238281 0.41797,0.617187 0.54688,1.382813 0.92578,2.027344 0.59766,1.007812 1.73438,1.554687 2.8086,2.039062 1.20312,0.554688 2.41406,1.105469 3.625,1.656249 0.0508,-0.0742 0.10937,-0.15234 0.16406,-0.23047 0.78906,-1.078122 1.44531,-2.253904 1.94922,-3.496091 0.0117,-0.01563 0.0156,-0.03516 0.0234,-0.05078 -2.0586,-1.769532 -4.17578,-3.558594 -6.35547,-4.960938 -1.92188,-1.242188 -4.07031,-2.457031 -6.33985,-2.242188 z m 36.28516,100.648438 c -0.73047,-0.51172 -1.39062,-1.10938 -1.97266,-1.77734 -0.73437,0.64843 -1.57812,1.17187 -2.48437,1.53515 -1.31641,0.52344 -2.76563,0.69531 -4.16797,0.51953 0.23047,0.89453 0.46484,1.79688 0.6875,2.69532 0.42969,1.74218 0.85547,3.5039 1.63281,5.12109 1.21094,2.51562 3.28125,4.68359 4.02344,7.32031 -0.42578,0.35938 -0.93359,0.61719 -1.48047,0.71485 -0.73047,0.13281 -1.72265,0.1875 -1.86719,0.91796 -0.16796,0.88672 1.12891,1.19532 2.01954,1.10157 2.15625,-0.22266 4.80468,-0.85938 5.29296,-2.97657 0.54688,-2.38671 -2.23828,-4.875 -1.12109,-7.05078 0.44531,-0.87109 1.39453,-1.34765 2.00781,-2.11328 0.82422,-1.02344 0.91407,-2.57031 0.22657,-3.6875 -0.63672,-1.04687 -1.80079,-1.62109 -2.79688,-2.32031 z m 40.46094,-56.08594 c -1.6211,-0.32031 -3.16016,-1.07031 -4.39453,-2.16797 -0.74219,0.0195 -1.48828,0.004 -2.22657,-0.0391 -1.71484,-0.10547 -3.60546,-0.5 -4.99609,-1.42187 -0.18359,0.40234 -0.36719,0.80078 -0.55078,1.19921 -0.55859,1.22266 -1.13281,2.52344 -0.98047,3.86329 0.13281,1.10546 0.75,2.08593 1.38281,3.0039 1.12891,1.63281 2.47266,3.27344 4.35547,3.88672 0.99219,0.32422 2.05078,0.33984 3.08985,0.32031 1.09765,-0.0117 2.26562,-0.0781 3.15625,-0.72265 0.625,-0.44922 1.03515,-1.125 1.40625,-1.80078 0.77343,-1.41407 1.4375,-2.88672 1.98046,-4.40625 0.1836,-0.53125 0.35938,-1.0586 0.51563,-1.60157 -0.91016,0.10547 -1.83594,0.0625 -2.73828,-0.11328 z m 15.39062,-17.80468 c -1.30859,0.33593 -2.48047,1.17968 -3.40234,2.19531 -1.14063,1.26172 -1.95313,2.78515 -2.80078,4.26172 -1.57031,2.74218 -3.39063,5.48046 -6.06641,7.16015 -0.55078,0.34766 -1.1289,0.64063 -1.72656,0.88672 0.60156,0.35938 1.10937,0.83984 1.60156,1.34375 0.0742,0.0781 0.14844,0.15625 0.22266,0.23828 0.29297,0.30078 0.58594,0.61328 0.89062,0.89844 0.0586,0.0625 0.1211,0.11719 0.1875,0.17578 0.99219,0.89844 2.40235,1.58984 3.64844,1.08984 0.69531,-0.27734 1.20703,-0.8789 1.66797,-1.47265 0.75391,-0.97266 1.45312,-1.98438 2.10156,-3.02344 0.8711,-1.39453 1.65235,-2.85156 2.32813,-4.34765 0.5625,-1.23829 1.04687,-2.50782 1.46484,-3.80079 0.40625,-1.26562 0.74609,-2.59765 0.54688,-3.91015 -0.0898,-0.59766 -0.32032,-1.19531 -0.66407,-1.69531 z m 49.9336,68.10156 c 0.47656,-0.35157 1,-0.8125 0.94922,-1.40625 -0.0586,-0.66407 -0.80469,-1.01172 -1.4336,-1.22657 -3.37109,-1.15234 -6.74219,-2.30468 -10.11719,-3.45312 -0.36328,0.96875 -0.88671,1.875 -1.54296,2.68359 1.49609,1.36719 3.09375,2.62891 4.76953,3.76172 1.07422,0.72656 2.26562,1.4336 3.5664,1.40625 1.42188,-0.0273 2.66797,-0.91015 3.8086,-1.76562 z m 17.65234,18.29687 c -0.4375,0.33594 -1.06641,0.33203 -1.63672,0.31641 -1.91015,-0.0469 -3.82812,-0.0234 -5.73828,0.0625 -1.14453,0.0508 -2.38281,0.16406 -3.22266,0.89453 -0.83203,0.72656 -1.07031,1.89453 -1.89843,2.625 -1.0625,0.93359 -2.79688,0.85156 -4.09766,0.23437 -1.30078,-0.61328 -2.3125,-1.64453 -3.40234,-2.54687 -0.40235,-0.32031 -0.82813,-0.63672 -1.28125,-0.90625 -0.44922,0.0469 -0.90235,0.10937 -1.35547,0.17578 0.0625,-0.24219 0.11328,-0.48828 0.15234,-0.73437 0.23438,-1.38282 0.16016,-2.82032 -0.21094,-4.17579 -0.0273,-0.10546 -0.0547,-0.21093 -0.0898,-0.3164 7.16406,-1.53906 14.83203,-1.89063 21.28516,1.23437 0.64843,0.3125 1.30468,0.6836 1.67968,1.26563 0.38282,0.58594 0.37891,1.4375 -0.18359,1.87109"
         fill-opacity="1"
         fill-rule="nonzero"
         id="path24" />
    </g>
    <path
       fill="#262e38"
       d="m 215.47656,131.11719 c -0.58594,-0.17969 -1.16797,-0.45703 -1.62109,-0.87891 -0.47656,-0.44531 -0.64063,-0.98047 -0.91406,-1.54687 -0.10938,-0.22657 -0.58985,-0.1836 -0.61329,0.0859 -0.14453,1.52344 1.53516,2.9336 2.96485,2.875 0.29687,-0.008 0.60156,-0.40625 0.18359,-0.53515 z m -22.27734,-2.75391 c 0.33594,0.94531 0.98047,1.66016 1.78906,2.19922 1.39063,0.92578 3.28125,1.32031 4.99609,1.42187 0.73829,0.0469 1.48438,0.0625 2.22657,0.043 1.99218,-0.0586 3.98047,-0.3789 5.78906,-1.13281 0.59766,-0.24609 1.17578,-0.53906 1.72656,-0.88672 2.48438,-1.55859 4.23438,-4.03515 5.73047,-6.57422 0.57813,0.97266 1.57422,1.64063 2.73438,1.73829 0.28906,0.0234 0.53906,-0.38672 0.17578,-0.48047 -0.17578,-0.0469 -0.34766,-0.10547 -0.51953,-0.16797 0.125,-0.41406 0.28515,-0.82813 0.53515,-1.1836 0.17578,-0.25781 -0.29687,-0.35546 -0.44922,-0.21093 -0.33984,0.32031 -0.53125,0.74218 -0.55859,1.19531 -0.64844,-0.30859 -1.21875,-0.75391 -1.65625,-1.34375 0.0234,-0.0469 0.0508,-0.0859 0.0742,-0.13281 0.59375,-1.03516 1.17578,-2.08985 1.85937,-3.06641 0.42188,0.23828 0.78125,0.57031 1.07032,0.97656 0.36718,0.52344 0.47265,1.14453 0.7539,1.70703 0.14063,0.28907 0.61328,0.16407 0.6875,-0.10937 0.36719,-1.35938 -0.86719,-2.58984 -2.10156,-3.125 0.16797,-0.21875 0.34766,-0.4375 0.53125,-0.64453 0.92187,-1.01563 2.09375,-1.85938 3.40234,-2.19531 0.34375,0.5 0.57422,1.09765 0.66407,1.69531 0.19921,1.3125 -0.14063,2.64453 -0.54688,3.91015 -0.41797,1.28907 -0.90234,2.5625 -1.46484,3.79688 0.0898,0.93359 0.17968,1.86328 0.26953,2.79687 0.0742,0.76172 0.0742,1.6875 -0.56641,2.10547 -0.45312,0.29297 -1.07422,0.19141 -1.52734,-0.10547 -0.19141,-0.125 -0.35547,-0.27734 -0.50391,-0.44531 -0.64844,1.03906 -1.34765,2.05078 -2.10156,3.01953 -0.46094,0.59766 -0.97266,1.19922 -1.66797,1.47656 -1.24609,0.5 -2.65625,-0.1914 -3.64844,-1.08984 -0.0664,-0.0586 -0.1289,-0.11328 -0.1875,-0.17969 -0.30468,-0.28125 -0.59765,-0.59375 -0.89062,-0.89843 -0.13672,0.61718 -0.29688,1.23437 -0.48047,1.83593 -0.15625,0.53907 -0.33203,1.07032 -0.51563,1.60157 0.48047,0.14843 0.96485,0.30859 1.44922,0.48828 2.62891,0.95703 5.16797,2.35937 6.82032,4.46484 2.28125,2.91016 4.07812,6.17188 6.34375,9.09375 1.89062,2.42969 4.07421,4.58203 6.42968,6.55859 0.3125,0.26954 0.62891,0.53125 0.95313,0.78907 0.375,0.30468 0.7539,0.60937 1.13672,0.90234 0,-0.082 -0.004,-0.16016 -0.008,-0.23437 -0.19531,-4.16407 -1.21875,-8.30079 -2.17187,-12.44141 -0.40625,-1.77734 -0.80078,-3.55469 -1.11328,-5.33594 -0.79688,-4.57031 -1.04297,-9.23047 -1.95313,-13.77734 -0.72656,-3.58594 -1.91406,-7.17188 -3.95312,-10.16797 -0.0703,-0.10156 -0.14063,-0.19922 -0.21094,-0.30078 -0.49219,-0.69922 -1.02734,-1.35938 -1.62109,-1.97656 -3.19922,-3.35547 -8.16407,-5.28907 -12.58985,-3.94922 -2.67187,0.80859 -4.89062,2.67969 -6.80078,4.71484 -0.69531,0.73828 -1.33984,1.42578 -1.94922,2.08985 -1.20312,1.30078 -2.23828,2.5 -3.13672,3.75781 -1.45312,2.03515 -2.55078,4.22656 -3.39843,7.29297 -0.008,0.0273 -0.0156,0.0586 -0.0195,0.0859 0.0156,0 0.0273,0 0.043,0 0.0312,0.13282 0.0703,0.26953 0.1211,0.39844 z m 73.90234,74.54297 c -0.0391,0.24609 -0.0898,0.49219 -0.15234,0.73437 -8.19922,1.15625 -16.40235,3.98438 -24.16406,1.42969 -2.76172,-0.91015 -5.26563,-2.46094 -7.96485,-3.53515 -3.60937,-1.4336 -7.49609,-1.9961 -11.33984,-2.53907 -6.96875,-0.99609 -13.9336,-1.98828 -20.89844,-2.98047 -3.41016,-0.48437 -6.93359,-1.01562 -9.82422,-2.89062 -2.83984,-1.85547 -4.91797,-4.92578 -8.12109,-6.03516 -2.55469,-0.88281 -5.38281,-0.34375 -8.03906,-0.85937 -2.8086,-0.54688 -5.26563,-2.23828 -7.42969,-4.1211 -3.01953,-2.62109 -5.65235,-5.68359 -7.79297,-9.05859 0.0859,0.66016 0.13281,1.32813 0.14844,2 0.0469,2.70703 -0.4375,5.44141 0.0469,8.10156 0.36328,1.97266 1.28125,3.83594 2.60156,5.35157 -0.73437,0.64843 -1.57812,1.17187 -2.48437,1.53125 -1.31641,0.52343 -2.76563,0.69921 -4.16797,0.52343 -2.24609,-8.66015 -4.91406,-17.20703 -7.99219,-25.60547 -1.05078,-2.8789 -2.17187,-5.89843 -1.72265,-8.92968 0.44922,-3.03516 3.10156,-5.98438 6.13281,-5.5625 0.69922,0.10156 1.37109,0.36718 2.01953,0.66015 2.53906,1.14453 4.875,2.6875 7.17578,4.25391 5.3711,3.64844 10.69922,7.50781 15.17969,12.16797 1.17969,-0.36719 2.22656,-1.15235 2.66016,-2.28906 0.10546,-0.26563 0.17187,-0.54688 0.21484,-0.82813 5.28516,4.80859 12.62891,7.30859 19.73828,6.71875 0.54688,-0.0391 1.08594,-0.10547 1.62891,-0.19141 1.24218,2.90235 1.80468,6.08594 1.61718,9.23047 6.3711,0.86328 12.28516,3.95703 18.42188,6.02344 3.56641,1.20313 7.26953,2.07422 10.63672,3.76172 2.5039,1.25391 4.78906,2.9375 7.34375,4.08984 7.97656,3.58203 17.66015,1.54297 25.74609,4.46094 0.16016,-0.0391 0.32031,-0.0703 0.48047,-0.10156 0.0352,0.10547 0.0625,0.20703 0.0898,0.3164 0.3711,1.35157 0.44532,2.78907 0.21094,4.17188"
       fill-opacity="1"
       fill-rule="nonzero"
       id="path28" />
    <path
       style="fill:#419daa;fill-opacity:1;stroke:none;stroke-width:0.75px;stroke-linecap:butt;stroke-linejoin:miter;stroke-opacity:1"
       d="m 181.51953,157.57422 -0.33203,6.85156 c 0,0 6.52765,8.76503 21.36719,6.52734 0,0 -0.67226,-1.50212 -0.78516,-1.60937 l 2.37891,-4.75781 c 0,0 -21.30808,-5.48148 -22.62891,-7.01172 z"
       id="path882" />
  </g>
</svg>
