<svg xmlns="http://www.w3.org/2000/svg" xmlns:xlink="http://www.w3.org/1999/xlink" width="559" zoomAndPan="magnify" viewBox="0 0 419.25 297.75" height="397" preserveAspectRatio="xMidYMid meet" version="1.0"><defs><clipPath id="id1"><path d="M 173 89.378906 L 247 89.378906 L 247 208.558594 L 173 208.558594 Z M 173 89.378906 " clip-rule="nonzero"/></clipPath></defs><g clip-path="url(#id1)"><path fill="rgb(13.729858%, 12.159729%, 12.548828%)" d="M 200.933594 176.804688 C 208.171875 174.371094 214.964844 170.867188 220.996094 166.363281 C 227.683594 161.363281 233.226562 155.179688 238.183594 148.664062 C 241.039062 144.914062 243.714844 141.050781 246.390625 137.1875 C 246.730469 136.699219 247.035156 134.460938 246.011719 134.421875 C 237.90625 134.125 230.203125 137.441406 224.039062 142.210938 C 217.363281 147.371094 212.519531 154.199219 208.242188 161.1875 C 206.636719 163.808594 205.097656 166.464844 203.535156 169.113281 C 204.738281 165.195312 205.765625 161.230469 206.621094 157.234375 C 216.53125 148.722656 224.648438 138.46875 230.503906 127.101562 C 232.171875 123.863281 233.644531 120.535156 234.925781 117.144531 C 235.140625 116.582031 235.171875 115.921875 235.003906 115.34375 C 234.921875 115.050781 234.664062 114.4375 234.234375 114.671875 C 222.75 120.933594 213.84375 131.148438 209.289062 142.871094 C 209.101562 143.351562 208.925781 143.832031 208.753906 144.316406 C 208.8125 143.816406 208.867188 143.320312 208.921875 142.820312 C 209.210938 140.066406 209.414062 137.304688 209.535156 134.542969 C 215.007812 123.511719 215.09375 110.289062 210.28125 99.039062 C 208.925781 95.878906 207.152344 92.875 205.015625 90.125 C 204.453125 89.398438 204.089844 90.71875 204.039062 91.023438 C 202.125 102.292969 202.503906 113.875 205.058594 125.027344 C 205.773438 128.148438 206.671875 131.226562 207.738281 134.253906 C 207.820312 134.492188 207.960938 134.789062 208.152344 134.902344 C 207.820312 141.609375 206.976562 148.289062 205.621094 154.886719 C 204.847656 144.703125 201.5625 134.773438 195.976562 126.011719 C 194.324219 123.421875 192.472656 120.957031 190.4375 118.621094 C 189.632812 117.699219 189.441406 119.988281 189.472656 120.3125 C 190.585938 131.203125 194.035156 141.894531 199.597656 151.503906 C 201.132812 154.15625 202.820312 156.726562 204.65625 159.203125 C 203.601562 163.605469 202.324219 167.960938 200.828125 172.25 C 199.753906 162.050781 195.988281 152.164062 189.816406 143.695312 C 187.921875 141.09375 185.796875 138.648438 183.476562 136.371094 C 182.871094 135.773438 182.53125 136.832031 182.5 137.273438 C 181.664062 149.164062 185.261719 161.214844 192.6875 170.882812 C 194.523438 173.273438 196.597656 175.488281 198.863281 177.523438 C 197.558594 180.828125 196.121094 184.09375 194.558594 187.300781 C 192.113281 176.71875 187.453125 166.640625 180.792969 157.796875 C 178.761719 155.105469 176.550781 152.535156 174.175781 150.105469 C 173.570312 149.488281 173.238281 150.589844 173.199219 151.007812 C 172.085938 163.257812 176.488281 175.832031 185.226562 184.984375 C 187.433594 187.292969 189.90625 189.375 192.597656 191.171875 C 190.011719 196.066406 187.121094 200.8125 183.949219 205.386719 C 183.558594 205.953125 183.554688 206.789062 183.738281 207.421875 C 183.839844 207.769531 184.269531 208.515625 184.667969 207.941406 C 188.007812 203.128906 191.027344 198.121094 193.726562 192.964844 C 193.785156 192.984375 193.84375 192.996094 193.90625 192.992188 C 208.523438 191.9375 222.417969 185.4375 232.429688 175.386719 C 235.234375 172.574219 237.710938 169.476562 239.804688 166.160156 C 240.09375 165.703125 240.382812 163.03125 239.246094 163.453125 C 226.34375 168.207031 214.167969 174.671875 203.183594 182.625 C 200.796875 184.347656 198.46875 186.144531 196.203125 188.007812 C 197.941406 184.34375 199.519531 180.613281 200.925781 176.824219 C 200.929688 176.816406 200.929688 176.808594 200.933594 176.804688 Z M 233.132812 139.894531 C 236.488281 138.453125 240.078125 137.574219 243.746094 137.40625 C 239.722656 143.183594 235.59375 148.917969 230.804688 154.160156 C 225.402344 160.078125 219.101562 165.164062 211.902344 169.046875 C 209.210938 170.496094 206.410156 171.78125 203.535156 172.878906 C 211.089844 160.175781 218.421875 146.210938 233.132812 139.894531 Z M 204.296875 101.019531 C 204.441406 98.539062 204.699219 96.070312 205.0625 93.613281 C 211.394531 102.300781 213.835938 113.371094 211.613281 123.714844 C 211.152344 125.867188 210.496094 127.964844 209.660156 130 C 209.683594 127.71875 209.652344 125.4375 209.558594 123.160156 C 209.546875 122.789062 209.46875 121.675781 208.863281 121.683594 C 208.277344 121.691406 208.199219 122.84375 208.210938 123.175781 C 208.316406 125.785156 208.34375 128.398438 208.289062 131.003906 C 205.117188 121.328125 203.710938 111.140625 204.296875 101.019531 Z M 225.867188 123.464844 C 227.929688 121.753906 230.128906 120.195312 232.433594 118.796875 C 228.023438 129.109375 221.746094 138.679688 213.921875 147.015625 C 212.03125 149.03125 210.046875 150.96875 207.984375 152.828125 C 210.195312 141.535156 216.746094 131.03125 225.867188 123.464844 Z M 192.171875 128.226562 C 191.765625 126.441406 191.4375 124.644531 191.171875 122.835938 C 197.203125 130.257812 201.410156 138.96875 203.308594 148.15625 C 203.792969 150.496094 204.121094 152.863281 204.296875 155.242188 C 198.496094 147.054688 194.371094 137.859375 192.171875 128.226562 Z M 174.90625 161.109375 C 174.476562 158.617188 174.296875 156.097656 174.394531 153.574219 C 181.988281 161.59375 187.824219 171.089844 191.308594 181.332031 C 192.125 183.722656 192.820312 186.152344 193.378906 188.613281 C 183.65625 182.289062 176.804688 172.109375 174.90625 161.109375 Z M 228.8125 170.777344 C 231.273438 169.648438 233.769531 168.589844 236.292969 167.59375 C 228.839844 177.253906 217.941406 184.503906 205.792969 187.933594 C 203.316406 188.628906 200.792969 189.167969 198.242188 189.542969 C 207.558594 182.128906 217.84375 175.808594 228.8125 170.777344 Z M 199.132812 174.402344 C 199.078125 174.417969 199.03125 174.441406 198.984375 174.472656 C 191.046875 167.222656 185.734375 157.414062 184.1875 147.097656 C 183.828125 144.695312 183.671875 142.269531 183.730469 139.84375 C 191.058594 147.351562 196.199219 156.644531 198.503906 166.621094 C 199.082031 169.128906 199.460938 171.679688 199.648438 174.238281 C 199.476562 174.292969 199.304688 174.347656 199.132812 174.402344 Z M 199.132812 174.402344 " fill-opacity="1" fill-rule="nonzero"/></g></svg>