<svg xmlns="http://www.w3.org/2000/svg" xmlns:xlink="http://www.w3.org/1999/xlink" width="559" zoomAndPan="magnify" viewBox="0 0 419.25 297.75" height="397" preserveAspectRatio="xMidYMid meet" version="1.0"><defs><clipPath id="id1"><path d="M 179 89.378906 L 240 89.378906 L 240 208.558594 L 179 208.558594 Z M 179 89.378906 " clip-rule="nonzero"/></clipPath></defs><path fill="rgb(13.729858%, 12.159729%, 12.548828%)" d="M 207.828125 170.851562 C 236.351562 170.160156 235.621094 148.3125 235.621094 148.3125 C 211.300781 148.3125 207.828125 170.851562 207.828125 170.851562 Z M 207.828125 170.851562 " fill-opacity="1" fill-rule="nonzero"/><g clip-path="url(#id1)"><path fill="rgb(13.729858%, 12.159729%, 12.548828%)" d="M 236.78125 109.871094 C 215.707031 109.871094 210.285156 126.792969 209.214844 131.3125 C 209.875 124.289062 210.800781 117.664062 212.066406 111.914062 C 240.3125 111.085938 239.589844 89.382812 239.589844 89.382812 C 223.195312 89.382812 216.273438 99.625 213.503906 106.300781 C 213.964844 104.753906 214.460938 103.300781 214.992188 101.957031 C 215.0625 101.78125 214.976562 101.582031 214.800781 101.511719 C 214.625 101.441406 214.425781 101.527344 214.355469 101.703125 C 213.175781 104.6875 212.175781 108.207031 211.328125 112.109375 C 210.691406 108.976562 205.925781 90.007812 183.617188 90.007812 C 183.617188 90.007812 182.890625 111.765625 211.234375 112.542969 C 210.191406 117.472656 209.386719 123.003906 208.777344 128.855469 C 207.75 124.457031 202.386719 107.335938 181.195312 107.335938 C 181.195312 107.335938 180.472656 129.019531 208.675781 129.867188 C 207.535156 141.265625 207.117188 153.804688 207.0625 165.445312 C 205.816406 160.496094 200.171875 144.328125 179.574219 144.328125 C 179.574219 144.328125 178.851562 166.015625 207.054688 166.859375 C 207.039062 174.597656 207.175781 181.898438 207.367188 188.148438 C 207.34375 188 203.8125 165.609375 179.574219 165.609375 C 179.574219 165.609375 178.84375 187.460938 207.367188 188.152344 C 207.726562 199.917969 208.265625 207.964844 208.285156 208.214844 C 208.296875 208.394531 208.445312 208.535156 208.625 208.535156 C 208.632812 208.535156 208.640625 208.535156 208.648438 208.53125 C 208.835938 208.519531 208.976562 208.355469 208.964844 208.167969 C 208.949219 207.949219 208.527344 201.644531 208.179688 192.074219 C 236.339844 191.207031 235.621094 169.546875 235.621094 169.546875 C 215.015625 169.546875 209.375 185.726562 208.132812 190.667969 C 207.765625 179.949219 207.519531 165.542969 208.007812 151.035156 C 236.34375 150.253906 235.621094 128.503906 235.621094 128.503906 C 214.488281 128.503906 209.097656 145.515625 208.046875 149.980469 C 208.261719 144.042969 208.605469 138.101562 209.113281 132.40625 C 237.507812 131.652344 236.78125 109.871094 236.78125 109.871094 Z M 236.78125 109.871094 " fill-opacity="1" fill-rule="nonzero"/></g><path fill="rgb(13.729858%, 12.159729%, 12.548828%)" d="M 207.367188 147.515625 C 207.367188 147.515625 203.894531 124.972656 179.574219 124.972656 C 179.574219 124.972656 178.84375 146.820312 207.367188 147.515625 Z M 207.367188 147.515625 " fill-opacity="1" fill-rule="nonzero"/></svg>