<svg xmlns="http://www.w3.org/2000/svg" xmlns:xlink="http://www.w3.org/1999/xlink" width="559" zoomAndPan="magnify" viewBox="0 0 419.25 297.75" height="397" preserveAspectRatio="xMidYMid meet" version="1.0"><defs><clipPath id="id1"><path d="M 164.574219 89.464844 L 254.515625 89.464844 L 254.515625 208.472656 L 164.574219 208.472656 Z M 164.574219 89.464844 " clip-rule="nonzero"/></clipPath><clipPath id="id2"><path d="M 164.574219 89.464844 L 254.515625 89.464844 L 254.515625 160 L 164.574219 160 Z M 164.574219 89.464844 " clip-rule="nonzero"/></clipPath></defs><path fill="rgb(94.119263%, 22.349548%, 30.198669%)" d="M 203.992188 144.171875 C 203.144531 143.816406 202.46875 143.378906 201.476562 142.574219 C 200.730469 141.972656 199.976562 141.265625 199.210938 140.453125 C 198.480469 139.671875 197.738281 138.796875 196.988281 137.828125 C 198.074219 138.242188 199.132812 138.832031 200.160156 139.597656 C 200.179688 139.28125 200.25 139.136719 200.375 139.160156 C 200.730469 139.320312 201.28125 139.933594 202.027344 141.003906 C 202.820312 141.820312 203.476562 142.878906 203.992188 144.171875 Z M 207.625 155.988281 C 205.648438 153.863281 203.410156 151.886719 200.902344 150.027344 C 200.3125 149.589844 199.710938 149.160156 199.09375 148.734375 C 199.382812 148.382812 199.667969 148.027344 199.9375 147.667969 C 201.449219 145.625 202.152344 144.835938 204.351562 145.191406 C 204.507812 145.6875 204.648438 146.210938 204.765625 146.761719 C 205.453125 149.917969 204.914062 150.859375 206.792969 153.839844 C 207.636719 155.179688 208.722656 156.507812 210.046875 157.820312 L 210.039062 158.847656 C 209.332031 157.914062 208.554688 156.8125 207.625 155.988281 Z M 191.910156 155.136719 C 194.554688 156.351562 197.984375 156.347656 202.191406 155.121094 C 203.269531 154.828125 204.234375 154.710938 205.085938 154.777344 C 205.460938 154.804688 205.816406 154.898438 206.15625 155.035156 C 204.496094 153.386719 202.667969 151.828125 200.667969 150.34375 C 200.074219 149.902344 199.464844 149.46875 198.839844 149.039062 C 196.871094 151.390625 194.523438 153.609375 191.910156 155.136719 Z M 210.269531 150.722656 C 210.269531 150.722656 211.914062 149.722656 215.203125 147.726562 C 216.007812 147.132812 216.664062 146.386719 217.164062 145.484375 C 218.671875 142.78125 218.769531 140.511719 220.554688 137.640625 C 230.195312 145.832031 239.140625 145.980469 247.390625 138.089844 C 247.820312 138.453125 248.25 138.832031 248.675781 139.226562 C 246 144.5 242.585938 148.222656 238.425781 150.382812 C 232.753906 147.140625 227.109375 147.28125 221.488281 150.808594 C 221 150.378906 220.496094 150.007812 219.976562 149.703125 C 216.292969 147.550781 213.550781 149.753906 210.300781 151.964844 C 210.300781 151.964844 210.289062 151.550781 210.269531 150.722656 Z M 211.285156 167.757812 C 211.441406 168.042969 211.519531 168.1875 211.519531 168.1875 C 210.65625 168.089844 210.132812 168.214844 209.953125 168.558594 C 208.601562 172.480469 205.667969 174.386719 201.15625 174.273438 C 202.546875 172.78125 203.039062 171.097656 204.402344 169.675781 C 206.160156 167.835938 208.457031 167.195312 211.285156 167.757812 Z M 200.339844 160.570312 C 204.1875 162.882812 206.109375 164.039062 206.109375 164.039062 C 203.1875 169.023438 200.398438 171.804688 197.738281 172.386719 C 196.382812 172.679688 196.171875 172.300781 195.15625 172.246094 C 195.011719 172.238281 194.847656 172.242188 194.671875 172.261719 C 194.503906 172.253906 194.332031 172.226562 194.152344 172.171875 C 193.339844 171.925781 191.90625 170.738281 191.089844 170.214844 C 190.011719 169.519531 189.058594 168.992188 188.234375 168.628906 C 187.492188 168.367188 187.351562 168.050781 187.820312 167.683594 C 189.0625 166.433594 190.476562 164.824219 192.074219 162.851562 C 193.886719 160.929688 196.640625 160.171875 200.339844 160.570312 Z M 210.535156 160.351562 C 210.65625 160.902344 210.714844 161.179688 210.714844 161.179688 C 213.246094 161.113281 214.675781 161.648438 214.996094 162.777344 C 216.09375 166.246094 217.003906 168.65625 217.726562 170 C 218.175781 170.835938 218.554688 171.261719 218.863281 171.28125 C 219.507812 171.429688 220.078125 171.714844 220.574219 172.140625 C 221.722656 172.84375 222.921875 173.351562 224.179688 173.671875 C 227.144531 174.425781 230.410156 174.113281 233.976562 172.734375 C 234.902344 171.960938 232.832031 167.652344 232.558594 165.980469 C 225.375 161.378906 221.785156 159.074219 221.785156 159.074219 C 219.746094 159.316406 218.265625 160.296875 216.347656 160.554688 C 214.457031 160.808594 212.519531 160.742188 210.535156 160.351562 Z M 209.183594 131.386719 C 209.625 131.851562 210.097656 134.605469 210.601562 139.65625 C 210.601562 139.65625 210.941406 139.585938 211.414062 138.914062 C 210.15625 132.4375 210.121094 128.308594 211.515625 127.0625 C 212.023438 126.308594 212.941406 125.648438 214.261719 125.082031 C 217.203125 123.820312 220.011719 123.976562 222.769531 122.28125 C 224.324219 121.324219 225.539062 120.050781 226.421875 118.457031 C 227.894531 115.789062 228.425781 107.875 228.019531 107.773438 C 223.320312 110.296875 217.96875 109.179688 214.863281 114.636719 C 212.605469 118.605469 214.289062 122.238281 212.136719 125.402344 C 212.136719 125.402344 211.367188 126.519531 209.832031 128.75 C 209.589844 126.929688 209.632812 125.308594 209.953125 123.894531 C 209.351562 125.003906 209.105469 126.097656 209.214844 127.179688 C 208.980469 126.046875 208.640625 125.027344 208.191406 124.125 C 206.828125 121.386719 204.445312 120.675781 203.515625 117.402344 C 203.578125 120.394531 204.292969 122.777344 205.660156 124.550781 C 207.234375 126.59375 209.164062 127.03125 209.183594 130.320312 C 207.824219 129.394531 206.289062 128.671875 204.578125 128.160156 C 202.960938 127.59375 201.328125 126.40625 199.679688 124.605469 C 195.992188 120.921875 192.539062 119.144531 189.316406 119.269531 C 183.859375 119.128906 179.734375 121.332031 176.949219 125.878906 C 175.453125 128.011719 173.425781 130.042969 170.867188 131.980469 C 170.746094 132.394531 171.230469 132.867188 172.3125 133.402344 C 174.3125 134.269531 176.300781 135.285156 178.273438 136.453125 C 186.894531 140.386719 193.832031 139.003906 199.089844 132.308594 C 201.316406 129.710938 202.925781 128.496094 203.929688 128.664062 C 206.121094 129.292969 207.875 130.199219 209.183594 131.386719 " fill-opacity="1" fill-rule="evenodd"/><g clip-path="url(#id1)"><path fill="rgb(95.689392%, 44.309998%, 52.159119%)" d="M 252.046875 126.515625 C 250.222656 126.605469 248.234375 125.796875 246.085938 124.085938 C 241.753906 121.109375 236.460938 120.617188 230.203125 122.601562 C 225.386719 124.753906 222.019531 128.289062 220.105469 133.210938 C 219.203125 134.859375 217.53125 136.175781 215.089844 137.148438 C 213.371094 137.839844 212.136719 138.382812 211.386719 138.773438 L 211.414062 138.914062 C 210.941406 139.585938 210.601562 139.65625 210.601562 139.65625 L 210.566406 139.300781 C 210.40625 139.5625 210.265625 140.433594 210.144531 141.921875 C 209.867188 144.214844 209.691406 145.535156 209.613281 145.875 C 208.089844 145.457031 206.753906 145.074219 205.605469 144.730469 C 203.785156 144.183594 203.007812 143.8125 201.476562 142.574219 C 200.730469 141.972656 199.976562 141.265625 199.210938 140.453125 C 198.230469 139.40625 197.230469 138.1875 196.21875 136.796875 C 195.96875 136.480469 195.714844 136.183594 195.453125 135.898438 C 190.761719 139.351562 185.035156 139.539062 178.273438 136.453125 C 177.527344 136.015625 176.78125 135.59375 176.03125 135.195312 C 174.503906 136.210938 173.042969 137.347656 171.648438 138.472656 C 168.878906 140.707031 166.519531 143.121094 164.574219 145.714844 C 165.132812 147.242188 168.324219 149.554688 174.136719 152.648438 C 175 153.164062 176.652344 154.132812 179.097656 155.550781 C 186.808594 159.855469 193.984375 154.835938 198.839844 149.039062 C 199.464844 149.46875 200.074219 149.902344 200.667969 150.34375 C 202.667969 151.828125 204.496094 153.386719 206.15625 155.035156 C 206.6875 155.253906 207.171875 155.585938 207.625 155.988281 C 205.648438 153.863281 203.410156 151.886719 200.902344 150.027344 C 200.3125 149.589844 199.710938 149.160156 199.09375 148.734375 C 199.382812 148.382812 199.667969 148.027344 199.9375 147.667969 C 201.585938 145.441406 202.273438 144.703125 204.980469 145.316406 C 206.769531 145.722656 208.289062 146.179688 209.546875 146.691406 C 209.703125 148.460938 209.828125 150.101562 209.929688 151.613281 C 210.121094 154.523438 210.046875 156.898438 210.03125 159.757812 C 210.019531 161.433594 210.125 162.914062 210.34375 164.199219 C 208.960938 161.6875 206.917969 158.878906 203.875 158.460938 C 202.101562 158.214844 201.363281 158.851562 199.976562 159.644531 C 199.582031 159.871094 199.164062 160.089844 198.726562 160.304688 C 198.132812 160.597656 197.839844 160.828125 197.855469 161 C 198.558594 161.894531 199.269531 162.644531 199.988281 163.253906 C 197.871094 163.859375 195.839844 164.800781 193.960938 165.671875 C 191.574219 166.777344 189.433594 167.769531 187.6875 167.804688 C 187.554688 167.945312 187.519531 168.078125 187.578125 168.203125 C 189.429688 168.203125 191.648438 167.175781 194.125 166.03125 C 196.070312 165.128906 198.175781 164.15625 200.363281 163.5625 C 202.425781 165.160156 204.558594 165.621094 206.773438 164.941406 C 208.828125 164.453125 210.089844 164.5625 210.550781 165.269531 C 211.363281 168.523438 211.9375 171.648438 212.273438 174.644531 C 213.058594 181.609375 212.101562 185.554688 211.558594 192.066406 C 211.078125 197.828125 211.625 202.648438 213.253906 206.523438 C 213.355469 206.867188 214.894531 208.804688 215.054688 208.421875 C 213.847656 205.121094 213.078125 201.714844 212.738281 198.203125 C 212.042969 190.980469 214 183.886719 213.375 176.753906 C 213.140625 174.085938 212.695312 171.265625 212.03125 168.296875 C 212.464844 167.488281 213.753906 167.605469 214.652344 167.429688 C 217.261719 166.921875 219.066406 165.96875 220.0625 164.570312 C 221.890625 165.597656 223.640625 166.71875 225.382812 167.839844 C 228.140625 169.613281 230.882812 171.378906 233.9375 172.75 L 233.976562 172.734375 C 234.066406 172.660156 234.125 172.554688 234.164062 172.417969 C 231.109375 171.054688 228.359375 169.285156 225.59375 167.507812 C 223.855469 166.390625 222.113281 165.269531 220.28125 164.242188 C 220.4375 163.980469 220.566406 163.707031 220.671875 163.414062 C 220.671875 163.414062 220.328125 163.226562 219.644531 162.84375 C 218.925781 162.441406 217.960938 162.4375 217.019531 162.664062 C 216.933594 162.628906 216.847656 162.59375 216.761719 162.558594 C 215.476562 162.050781 214.277344 161.675781 213.339844 161.417969 C 213.328125 161.414062 213.316406 161.410156 213.304688 161.410156 C 213.964844 161.589844 214.441406 161.867188 214.726562 162.246094 C 215.253906 162.417969 215.816406 162.617188 216.40625 162.84375 C 215.671875 163.097656 214.996094 163.472656 214.515625 163.878906 C 213.496094 164.742188 212.628906 166.023438 211.902344 167.726562 C 211.765625 167.132812 211.621094 166.527344 211.464844 165.917969 C 210.84375 163.179688 210.859375 161.683594 210.976562 158.910156 C 211.015625 158.007812 211.058594 157.09375 211.085938 156.140625 C 211.09375 155.757812 211.101562 155.449219 211.140625 155.417969 C 211.449219 155.164062 212.617188 155.117188 214.585938 155.074219 C 215.011719 155.109375 215.414062 155.25 215.800781 155.507812 C 217.414062 156.582031 220.109375 162.546875 222.707031 165.121094 C 223.902344 166.304688 225.125 167.175781 226.367188 167.726562 C 232.285156 169.671875 238.730469 167.765625 245.703125 162.007812 C 247.015625 160.796875 247.488281 159.738281 247.121094 158.835938 C 244.960938 155.914062 242.753906 153.539062 240.5 151.71875 C 239.863281 151.199219 239.222656 150.730469 238.574219 150.300781 C 238.527344 150.328125 238.476562 150.355469 238.425781 150.382812 C 232.753906 147.140625 227.109375 147.28125 221.488281 150.808594 C 220.914062 151.25 219.226562 152.660156 218.792969 152.976562 C 217.941406 153.589844 216.933594 153.945312 215.769531 154.039062 C 213.394531 154.164062 211.757812 154.375 210.867188 154.660156 C 210.898438 154.308594 210.84375 153.316406 210.703125 151.6875 C 210.570312 151.78125 210.433594 151.871094 210.300781 151.964844 C 210.300781 151.964844 210.289062 151.550781 210.269531 150.722656 L 210.597656 150.523438 L 210.585938 150.410156 C 210.027344 147.46875 210.980469 139.777344 211.324219 139.652344 C 211.886719 139.261719 213.351562 138.570312 215.722656 137.582031 C 217.285156 137.089844 218.894531 137.109375 220.554688 137.640625 C 230.195312 145.832031 239.140625 145.980469 247.390625 138.089844 L 247.460938 138.148438 C 247.898438 137.691406 248.335938 137.207031 248.765625 136.695312 L 248.765625 136.691406 C 249.566406 135.734375 250.351562 134.679688 251.117188 133.519531 C 253.230469 130.414062 254.363281 128.441406 254.515625 127.609375 C 254.429688 127.015625 253.609375 126.648438 252.046875 126.515625 Z M 201.523438 173.855469 C 201.40625 173.996094 201.285156 174.136719 201.15625 174.273438 C 201.300781 174.277344 201.441406 174.28125 201.582031 174.28125 C 202.601562 173.675781 203.582031 172.832031 204.574219 171.980469 C 206.242188 170.546875 207.953125 169.082031 209.898438 168.714844 C 209.917969 168.660156 209.9375 168.609375 209.953125 168.558594 C 210.023438 168.421875 210.148438 168.320312 210.328125 168.253906 C 208.070312 168.457031 206.171875 170.089844 204.320312 171.679688 C 203.386719 172.480469 202.464844 173.273438 201.523438 173.855469 Z M 204.746094 123.089844 C 203.972656 121.53125 203.5625 119.636719 203.515625 117.402344 C 204.445312 120.675781 206.828125 121.386719 208.191406 124.125 C 208.640625 125.027344 208.980469 126.046875 209.214844 127.179688 C 209.105469 126.097656 209.351562 125.003906 209.953125 123.894531 C 209.632812 125.308594 209.589844 126.929688 209.832031 128.75 L 210.496094 127.785156 C 210.933594 126.421875 211.753906 125.316406 212.742188 124.273438 C 212.785156 124.171875 212.824219 124.074219 212.863281 123.96875 C 212.824219 124.070312 212.789062 124.171875 212.746094 124.269531 C 212.746094 124.273438 212.746094 124.273438 212.742188 124.273438 C 212.738281 124.285156 212.734375 124.296875 212.730469 124.308594 C 214.882812 120.488281 218.445312 117.390625 221.710938 114.550781 C 224.308594 112.285156 226.722656 110.1875 228.109375 108 C 228.085938 107.863281 228.054688 107.785156 228.019531 107.773438 C 227.902344 107.835938 227.785156 107.894531 227.671875 107.953125 C 226.296875 110.03125 223.964844 112.0625 221.453125 114.25 C 218.53125 116.792969 215.375 119.542969 213.171875 122.839844 C 213.171875 122.851562 213.167969 122.859375 213.167969 122.867188 C 213.679688 120.34375 213.183594 117.582031 214.863281 114.636719 C 216.40625 111.921875 218.507812 110.832031 220.804688 110.117188 C 220.734375 108.742188 220.453125 107.207031 219.929688 105.34375 C 218.160156 98.992188 214.042969 90.472656 210.628906 89.464844 C 205.007812 93.105469 192.347656 107.945312 199.433594 117.972656 C 200.988281 120.171875 202.757812 121.875 204.746094 123.089844 Z M 212.101562 125.539062 C 212.144531 125.441406 212.191406 125.34375 212.238281 125.25 C 212.203125 125.300781 212.171875 125.351562 212.136719 125.402344 L 211.96875 125.648438 C 212.023438 125.632812 212.074219 125.59375 212.101562 125.539062 Z M 181.386719 129.035156 C 177.890625 130.289062 174.390625 131.550781 170.847656 132.117188 C 170.847656 132.070312 170.851562 132.027344 170.867188 131.980469 C 171.015625 131.867188 171.164062 131.753906 171.3125 131.640625 C 174.636719 131.039062 177.949219 129.851562 181.253906 128.664062 C 187.964844 126.25 194.652344 123.847656 201.5 126.347656 C 202.003906 126.765625 202.507812 127.121094 203.007812 127.417969 C 195.71875 123.882812 188.566406 126.453125 181.386719 129.035156 " fill-opacity="1" fill-rule="nonzero"/></g><g clip-path="url(#id2)"><path fill="rgb(98.429871%, 79.60968%, 83.529663%)" d="M 219.683594 133.882812 C 225.539062 129.285156 233.9375 128.910156 242.230469 128.542969 C 246.453125 128.355469 250.648438 128.164062 254.457031 127.421875 C 254.488281 127.480469 254.503906 127.542969 254.515625 127.609375 C 254.503906 127.675781 254.484375 127.746094 254.460938 127.820312 C 250.648438 128.558594 246.460938 128.746094 242.246094 128.9375 C 235.128906 129.257812 227.929688 129.589844 222.390625 132.585938 C 221.726562 132.945312 219.734375 134.222656 218.515625 135.160156 C 218.511719 135.160156 219.59375 134.007812 219.683594 133.882812 Z M 209.304688 125.597656 C 208.3125 120.792969 207.84375 115.808594 207.90625 110.640625 C 207.984375 103.914062 208.957031 96.878906 210.816406 89.527344 C 210.753906 89.503906 210.691406 89.484375 210.628906 89.464844 C 210.550781 89.515625 210.46875 89.570312 210.386719 89.625 C 208.550781 96.933594 207.59375 103.933594 207.511719 110.636719 C 207.449219 116.289062 208.007812 121.726562 209.195312 126.945312 C 209.171875 126.5 209.207031 126.050781 209.304688 125.597656 Z M 209.984375 128.535156 C 209.886719 128.15625 209.792969 127.777344 209.703125 127.398438 C 209.726562 127.835938 209.769531 128.289062 209.832031 128.75 Z M 164.648438 145.894531 C 164.621094 145.832031 164.59375 145.773438 164.574219 145.714844 C 164.644531 145.617188 164.71875 145.519531 164.789062 145.425781 C 165.453125 145.1875 166.183594 144.921875 166.902344 144.660156 C 179.261719 140.167969 187.976562 137.003906 201.710938 142.761719 C 202.667969 143.515625 203.339844 143.921875 204.238281 144.273438 C 204.191406 144.289062 204.136719 144.285156 204.089844 144.261719 C 188.996094 137.050781 180.050781 140.300781 167.039062 145.03125 C 166.296875 145.296875 165.546875 145.574219 164.648438 145.894531 Z M 215.175781 154.074219 C 215.367188 154.0625 215.566406 154.050781 215.769531 154.039062 C 216.367188 153.992188 216.925781 153.875 217.441406 153.6875 C 220.796875 153.90625 224.789062 155.054688 229.050781 156.28125 C 234.925781 157.972656 241.324219 159.8125 247.238281 159.554688 C 247.230469 159.683594 247.207031 159.816406 247.167969 159.953125 C 241.21875 160.191406 234.820312 158.351562 228.945312 156.660156 C 223.738281 155.164062 218.941406 153.785156 215.265625 154.085938 C 215.234375 154.089844 215.203125 154.085938 215.175781 154.074219 " fill-opacity="1" fill-rule="evenodd"/></g></svg>