<svg xmlns="http://www.w3.org/2000/svg" xmlns:xlink="http://www.w3.org/1999/xlink" width="559" zoomAndPan="magnify" viewBox="0 0 419.25 297.75" height="397" preserveAspectRatio="xMidYMid meet" version="1.0"><defs><clipPath id="id1"><path d="M 166.515625 89.679688 L 252.335938 89.679688 L 252.335938 208.558594 L 166.515625 208.558594 Z M 166.515625 89.679688 " clip-rule="nonzero"/></clipPath><clipPath id="id2"><path d="M 166.515625 89.378906 L 252.539062 89.378906 L 252.539062 208.558594 L 166.515625 208.558594 Z M 166.515625 89.378906 " clip-rule="nonzero"/></clipPath></defs><g clip-path="url(#id1)"><path fill="rgb(9.408569%, 10.978699%, 24.708557%)" d="M 169.730469 135.738281 C 168.640625 131.382812 170.894531 126.582031 169.4375 121.714844 C 171.765625 123.25 173.671875 125.230469 175.160156 127.660156 C 175.703125 126.777344 176.316406 125.890625 176.996094 125 C 183.304688 131.761719 186.59375 138.1875 186.863281 144.269531 C 192.773438 149.179688 196.246094 154.566406 197.277344 160.425781 C 197.476562 159.625 197.6875 158.804688 197.902344 157.953125 C 198.558594 155.34375 199.101562 153.121094 199.539062 151.277344 C 202.199219 154.007812 204.300781 156.847656 205.84375 159.804688 C 205.199219 154.578125 206.363281 150.421875 209.128906 146.925781 C 207.8125 142.433594 201.121094 143.671875 198.242188 136.636719 C 196.917969 133.394531 196.515625 129.03125 197.035156 123.550781 C 197.726562 124.621094 198.671875 125.539062 199.875 126.304688 C 201.847656 127.554688 203.890625 128.03125 205.871094 128.640625 C 206.261719 126.121094 207.257812 123.679688 208.851562 121.324219 C 206.085938 119.480469 202.089844 120.175781 199.4375 115.484375 C 197.308594 111.714844 198.082031 104.484375 196.84375 99.484375 C 199.046875 99.992188 201.039062 100.742188 202.824219 101.734375 C 203.507812 98.035156 205.386719 94.0625 208.460938 89.816406 C 212.640625 97.152344 213.625 104.375 211.417969 111.492188 C 212.085938 113.03125 212.632812 114.707031 213.0625 116.523438 C 214.34375 115.34375 215.792969 114.1875 217.40625 113.054688 C 220.707031 123.996094 219.675781 132.21875 214.3125 137.71875 C 214.480469 139.148438 214.390625 140.710938 214.046875 142.410156 C 216.550781 140.652344 219.578125 139.066406 223.09375 137.5625 C 223.441406 143.066406 222.699219 147.660156 220.859375 151.351562 C 218.675781 155.738281 212.660156 159.152344 210.867188 162.855469 C 212.214844 161.636719 213.886719 160.714844 215.890625 160.078125 C 217.457031 159.582031 219.210938 159.40625 220.964844 159.261719 C 222.160156 155.054688 224.371094 150.074219 227.609375 144.316406 C 229.679688 146.214844 231.332031 148.207031 232.554688 150.304688 C 233.566406 148.886719 234.867188 147.609375 236.464844 146.46875 C 235.296875 144.207031 232.285156 143.054688 231.953125 138.109375 C 231.601562 132.910156 234.613281 127.125 234.6875 120.589844 C 236.082031 121.945312 237.320312 123.304688 238.40625 124.667969 C 239.792969 120.207031 242.601562 115.339844 246.835938 110.070312 C 247.757812 112.667969 248.1875 115.75 248.125 119.308594 C 249.414062 118.644531 250.804688 118.082031 252.296875 117.625 C 252.429688 127.964844 249.664062 135.148438 244.011719 139.167969 C 244.003906 140.417969 243.875 141.667969 243.621094 142.925781 C 245.835938 142.164062 248.320312 141.527344 251.074219 141.015625 C 249.121094 153.164062 243.785156 160.308594 235.070312 162.445312 C 234.957031 163.417969 234.777344 164.398438 234.53125 165.402344 C 236.542969 165.027344 238.714844 164.722656 241.039062 164.492188 C 238.421875 166.179688 234.644531 176.210938 231.476562 180.160156 C 228.597656 183.753906 225.113281 186.578125 221.027344 188.632812 C 218.8125 189.75 218.058594 189.503906 216.925781 191.984375 C 215.523438 195.042969 214.71875 200.574219 214.5 208.566406 L 212.835938 208.566406 C 212.921875 201.476562 213.863281 197.078125 215.460938 189.941406 C 216.320312 186.089844 214.945312 184.074219 215.261719 180.160156 C 215.554688 176.542969 217.175781 173.53125 220.125 171.121094 C 220.355469 170.933594 220.59375 170.75 220.84375 170.566406 C 220.746094 170.355469 220.660156 170.140625 220.578125 169.917969 C 216.238281 173.4375 211.378906 175.339844 208.191406 179.78125 C 207.683594 181.855469 207.109375 183.539062 207.167969 186.035156 C 207.269531 190.613281 208.476562 198.121094 210.792969 208.566406 L 208.945312 208.566406 C 206.167969 194.890625 206.132812 189.253906 204.941406 185.5 C 204.769531 184.957031 204.601562 184.496094 204.4375 184.117188 C 203.976562 183.074219 202.964844 181.996094 201.820312 180.761719 C 202.085938 185.070312 201.78125 189.902344 202.019531 193.597656 C 202.328125 198.375 202.914062 203.363281 203.769531 208.566406 L 201.476562 208.566406 L 200.292969 196.082031 C 199.777344 192.152344 198.667969 189.257812 196.972656 187.40625 C 189.585938 179.328125 182.898438 184.359375 175.191406 165.328125 C 177.65625 166.226562 180.082031 167 182.46875 167.644531 C 182.679688 167.703125 182.894531 167.757812 183.113281 167.808594 C 181.257812 164.808594 181.019531 161.410156 181.398438 157.855469 C 177.523438 156.457031 172.144531 157.851562 169.042969 151.902344 C 167.132812 148.242188 166.417969 142.578125 166.898438 134.910156 C 167.871094 135.164062 168.816406 135.4375 169.730469 135.738281 " fill-opacity="1" fill-rule="evenodd"/></g><g clip-path="url(#id2)"><path fill="rgb(15.289307%, 26.269531%, 57.649231%)" d="M 235.34375 162.128906 C 239.28125 161.097656 242.507812 159.003906 245.015625 155.859375 C 247.828125 152.335938 249.75 147.488281 250.78125 141.3125 C 250.144531 141.433594 249.519531 141.5625 248.914062 141.699219 C 242.019531 144.070312 237.046875 147.714844 233.988281 152.636719 C 234.265625 153.308594 234.503906 153.988281 234.703125 154.675781 C 235.390625 157.050781 235.601562 159.535156 235.34375 162.128906 Z M 243.414062 142.746094 C 244.042969 139.5 243.847656 136.289062 242.824219 133.109375 C 241.519531 129.070312 238.882812 125.082031 234.910156 121.144531 C 235.152344 122.742188 235.320312 125.320312 235.117188 127.902344 C 234.824219 131.554688 234.0625 134.992188 234.449219 138.671875 C 234.695312 141.023438 236.332031 143.132812 237.234375 145.660156 C 238.988281 144.542969 241.046875 143.570312 243.414062 142.746094 Z M 244.246094 138.699219 C 246.648438 136.890625 248.492188 134.476562 249.789062 131.453125 C 251.339844 127.824219 252.101562 123.324219 252.0625 117.945312 C 247.324219 120.6875 243.230469 125.828125 241.566406 128.992188 C 242.277344 130.308594 242.847656 131.632812 243.277344 132.964844 C 243.886719 134.863281 244.214844 136.777344 244.246094 138.699219 Z M 247.96875 119.121094 C 247.984375 117.925781 247.941406 116.785156 247.84375 115.699219 C 247.671875 113.753906 247.316406 111.984375 246.78125 110.394531 C 244.9375 112.703125 241.144531 122.761719 240.164062 126.035156 C 241.179688 124.527344 242.355469 123.191406 243.695312 122.019531 C 244.972656 120.902344 246.398438 119.933594 247.96875 119.121094 Z M 208.867188 167.925781 C 209.425781 171.136719 209.410156 174.464844 208.824219 177.910156 C 208.777344 178.207031 208.71875 178.496094 208.664062 178.777344 C 210.667969 176.34375 213.191406 174.699219 215.796875 172.996094 C 218.449219 171.265625 221.183594 169.476562 223.53125 166.75 C 224.738281 165.347656 225.777344 163.851562 226.65625 162.261719 C 227.421875 160.871094 228.066406 159.410156 228.582031 157.878906 C 228.414062 157.984375 228.238281 158.078125 228.058594 158.167969 C 222.195312 162.917969 213.519531 159.984375 208.867188 167.925781 Z M 206.804688 161.242188 C 207.183594 162.078125 207.515625 162.921875 207.804688 163.773438 C 208.011719 164.386719 208.199219 165.003906 208.363281 165.625 C 208.957031 164.5625 209.691406 163.625 210.566406 162.808594 C 210.601562 162.773438 210.636719 162.742188 210.675781 162.707031 C 211.566406 160.898438 213.410156 159.179688 215.335938 157.386719 C 217.390625 155.476562 219.535156 153.480469 220.648438 151.246094 C 221.554688 149.425781 222.195312 147.375 222.5625 145.097656 C 222.917969 142.914062 223.019531 140.519531 222.878906 137.917969 C 222.371094 138.132812 221.875 138.355469 221.390625 138.578125 C 212.0625 144.394531 207.203125 151.953125 206.804688 161.242188 Z M 209.652344 145.929688 C 210.820312 144.621094 212.214844 143.410156 213.835938 142.265625 C 214.070312 141.082031 214.175781 139.964844 214.152344 138.917969 C 214.113281 136.773438 213.539062 134.910156 212.433594 133.328125 C 210.230469 130.175781 207.578125 129.390625 204.84375 128.582031 C 203.152344 128.082031 201.433594 127.574219 199.75 126.503906 C 199.132812 126.113281 198.582031 125.683594 198.097656 125.214844 C 197.773438 124.902344 197.480469 124.570312 197.214844 124.222656 C 197.1875 124.550781 197.164062 124.875 197.144531 125.195312 C 197.515625 129.679688 198.484375 133.242188 200.046875 135.886719 C 202.851562 140.632812 207.097656 140.339844 209.148438 144.585938 C 209.355469 145.015625 209.523438 145.460938 209.652344 145.929688 Z M 198.855469 104.230469 C 199.605469 107.335938 199.875 110.773438 201.265625 113.542969 C 203.386719 117.777344 206.59375 117.128906 209.535156 119.976562 C 210.464844 118.777344 211.550781 117.597656 212.796875 116.441406 C 211.78125 112.214844 210.109375 108.753906 207.78125 106.0625 C 205.113281 102.972656 201.570312 100.890625 197.164062 99.804688 C 197.757812 100.65625 198.464844 102.625 198.855469 104.230469 Z M 209.042969 129.640625 C 210.382812 130.359375 211.660156 131.386719 212.824219 133.054688 C 213.679688 134.277344 214.230469 135.65625 214.476562 137.195312 C 216.667969 134.820312 218.070312 131.949219 218.691406 128.585938 C 219.46875 124.332031 219 119.28125 217.273438 113.441406 C 213.425781 116.839844 209.75 125.273438 209.042969 129.640625 Z M 205.40625 103.152344 C 206.398438 103.921875 207.3125 104.789062 208.140625 105.75 C 209.410156 107.214844 210.488281 108.902344 211.371094 110.808594 C 212.253906 107.695312 212.523438 104.5625 212.175781 101.40625 C 211.769531 97.722656 210.523438 94.007812 208.4375 90.261719 C 206.789062 93.105469 205.433594 100.179688 205.40625 103.152344 Z M 223.121094 158.839844 C 225.339844 158.621094 227.40625 158.25 228.878906 157.09375 L 229.480469 156.625 L 229.253906 157.355469 C 228.695312 159.160156 227.96875 160.875 227.074219 162.492188 C 226.179688 164.113281 225.117188 165.632812 223.890625 167.0625 C 223.558594 167.445312 223.222656 167.8125 222.878906 168.160156 C 222.933594 168.410156 222.992188 168.652344 223.058594 168.886719 C 224.746094 167.972656 226.585938 167.238281 228.457031 166.644531 C 230.238281 166.078125 232.199219 165.597656 234.339844 165.195312 C 235.214844 161.515625 235.183594 158.054688 234.246094 154.808594 C 233.195312 151.171875 231.003906 147.804688 227.667969 144.699219 C 227.425781 145.132812 227.1875 145.566406 226.953125 145.992188 C 225.082031 150.886719 223.808594 155.167969 223.121094 158.839844 Z M 197.035156 160.414062 C 196.820312 159.214844 196.503906 158.035156 196.082031 156.875 C 194.179688 151.644531 190.171875 146.816406 184.054688 142.394531 C 184.050781 142.519531 184.046875 142.644531 184.042969 142.769531 C 186.070312 151.199219 181.511719 160.03125 186.566406 168.191406 C 187.195312 168.28125 187.835938 168.363281 188.476562 168.449219 C 191.105469 168.796875 193.769531 169.148438 195.980469 169.933594 C 195.589844 166.742188 196.199219 163.773438 197.035156 160.414062 Z M 183 147.628906 C 181.542969 144.121094 179.546875 141.601562 177.113281 139.71875 C 174.320312 137.5625 170.9375 136.234375 167.117188 135.214844 C 167.09375 135.660156 167.070312 136.09375 167.050781 136.523438 C 167.597656 141.609375 168.628906 145.601562 170.148438 148.507812 C 173.390625 154.714844 178.238281 153.703125 181.382812 156.117188 C 181.628906 154.507812 181.960938 152.875 182.296875 151.242188 C 182.542969 150.035156 182.789062 148.828125 183 147.628906 Z M 186.59375 143.738281 C 186.425781 141.46875 185.835938 139.148438 184.820312 136.785156 C 183.242188 133.097656 180.640625 129.292969 177.015625 125.367188 C 175.222656 128.910156 174.945312 135.378906 174.960938 137.726562 C 175.816406 138.210938 176.632812 138.746094 177.40625 139.34375 C 179.742188 141.148438 181.6875 143.523438 183.144531 146.765625 C 183.410156 145.125 183.585938 143.507812 183.585938 141.933594 L 183.582031 141.472656 L 183.957031 141.742188 C 184.882812 142.398438 185.761719 143.0625 186.59375 143.738281 Z M 174.878906 127.660156 C 174.417969 126.921875 173.917969 126.222656 173.375 125.566406 C 172.34375 124.3125 171.160156 123.214844 169.835938 122.273438 C 169.925781 122.652344 169.996094 123.03125 170.046875 123.40625 C 171.277344 127.695312 170.683594 132.777344 171.570312 136.144531 C 171.65625 136.175781 171.738281 136.207031 171.824219 136.242188 C 171.925781 135.222656 172.121094 134.199219 172.414062 133.167969 C 172.933594 131.351562 173.753906 129.515625 174.878906 127.660156 Z M 169.402344 135.382812 C 169.007812 133.429688 169.21875 131.398438 169.441406 129.320312 C 169.699219 126.855469 169.96875 124.316406 169.207031 121.78125 L 169.019531 121.152344 L 169.566406 121.515625 C 171.152344 122.558594 172.546875 123.808594 173.742188 125.261719 C 174.25 125.875 174.722656 126.523438 175.160156 127.210938 C 175.65625 126.429688 176.203125 125.640625 176.808594 124.855469 L 176.976562 124.628906 L 177.167969 124.835938 C 180.933594 128.875 183.632812 132.792969 185.257812 136.59375 C 186.359375 139.167969 186.972656 141.6875 187.097656 144.152344 C 191.753906 148.039062 194.898438 152.226562 196.527344 156.710938 C 196.84375 157.578125 197.101562 158.457031 197.304688 159.347656 L 197.386719 159.015625 L 197.671875 157.894531 C 198.007812 156.5625 198.304688 155.351562 198.570312 154.269531 C 198.832031 153.207031 199.078125 152.191406 199.308594 151.222656 L 199.410156 150.800781 L 199.710938 151.113281 C 202.074219 153.539062 204 156.050781 205.488281 158.660156 C 205.179688 154.472656 206.082031 150.980469 208.078125 147.964844 C 208.324219 147.59375 208.585938 147.230469 208.863281 146.875 C 208.257812 145.019531 206.632812 144.199219 204.777344 143.261719 C 202.390625 142.054688 199.632812 140.660156 198.023438 136.730469 C 197.351562 135.085938 196.914062 133.160156 196.710938 130.953125 C 196.507812 128.757812 196.539062 126.285156 196.800781 123.527344 L 196.867188 122.84375 L 197.238281 123.421875 C 197.570312 123.941406 197.96875 124.425781 198.429688 124.871094 C 198.890625 125.316406 199.414062 125.726562 200.003906 126.101562 C 201.632812 127.132812 203.320312 127.632812 204.976562 128.125 C 205.210938 128.195312 205.445312 128.261719 205.679688 128.332031 C 206.039062 126.238281 206.8125 124.203125 207.996094 122.226562 C 208.160156 121.949219 208.332031 121.671875 208.515625 121.398438 C 207.660156 120.875 206.6875 120.570312 205.683594 120.257812 C 203.445312 119.554688 201.039062 118.804688 199.230469 115.601562 C 197.945312 113.320312 197.699219 109.851562 197.449219 106.351562 C 197.28125 103.964844 197.113281 101.5625 196.613281 99.542969 L 196.519531 99.164062 L 196.894531 99.25 C 199.003906 99.738281 200.921875 100.441406 202.652344 101.367188 C 202.898438 100.152344 203.269531 98.910156 203.765625 97.640625 C 204.761719 95.101562 206.265625 92.445312 208.269531 89.679688 L 208.488281 89.378906 L 208.667969 89.699219 C 210.898438 93.613281 212.226562 97.5 212.648438 101.355469 C 213.023438 104.753906 212.699219 108.128906 211.671875 111.476562 C 212.28125 112.894531 212.789062 114.429688 213.199219 116.078125 C 214.414062 114.984375 215.773438 113.914062 217.269531 112.859375 L 217.539062 112.671875 L 217.636719 112.988281 C 219.460938 119.035156 219.964844 124.261719 219.15625 128.671875 C 218.496094 132.265625 216.964844 135.308594 214.558594 137.804688 C 214.597656 138.164062 214.621094 138.53125 214.628906 138.90625 C 214.648438 139.847656 214.566406 140.839844 214.386719 141.882812 C 216.808594 140.246094 219.691406 138.757812 223.003906 137.34375 L 223.3125 137.207031 L 223.332031 137.546875 C 223.507812 140.316406 223.40625 142.859375 223.03125 145.175781 C 222.65625 147.496094 222.003906 149.59375 221.074219 151.460938 C 219.921875 153.773438 217.746094 155.800781 215.660156 157.738281 C 214.167969 159.128906 212.71875 160.476562 211.757812 161.832031 C 212.921875 161 214.273438 160.339844 215.816406 159.851562 C 217.359375 159.363281 219.070312 159.179688 220.78125 159.035156 C 221.992188 154.847656 224.199219 149.902344 227.402344 144.199219 L 227.546875 143.941406 L 227.769531 144.140625 C 229.757812 145.957031 231.359375 147.867188 232.574219 149.871094 C 233.527344 148.597656 234.71875 147.441406 236.152344 146.398438 C 235.796875 145.78125 235.300781 145.238281 234.765625 144.660156 C 233.457031 143.230469 231.949219 141.589844 231.714844 138.125 C 231.535156 135.449219 232.226562 132.644531 232.960938 129.664062 C 233.667969 126.800781 234.414062 123.777344 234.449219 120.589844 L 234.457031 120.035156 L 234.851562 120.417969 C 236.164062 121.6875 237.335938 122.964844 238.371094 124.246094 C 238.941406 122.511719 239.71875 120.71875 240.710938 118.863281 C 242.21875 116.039062 244.21875 113.074219 246.714844 109.96875 L 246.890625 109.746094 L 246.988281 110.015625 C 247.582031 111.699219 247.972656 113.585938 248.160156 115.671875 C 248.253906 116.714844 248.296875 117.8125 248.289062 118.957031 C 249.515625 118.347656 250.828125 117.824219 252.230469 117.394531 L 252.53125 117.304688 L 252.535156 117.621094 C 252.605469 123.207031 251.835938 127.882812 250.226562 131.644531 C 248.847656 134.863281 246.855469 137.410156 244.25 139.292969 C 244.238281 140.382812 244.128906 141.472656 243.933594 142.566406 C 246.058594 141.859375 248.425781 141.261719 251.03125 140.78125 L 251.359375 140.71875 L 251.308594 141.054688 C 250.277344 147.472656 248.304688 152.507812 245.390625 156.160156 C 242.773438 159.433594 239.40625 161.59375 235.285156 162.640625 C 235.1875 163.449219 235.039062 164.269531 234.847656 165.097656 C 236.765625 164.753906 238.820312 164.472656 241.015625 164.257812 L 242 164.160156 L 241.167969 164.695312 C 239.769531 165.597656 237.976562 169.070312 236.128906 172.644531 C 234.625 175.554688 233.089844 178.535156 231.664062 180.3125 C 228.773438 183.914062 225.25 186.773438 221.132812 188.847656 C 220.628906 189.101562 220.207031 189.28125 219.839844 189.4375 C 218.609375 189.96875 217.988281 190.238281 217.140625 192.082031 C 216.378906 193.746094 215.792969 196.15625 215.386719 199.3125 C 215.050781 201.898438 214.835938 204.984375 214.738281 208.566406 L 214.261719 208.566406 C 214.359375 204.960938 214.578125 201.855469 214.914062 199.25 C 215.332031 196.046875 215.925781 193.589844 216.707031 191.882812 C 217.628906 189.871094 218.308594 189.578125 219.65625 189 C 220.023438 188.839844 220.441406 188.660156 220.921875 188.421875 C 224.976562 186.378906 228.449219 183.558594 231.292969 180.011719 C 232.6875 178.273438 234.214844 175.316406 235.707031 172.429688 C 237.300781 169.339844 238.855469 166.328125 240.210938 164.898438 C 239.351562 165.300781 237.890625 165.953125 236.144531 166.59375 C 233.671875 167.5 231.117188 168.253906 228.683594 169.089844 C 218.085938 172.71875 216.9375 176.976562 215.929688 186.179688 C 216.03125 187.320312 216.019531 188.523438 215.691406 189.996094 C 214.808594 193.9375 214.125 197.042969 213.679688 200.230469 C 213.320312 202.792969 213.113281 205.414062 213.074219 208.566406 L 212.597656 208.566406 C 212.636719 205.386719 212.84375 202.75 213.207031 200.164062 C 213.65625 196.964844 214.34375 193.847656 215.226562 189.890625 C 215.699219 187.773438 215.484375 186.210938 215.253906 184.574219 C 215.070312 183.253906 214.882812 181.886719 215.023438 180.144531 C 215.371094 175.847656 217.53125 172.75 220.546875 170.488281 C 220.523438 170.429688 220.496094 170.371094 220.472656 170.308594 C 219.027344 171.457031 217.527344 172.433594 216.058594 173.394531 C 213.207031 175.257812 210.457031 177.054688 208.410156 179.886719 C 208.328125 180.21875 208.246094 180.542969 208.164062 180.859375 C 207.746094 182.488281 207.359375 183.988281 207.40625 186.03125 C 207.457031 188.316406 207.785156 191.339844 208.394531 195.109375 C 209 198.863281 209.878906 203.347656 211.035156 208.566406 L 210.546875 208.566406 C 209.402344 203.378906 208.527344 198.917969 207.921875 195.183594 C 207.3125 191.398438 206.980469 188.351562 206.929688 186.042969 C 206.882812 183.933594 207.273438 182.402344 207.703125 180.742188 C 207.933594 179.851562 208.171875 178.917969 208.355469 177.828125 C 209.183594 172.957031 208.851562 168.324219 207.355469 163.929688 C 205.898438 159.648438 203.335938 155.589844 199.671875 151.757812 C 199.582031 152.125 199.492188 152.515625 199.390625 152.925781 C 198.78125 158.945312 197.453125 167.105469 198.910156 172.3125 C 200.40625 177.652344 203.644531 179.171875 205.113281 183.511719 C 205.546875 184.800781 205.882812 186.304688 206.117188 188.019531 C 207.292969 196.675781 208.480469 203.527344 209.675781 208.566406 L 208.703125 208.566406 C 207.226562 201.300781 206.527344 196.308594 206.015625 192.664062 C 205.570312 189.464844 205.265625 187.304688 204.714844 185.570312 C 204.632812 185.3125 204.550781 185.066406 204.464844 184.832031 C 204.378906 184.605469 204.296875 184.398438 204.21875 184.214844 C 203.835938 183.34375 203.035156 182.429688 202.09375 181.410156 C 202.191406 183.433594 202.179688 185.550781 202.167969 187.59375 C 202.152344 189.730469 202.140625 191.789062 202.257812 193.582031 C 202.425781 196.183594 202.675781 198.855469 203.007812 201.589844 C 203.285156 203.871094 203.621094 206.199219 204.011719 208.566406 L 203.527344 208.566406 C 203.140625 206.214844 202.808594 203.910156 202.535156 201.648438 C 202.203125 198.910156 201.949219 196.230469 201.78125 193.613281 C 201.664062 191.816406 201.675781 189.742188 201.691406 187.589844 C 201.707031 185.359375 201.71875 183.042969 201.589844 180.863281 C 200.261719 179.429688 198.773438 177.78125 197.765625 175.722656 C 196.851562 173.847656 196.316406 172.128906 196.054688 170.472656 C 193.847656 169.640625 191.113281 169.277344 188.414062 168.921875 C 186.308594 168.644531 184.222656 168.371094 182.40625 167.878906 C 181.207031 167.550781 180 167.195312 178.789062 166.808594 C 177.746094 166.476562 176.6875 166.117188 175.613281 165.734375 C 175.75 166.0625 175.886719 166.382812 176.019531 166.695312 C 179.269531 171.859375 182.90625 175.546875 186.933594 177.757812 C 191.1875 180.089844 193.773438 179.765625 197.050781 184.496094 C 198.578125 186.703125 199.679688 189.476562 200.351562 192.8125 C 200.90625 196.234375 201.5 201.488281 202.136719 208.566406 L 201.238281 208.566406 L 200.054688 196.113281 C 199.800781 194.164062 199.398438 192.480469 198.855469 191.050781 C 198.3125 189.632812 197.625 188.472656 196.796875 187.566406 C 194.234375 184.761719 191.742188 183.550781 189.265625 182.347656 C 184.613281 180.085938 180.003906 177.84375 174.96875 165.417969 L 174.769531 164.917969 L 175.273438 165.101562 C 176.492188 165.546875 177.714844 165.964844 178.929688 166.351562 C 180.144531 166.738281 181.34375 167.09375 182.53125 167.414062 L 182.609375 167.4375 C 181.015625 164.5625 180.804688 161.363281 181.140625 158.019531 C 180.113281 157.675781 178.980469 157.515625 177.816406 157.347656 C 174.582031 156.886719 171.117188 156.394531 168.832031 152.011719 C 167.863281 150.160156 167.199219 147.800781 166.839844 144.941406 C 166.480469 142.09375 166.421875 138.742188 166.660156 134.894531 L 166.679688 134.605469 L 166.957031 134.679688 C 167.792969 134.898438 168.609375 135.128906 169.402344 135.382812 " fill-opacity="1" fill-rule="evenodd"/></g></svg>