<svg xmlns="http://www.w3.org/2000/svg" xmlns:xlink="http://www.w3.org/1999/xlink" width="559" zoomAndPan="magnify" viewBox="0 0 419.25 297.75" height="397" preserveAspectRatio="xMidYMid meet" version="1.0"><defs><clipPath id="id1"><path d="M 188 171 L 230 171 L 230 208.558594 L 188 208.558594 Z M 188 171 " clip-rule="nonzero"/></clipPath><clipPath id="id2"><path d="M 159 89.378906 L 260 89.378906 L 260 170 L 159 170 Z M 159 89.378906 " clip-rule="nonzero"/></clipPath></defs><g clip-path="url(#id1)"><path fill="rgb(21.569824%, 27.839661%, 30.979919%)" d="M 229.144531 171.925781 C 228.597656 184.09375 225.464844 196.308594 220.546875 208.554688 L 198.085938 208.554688 C 192.917969 196.179688 189.566406 183.953125 188.9375 171.925781 Z M 229.144531 171.925781 " fill-opacity="1" fill-rule="nonzero"/></g><path fill="rgb(72.938538%, 40.779114%, 78.42865%)" d="M 179.832031 156.085938 C 173.28125 153.125 171.09375 150.238281 171.117188 149.628906 C 171.15625 148.585938 173.945312 148.335938 178.242188 150.308594 C 186.316406 154.011719 192.585938 159.503906 193.066406 160.214844 C 193.570312 160.953125 186.378906 159.046875 179.832031 156.085938 Z M 199.773438 156.414062 C 199.675781 151.886719 197.757812 148.726562 196.597656 149.53125 C 195.4375 150.335938 195.210938 153.476562 195.488281 156.140625 C 195.761719 158.800781 196.40625 164.558594 197.035156 165.390625 C 197.660156 166.183594 199.867188 160.941406 199.773438 156.414062 Z M 202.425781 133.988281 C 202.121094 133.015625 196.804688 124.621094 188.863281 117.722656 C 184.632812 114.039062 181.394531 113.429688 181.015625 114.621094 C 180.789062 115.324219 182.335938 119.378906 188.773438 124.960938 C 195.210938 130.542969 202.746094 134.957031 202.425781 133.988281 Z M 201.75 112.859375 C 201.75 108.21875 200.65625 101.953125 198.441406 102.4375 C 197.164062 102.71875 196.988281 109.003906 196.988281 112.996094 C 196.988281 118.949219 197.597656 122.46875 198.183594 123.335938 C 198.78125 124.253906 201.75 117.503906 201.75 112.859375 Z M 221.757812 140.125 C 221.941406 139.140625 221.40625 129.566406 218.121094 120.292969 C 216.375 115.34375 214.074219 113.523438 213.25 114.433594 C 212.761719 114.96875 212.210938 119.1875 214.875 126.699219 C 217.535156 134.210938 221.585938 141.117188 221.757812 140.125 Z M 230.488281 121.050781 C 232.527344 116.917969 234.410156 110.90625 232.4375 110.46875 C 231.300781 110.210938 228.402344 115.738281 226.652344 119.292969 C 224.039062 124.59375 222.976562 127.964844 223.0625 128.96875 C 223.132812 130.023438 228.453125 125.183594 230.488281 121.050781 Z M 239.554688 155.496094 C 245.449219 152.683594 247.65625 149.636719 247.714844 148.957031 C 247.8125 147.796875 245.488281 147.320312 241.621094 149.191406 C 234.34375 152.71875 228.367188 158.363281 227.875 159.113281 C 227.351562 159.898438 233.65625 158.304688 239.554688 155.496094 Z M 223.875 164.574219 C 224.507812 163.695312 225.777344 157.347656 226.34375 154.410156 C 226.910156 151.472656 227.113281 147.96875 226.238281 146.988281 C 225.359375 146.011719 223.34375 149.382812 222.691406 154.402344 C 222.042969 159.421875 223.25 165.410156 223.875 164.574219 Z M 223.875 164.574219 " fill-opacity="1" fill-rule="nonzero"/><g clip-path="url(#id2)"><path fill="rgb(41.178894%, 29.798889%, 82.749939%)" d="M 168.910156 140.847656 C 161.070312 135.84375 158.914062 132.910156 159.253906 132.101562 C 159.59375 131.292969 164.460938 130.832031 171.546875 135.238281 C 180.390625 140.738281 182.144531 147.90625 182.144531 147.90625 C 182.144531 147.90625 172.171875 142.933594 168.910156 140.847656 Z M 188.8125 143.875 C 188.132812 140.097656 185.410156 136.78125 184.378906 137.207031 C 183.351562 137.636719 184.277344 141.421875 184.851562 144.695312 C 185.699219 149.539062 186.707031 152.328125 187.332031 152.953125 C 187.964844 153.574219 189.492188 147.652344 188.8125 143.875 Z M 198.578125 168.039062 C 198.410156 167.246094 194.277344 164.753906 189.8125 163.03125 C 184.050781 160.816406 181.539062 161.230469 181.570312 162.941406 C 181.601562 164.652344 184.191406 167.195312 189.09375 168.460938 C 196.140625 170.289062 198.746094 168.820312 198.578125 168.039062 Z M 194.074219 116.160156 C 194.074219 116.160156 194.421875 107.285156 186.195312 98.066406 C 179.601562 90.660156 173.929688 89.628906 173.289062 90.445312 C 172.652344 91.261719 174.125 95.367188 181.332031 103.703125 C 184.425781 107.175781 194.074219 116.160156 194.074219 116.160156 Z M 208.496094 123.832031 C 209.855469 118.558594 208.710938 114.335938 207.136719 114.84375 C 205.558594 115.351562 204.28125 118.910156 203.726562 122.082031 C 203.167969 125.257812 202.015625 132.175781 202.460938 133.292969 C 202.960938 134.421875 207.132812 129.105469 208.496094 123.832031 Z M 206.835938 149.589844 C 207 148.640625 203.386719 143.910156 199.566406 139.734375 C 195.742188 135.558594 190.171875 131.535156 189.464844 133.460938 C 188.753906 135.382812 190.855469 138.90625 195.3125 142.890625 C 200.265625 147.304688 206.679688 150.550781 206.835938 149.589844 Z M 222.949219 120.960938 C 222.949219 120.960938 227.121094 113.199219 224.632812 101.742188 C 222.644531 92.546875 218.59375 89.386719 217.722656 89.863281 C 216.859375 90.339844 216.226562 94.574219 218.296875 104.839844 C 219.226562 109.152344 222.949219 120.960938 222.949219 120.960938 Z M 231.035156 133.480469 C 234.429688 129.324219 235.375 125.117188 233.898438 124.945312 C 232.425781 124.777344 229.847656 127.4375 228.011719 130.042969 C 226.175781 132.648438 222.226562 138.355469 222.085938 139.523438 C 221.996094 140.722656 227.640625 137.640625 231.035156 133.480469 Z M 218.414062 155.757812 C 218.964844 154.976562 218.167969 149.34375 216.964844 144.117188 C 215.761719 138.890625 213.101562 133.109375 211.691406 134.539062 C 210.285156 135.972656 210.40625 139.941406 212.199219 145.246094 C 214.199219 151.128906 217.871094 156.550781 218.414062 155.757812 Z M 250.679688 139.367188 C 257.921875 134.378906 260.105469 131.277344 259.925781 130.359375 C 259.742188 129.433594 255.691406 128.570312 249.160156 132.945312 C 241.011719 138.410156 238.632812 146.242188 238.632812 146.242188 C 238.632812 146.242188 247.667969 141.445312 250.679688 139.367188 Z M 233.621094 151.46875 C 234.226562 150.820312 235.429688 147.796875 236.75 142.476562 C 237.648438 138.878906 238.90625 134.746094 238.089844 134.195312 C 237.273438 133.644531 234.558594 137.132812 233.511719 141.277344 C 232.464844 145.421875 233.007812 152.113281 233.621094 151.46875 Z M 230.1875 168.570312 C 234.480469 167.515625 236.984375 164.882812 237.226562 162.988281 C 237.464844 161.089844 235.402344 160.449219 230.261719 162.488281 C 226.277344 164.070312 222.484375 166.539062 222.238281 167.40625 C 222 168.261719 224.015625 170.082031 230.1875 168.570312 Z M 230.1875 168.570312 " fill-opacity="1" fill-rule="nonzero"/></g><path fill="rgb(14.898682%, 19.60907%, 21.958923%)" d="M 201.507812 171.925781 L 199.9375 171.925781 C 199.386719 170.824219 198.804688 169.734375 198.199219 168.664062 C 197.8125 167.976562 197.414062 167.296875 197.007812 166.625 C 195.707031 164.476562 194.304688 162.390625 192.796875 160.371094 C 192.597656 160.097656 192.394531 159.828125 192.1875 159.558594 C 191.996094 159.3125 191.808594 159.070312 191.617188 158.828125 C 188.441406 154.785156 184.96875 150.976562 181.222656 147.441406 C 180.578125 146.832031 179.921875 146.230469 179.257812 145.632812 C 174.582031 141.3125 169.445312 137.496094 163.933594 134.246094 C 163.910156 134.222656 163.90625 134.183594 163.933594 134.15625 C 163.945312 134.140625 163.960938 134.136719 163.976562 134.136719 C 169.59375 137.234375 174.859375 140.917969 179.683594 145.117188 C 180.417969 145.753906 181.148438 146.394531 181.863281 147.050781 C 183.496094 148.53125 185.078125 150.066406 186.613281 151.648438 C 186.976562 152.023438 187.335938 152.398438 187.695312 152.78125 C 189.550781 154.746094 191.324219 156.785156 193.019531 158.890625 C 194.226562 160.347656 195.375 161.855469 196.453125 163.40625 L 196.453125 163.410156 C 196.855469 163.976562 197.242188 164.550781 197.617188 165.132812 C 199.046875 167.320312 200.347656 169.585938 201.507812 171.925781 Z M 208.84375 154.574219 C 207.96875 147.222656 206.066406 140.03125 203.195312 133.214844 C 203.082031 132.945312 202.96875 132.671875 202.851562 132.40625 C 202.703125 132.046875 202.554688 131.695312 202.402344 131.339844 C 201.234375 128.597656 199.976562 125.894531 198.617188 123.246094 C 198.265625 122.550781 197.902344 121.863281 197.535156 121.175781 C 196.429688 119.101562 195.261719 117.058594 194.039062 115.050781 C 193.449219 114.074219 192.839844 113.109375 192.222656 112.144531 C 188.121094 105.710938 183.347656 99.734375 177.976562 94.320312 C 177.949219 94.289062 177.894531 94.289062 177.867188 94.320312 C 177.832031 94.355469 177.832031 94.410156 177.867188 94.445312 C 183.042969 99.988281 187.621094 106.066406 191.519531 112.582031 C 192.070312 113.472656 192.605469 114.371094 193.132812 115.273438 C 196.234375 120.613281 198.945312 126.171875 201.234375 131.910156 C 201.367188 132.238281 201.496094 132.570312 201.625 132.898438 C 201.777344 133.289062 201.925781 133.679688 202.066406 134.074219 C 203.730469 138.539062 205.050781 143.117188 206.023438 147.777344 C 206.160156 148.433594 206.289062 149.09375 206.410156 149.753906 C 206.722656 151.414062 206.988281 153.082031 207.207031 154.757812 C 208.027344 160.476562 207.871094 166.28125 206.757812 171.925781 L 207.550781 171.925781 C 209.128906 166.339844 209.378906 160.355469 208.84375 154.574219 Z M 223.40625 119.953125 C 223.367188 118.851562 223.308594 117.75 223.238281 116.65625 C 222.804688 109.308594 221.632812 102.101562 219.746094 95.164062 C 219.734375 95.125 219.695312 95.101562 219.65625 95.121094 C 219.613281 95.140625 219.589844 95.1875 219.601562 95.230469 C 221.28125 102.207031 222.25 109.425781 222.492188 116.765625 C 222.535156 117.773438 222.566406 118.785156 222.585938 119.796875 C 222.710938 125.769531 222.417969 131.789062 221.722656 137.804688 C 221.683594 138.148438 221.640625 138.496094 221.597656 138.839844 C 221.546875 139.246094 221.496094 139.65625 221.4375 140.058594 C 220.796875 144.6875 219.839844 149.285156 218.566406 153.8125 C 218.386719 154.457031 218.199219 155.097656 218.003906 155.734375 C 217.527344 157.335938 217.003906 158.925781 216.441406 160.503906 C 215.070312 164.507812 213.25 168.34375 211.039062 171.925781 L 212.195312 171.925781 C 214.46875 168.523438 216.328125 164.785156 217.824219 160.988281 C 220.355469 154.09375 222 146.945312 222.710938 139.738281 C 222.738281 139.453125 222.765625 139.167969 222.789062 138.882812 C 222.828125 138.507812 222.867188 138.132812 222.902344 137.757812 C 223.179688 134.859375 223.359375 131.957031 223.449219 129.058594 C 223.46875 128.300781 223.488281 127.542969 223.496094 126.785156 C 223.527344 124.503906 223.496094 122.222656 223.40625 119.953125 Z M 255.71875 132.296875 C 255.710938 132.28125 255.699219 132.273438 255.6875 132.269531 C 250.558594 135.304688 245.65625 139.011719 241.058594 143.324219 C 240.355469 143.972656 239.660156 144.636719 238.972656 145.3125 C 237.410156 146.84375 235.878906 148.429688 234.390625 150.074219 C 234.035156 150.464844 233.683594 150.859375 233.339844 151.253906 C 231.527344 153.300781 229.773438 155.433594 228.082031 157.644531 C 226.878906 159.179688 225.722656 160.769531 224.617188 162.414062 C 224.617188 162.414062 224.613281 162.414062 224.617188 162.417969 C 224.207031 163.019531 223.808594 163.628906 223.417969 164.242188 C 221.855469 166.699219 220.402344 169.265625 219.074219 171.925781 L 220.449219 171.925781 C 221.101562 170.640625 221.78125 169.371094 222.484375 168.128906 C 222.898438 167.390625 223.316406 166.664062 223.75 165.945312 C 225.117188 163.652344 226.5625 161.4375 228.082031 159.304688 C 228.285156 159.015625 228.492188 158.734375 228.699219 158.449219 C 228.886719 158.191406 229.078125 157.9375 229.269531 157.6875 C 232.453125 153.425781 235.863281 149.445312 239.472656 145.789062 C 240.09375 145.160156 240.71875 144.542969 241.351562 143.929688 C 245.839844 139.472656 250.652344 135.605469 255.707031 132.398438 C 255.730469 132.375 255.738281 132.328125 255.71875 132.296875 Z M 255.71875 132.296875 " fill-opacity="1" fill-rule="nonzero"/></svg>