<?xml version="1.0" encoding="UTF-8" standalone="no"?>
<svg
   width="161.2946"
   zoomAndPan="magnify"
   viewBox="0 0 120.97095 119.03452"
   height="158.71269"
   preserveAspectRatio="xMidYMid meet"
   version="1.0"
   id="svg31"
   sodipodi:docname="6.svg"
   inkscape:version="1.1.1 (3bf5ae0d25, 2021-09-20)"
   xmlns:inkscape="http://www.inkscape.org/namespaces/inkscape"
   xmlns:sodipodi="http://sodipodi.sourceforge.net/DTD/sodipodi-0.dtd"
   xmlns="http://www.w3.org/2000/svg"
   xmlns:svg="http://www.w3.org/2000/svg">
  <sodipodi:namedview
     id="namedview33"
     pagecolor="#ffffff"
     bordercolor="#666666"
     borderopacity="1.0"
     inkscape:pageshadow="2"
     inkscape:pageopacity="0.0"
     inkscape:pagecheckerboard="0"
     showgrid="false"
     inkscape:zoom="2.6538768"
     inkscape:cx="5.0868977"
     inkscape:cy="100.04232"
     inkscape:window-width="1920"
     inkscape:window-height="1001"
     inkscape:window-x="-9"
     inkscape:window-y="-9"
     inkscape:window-maximized="1"
     inkscape:current-layer="svg31"
     fit-margin-top="0"
     fit-margin-left="0"
     fit-margin-right="0"
     fit-margin-bottom="0" />
  <defs
     id="defs11">
    <clipPath
       id="id1">
      <path
         d="M 149,89.378906 H 270.3125 V 208.55859 H 149 Z m 0,0"
         clip-rule="nonzero"
         id="path2" />
    </clipPath>
    <clipPath
       id="id2">
      <path
         d="M 160.39844,92.097656 H 270.22656 V 208.46094 H 160.39844 Z m 0,0"
         clip-rule="nonzero"
         id="path5" />
    </clipPath>
    <clipPath
       id="id3">
      <path
         d="m 162,89.378906 h 16 V 148 h -16 z m 0,0"
         clip-rule="nonzero"
         id="path8" />
    </clipPath>
  </defs>
  <g
     id="g2355"
     transform="translate(-149.25771,-89.427129)">
    <g
       clip-path="url(#id1)"
       id="g15">
      <path
         fill="#f8a477"
         d="m 203.62891,141.44141 c -1.1875,-0.3086 -2.39454,-0.63282 -3.60547,-0.8711 -1.56641,-0.30859 -3.14453,-0.47265 -4.72266,-0.26953 -1.37109,0.17578 -2.69141,0.62891 -4.05469,0.84375 -1.625,0.26172 -3.29687,0.16406 -4.89062,-0.24609 -0.73047,-0.1875 -1.44531,-0.44141 -2.13281,-0.75391 v -0.004 c -0.55469,-0.7539 -0.90235,-1.64062 -1.21485,-2.52343 -1.80469,-5.07813 -2.70703,-10.47656 -2.65234,-15.86328 0.0195,-1.91407 0.15625,-3.83985 -0.082,-5.74219 -0.33985,-2.74609 -1.44532,-5.32422 -2.22266,-7.98047 -0.38281,-1.27734 -0.67969,-2.61328 -0.78125,-3.94922 3.63281,5.7461 10.85547,8.83594 14.58594,14.67188 0.76562,1.19531 1.36719,2.48437 2.125,3.68359 1.16015,1.84766 2.67187,3.44531 3.88672,5.25391 1.71484,2.55078 2.80859,5.45703 4.2539,8.16796 1.0625,1.98829 2.37891,3.92188 4.08985,5.33985 -0.32422,0.21875 -0.67578,0.3789 -1.07032,0.42969 -0.11328,0.0156 -0.22265,0.0195 -0.33203,0.0156 -0.39453,-0.004 -0.78906,-0.10156 -1.17968,-0.20312 z m 65.11718,58.78906 c -0.28906,-0.42188 -0.62109,-0.80469 -0.98047,-1.16406 -0.64843,-0.66797 -1.38281,-1.26563 -2.05859,-1.90235 -3.38672,-3.17969 -5.51953,-7.45703 -8.55469,-10.97265 -1.0664,-1.23829 -2.24609,-2.37891 -3.2539,-3.66407 -0.94922,-1.21093 -1.73828,-2.54297 -2.58594,-3.82812 C 243.76172,167.19141 231.73828,159 224.46875,147.43359 c -0.48438,-4.57422 -2.50781,-8.95312 -5.36719,-12.58593 -5.4375,-6.89844 -13.66406,-11.16797 -19.0664,-18.09375 -2.89063,-3.69922 -4.98829,-8.16797 -8.78907,-10.92578 -2.26562,-1.64063 -4.96484,-2.54297 -7.51953,-3.6836 -1.96875,-0.87109 -3.9375,-1.96094 -5.39844,-3.515624 0.45313,-0.988281 0.90625,-1.976562 0.82813,-3.042968 -0.15625,-2.21875 -2.73438,-3.671876 -4.91797,-3.257813 -0.19141,0.03516 -0.375,0.08594 -0.5625,0.144531 -0.14062,-0.02344 -0.3125,0.03125 -0.38672,0.148438 -0.15234,0.07031 -0.30078,0.144531 -0.4414,0.238281 -0.85547,-0.609375 -1.90235,-1.007813 -2.92579,-1.289063 -1.71093,-0.460937 -3.51562,-0.703124 -5.05078,-1.597656 -0.35547,-0.207031 -0.70312,-0.453125 -1.10937,-0.527344 -0.40625,-0.07422 -0.89453,0.07813 -1.03906,0.46875 -0.15235,0.40625 0.1289,0.839844 0.38671,1.1875 0.94532,1.238282 1.89063,2.480469 2.83594,3.71875 0.51172,0.667969 1.03125,1.351563 1.74219,1.808594 0.73047,0.472656 1.61719,0.675782 2.33203,1.179688 1.17969,0.832031 1.80859,2.417966 2.88672,3.273436 0.0898,1.21485 0.0352,2.45313 0.0156,3.67578 -0.125,8.54297 1.70704,17.01563 1.76172,25.56641 0.0195,3.32422 -0.23047,6.69922 0.51172,9.94922 0.33594,1.47656 0.8711,2.91015 1.05078,4.41797 0.125,1.13281 0.0234,2.34375 -0.47656,3.34375 -0.0391,0.0781 -0.0742,0.14843 -0.11719,0.21875 -0.0117,-0.0508 -0.0312,-0.0937 -0.0547,-0.13672 -0.0742,-0.17188 -0.16797,-0.33594 -0.28907,-0.48438 -0.53515,-0.6289 -1.42578,-0.78906 -2.24609,-0.86328 -0.91016,-0.0742 -1.82031,-0.0859 -2.72656,-0.0312 -0.0898,-0.33594 -0.21094,-0.66016 -0.36328,-0.97266 -0.0586,-0.12109 -0.13282,-0.24609 -0.2461,-0.32421 -0.21484,-0.14063 -0.51172,-0.0586 -0.74609,0.043 -0.86328,0.39844 -1.5625,1.05079 -2.1875,1.78125 -0.83203,0.19922 -1.64844,0.45704 -2.44531,0.76563 l -0.0117,-0.0234 c -1.96094,-1.14453 -4.67188,-0.60547 -6.4375,0.78906 -1.76172,1.39063 -2.73047,3.46485 -3.36328,5.52735 -0.63672,2.0664 -0.9961,4.20703 -1.83985,6.20703 -0.71875,1.70703 -1.77734,3.28125 -2.53515,4.98047 -0.76172,1.6914 -1.21485,3.60156 -0.64844,5.35937 0.6875,2.15235 2.7539,3.70313 3.6914,5.76953 0.77735,1.73047 0.71094,3.67969 1.19532,5.5 0.48828,1.81641 1.88672,3.70704 3.91015,3.77735 2.57422,0.0898 4.75782,-2.79297 7.20703,-2.05078 1.13282,0.34375 1.86719,1.38672 2.96094,1.82422 1.27344,0.51171 2.80469,0.082 3.875,-0.73438 1.07031,-0.81641 1.77735,-1.95703 2.46485,-3.07422 2.04687,-3.33203 4.16015,-7.17187 2.88671,-10.8164 -0.5625,-1.61329 -1.76562,-3.04688 -1.95703,-4.73438 -0.21484,-1.95312 0.96094,-3.77344 1.54688,-5.66016 0.28515,-0.90234 0.34375,-1.96875 0.10547,-2.89453 0.0547,0.004 0.10937,0.0156 0.16406,0.0273 0.61719,0.14843 1.03906,0.70703 1.37109,1.25 0.10938,0.17578 0.21094,0.35547 0.3086,0.53515 0.13281,0.23828 0.25781,0.48438 0.375,0.73438 0.10156,0.21875 0.19531,0.4375 0.28515,0.66015 -0.34375,1.37891 -0.28906,2.875 -0.0742,4.29688 0.45704,3.02734 0.99219,5.57031 0.83985,8.66406 -0.16406,3.22656 -0.56641,6.4336 -1.17578,9.60156 -0.70313,3.66016 -1.64063,7.21875 -2.19922,10.90235 -0.39063,2.59375 -0.82422,5.20703 -1.57031,7.72656 -0.55469,0.75 -1.38672,1.32031 -2.26563,1.67188 -1.34766,0.53906 -2.82422,0.66015 -4.25781,0.88671 -1.4375,0.23047 -2.91016,0.60547 -4.01563,1.55469 -0.11718,0.0977 -0.23828,0.22656 -0.23828,0.38672 0.008,0.25781 0.32813,0.37109 0.57813,0.41016 3.64843,0.5664 7.42187,0.30859 10.95703,-0.73828 3.6289,-4.9336 6.23437,-10.63282 7.58594,-16.61719 0.85937,-3.78906 1.22265,-7.69141 2.32812,-11.41016 0.49219,-1.66015 1.13672,-3.29297 1.33984,-5.01562 0.21094,-1.80469 -0.0703,-3.64063 0.13672,-5.44532 0.1211,-1.03906 0.41407,-2.0664 0.85157,-3.01562 0.0273,-0.0703 0.0586,-0.13672 0.0898,-0.19922 1.17187,0.0977 2.40234,-0.21094 3.49219,-0.68359 1.58984,-0.69532 3.01953,-1.72266 4.61328,-2.40625 2.05469,-0.88282 4.28125,-1.15235 6.51953,-1.01563 1.10156,0.0586 2.20703,0.22266 3.29687,0.46094 0.85938,0.1875 1.70704,0.41797 2.53907,0.6875 2.07031,0.66406 4.14453,1.53125 6.3164,1.46875 1.08594,-0.0312 2.17578,-0.29688 3.25782,-0.15625 1.28125,0.16406 2.41015,0.88281 3.48828,1.59375 5.83203,3.85156 11.46875,8.00391 16.875,12.43359 1.04297,0.85157 2.08203,1.72266 2.92968,2.76953 1.10157,1.35938 1.83204,2.96875 2.71485,4.48047 3.5039,6.00391 9.27734,10.29297 15.10937,14.06641 1.20313,0.78516 2.5,1.68359 3.41016,2.77734 0.71484,0.85938 1.19922,1.83985 1.20703,2.96875 0.0117,1.20703 -0.52734,2.30469 -1.19141,3.32422 1.36329,1.10938 3.5586,1.12891 5.42579,0.98438 0.34375,-0.0234 0.71093,-0.0586 0.97656,-0.28125 0.3789,-0.30469 0.42578,-0.85157 0.43359,-1.33985 0.0274,-2.26953 -0.19922,-4.66797 -1.48047,-6.54297"
         fill-opacity="1"
         fill-rule="nonzero"
         id="path13" />
    </g>
    <path
       fill="#6d856b"
       d="m 265.70703,197.16406 c 0.67578,0.63672 1.41016,1.23438 2.05859,1.90235 -0.76953,0.11328 -1.53125,0.28515 -2.2539,0.58593 -0.80469,0.32422 -1.5625,0.82032 -2.13672,1.46875 -0.91016,-1.09375 -2.20703,-1.99218 -3.41016,-2.77734 -5.83203,-3.77344 -11.60547,-8.0625 -15.10937,-14.07031 -0.88281,-1.50782 -1.61328,-3.11719 -2.71485,-4.48047 -0.84765,-1.04688 -1.88671,-1.91797 -2.92968,-2.76953 -5.40625,-4.42969 -11.04297,-8.57813 -16.875,-12.42969 -1.07813,-0.71094 -2.20703,-1.42969 -3.48828,-1.59375 -1.08204,-0.14453 -2.17188,0.125 -3.25782,0.15625 -2.17187,0.0625 -4.24609,-0.80859 -6.3164,-1.46875 -0.83203,-0.26953 -1.67969,-0.5 -2.53907,-0.69141 1.28516,-6.44922 0.60938,-13.28515 -1.92578,-19.35156 0.10938,0.004 0.21875,0 0.33203,-0.0156 0.39454,-0.0508 0.7461,-0.21094 1.07032,-0.42969 -1.71094,-1.41797 -3.02735,-3.35156 -4.08985,-5.33985 -1.44531,-2.71093 -2.53906,-5.61718 -4.2539,-8.16796 -1.21485,-1.8086 -2.72657,-3.40625 -3.88672,-5.25391 -0.75781,-1.19922 -1.35938,-2.48828 -2.125,-3.68359 -3.73047,-5.83594 -10.95313,-8.92578 -14.58594,-14.67188 -0.10937,-1.42969 0.0117,-2.85156 0.51172,-4.195311 0.15625,-0.425781 0.35156,-0.839844 0.54687,-1.257813 1.46094,1.554684 3.42969,2.644534 5.39844,3.515624 2.55469,1.14063 5.25391,2.04297 7.51953,3.6836 3.80078,2.75781 5.89844,7.22656 8.78907,10.92578 5.40234,6.92578 13.6289,11.19531 19.0664,18.09375 2.85938,3.63281 4.88281,8.01171 5.36719,12.58593 7.26953,11.56641 19.29297,19.75782 26.84375,31.26563 0.84766,1.28515 1.63672,2.61719 2.58594,3.82812 1.00781,1.28516 2.1875,2.42578 3.2539,3.66407 3.03516,3.51562 5.16797,7.79296 8.55469,10.97265"
       fill-opacity="1"
       fill-rule="nonzero"
       id="path17" />
    <path
       fill="#5ca8a3"
       d="m 202.92187,155.42187 c 0.46875,1.65625 0.64454,3.39454 0.51563,5.11329 -2.23828,-0.13672 -4.46484,0.13281 -6.51953,1.01953 -1.59375,0.68359 -3.02344,1.71093 -4.61328,2.40234 -1.08985,0.47656 -2.32032,0.78516 -3.49219,0.6875 -0.0312,0.0625 -0.0625,0.12891 -0.0898,0.19922 -0.1211,-0.0898 -0.24219,-0.17578 -0.35547,-0.26172 -1.14063,-0.84375 -2.19141,-1.85156 -3.52344,-2.29687 -0.91797,-0.3125 -1.92188,-0.33594 -2.82031,-0.69141 -0.69922,-0.27734 -1.32422,-0.75 -1.98438,-1.08203 -0.14062,-0.0703 -0.28125,-0.13281 -0.42187,-0.1875 -0.11719,-0.25 -0.24219,-0.4961 -0.375,-0.73438 0.375,-0.0391 0.75781,0.008 1.13281,0.0937 0.56641,0.13282 1.12891,0.36328 1.66797,0.57032 1.05859,0.40625 2.30859,0.72656 3.26562,0.12109 0.53125,-0.33594 0.8711,-0.89063 1.1836,-1.43359 0.92578,-1.58204 1.8164,-3.17969 2.68359,-4.79297 0.3125,-0.58203 0.63281,-1.19922 0.60547,-1.85938 -0.0469,-1.41015 -1.51563,-2.25 -2.64453,-3.09375 -0.99219,-0.74609 -1.875,-1.70703 -3.05469,-2.10547 -1.54297,-0.51953 -3.23437,0.0508 -4.70312,0.7461 -1.14063,0.54687 -2.28125,1.1914 -3.49219,1.48437 -0.0117,-0.0898 -0.0234,-0.18359 -0.0352,-0.27344 -0.043,-0.26953 -0.10156,-0.54296 -0.19922,-0.79296 0.043,-0.0742 0.0781,-0.14454 0.11719,-0.21875 1.58984,-0.74219 3.17969,-1.48438 4.77344,-2.22657 0.61328,-0.28125 1.22656,-0.57031 1.78125,-0.95703 1.29687,-0.89844 2.1875,-2.28515 3.35937,-3.33984 0.20313,-0.1875 0.42188,-0.36328 0.64844,-0.52735 l 0.0234,-0.0859 c 1.59375,0.41015 3.26562,0.50781 4.89062,0.24609 1.36328,-0.21484 2.6836,-0.66797 4.05469,-0.84375 1.57813,-0.20312 3.15625,-0.0391 4.72266,0.26953 1.14062,2.27735 0.36328,5.23438 0.67968,7.86719 0.29297,2.42969 1.55079,4.63281 2.21875,6.98437"
       fill-opacity="1"
       fill-rule="nonzero"
       id="path19" />
    <g
       clip-path="url(#id2)"
       id="g23">
      <path
         fill="#f8a477"
         d="m 172.90625,101.08203 c 0.0898,1.21485 0.0352,2.45313 0.0156,3.67578 -0.125,8.54297 1.70704,17.01563 1.76172,25.56641 0.0195,3.32422 -0.23047,6.69922 0.51172,9.94922 0.33594,1.47656 0.8711,2.91015 1.05078,4.41797 0.125,1.13281 0.0234,2.34375 -0.47656,3.34375 1.58984,-0.74219 3.17969,-1.48438 4.77344,-2.22266 0.61328,-0.28516 1.22656,-0.57422 1.78125,-0.96094 1.29687,-0.89844 2.1875,-2.28515 3.35937,-3.33594 0.20313,-0.1914 0.42188,-0.36328 0.64844,-0.53125 l 0.0234,-0.082 c -0.73047,-0.1875 -1.44531,-0.44531 -2.13281,-0.75781 v -0.004 c -0.55469,-0.7539 -0.90235,-1.63671 -1.21485,-2.52343 -1.80469,-5.07813 -2.70703,-10.47266 -2.65234,-15.86328 0.0195,-1.91407 0.15625,-3.83985 -0.082,-5.74219 -0.33985,-2.74609 -1.44532,-5.32422 -2.22266,-7.97656 -0.38281,-1.28125 -0.67969,-2.61719 -0.78125,-3.95313 -0.10937,-1.42969 0.0117,-2.85156 0.51172,-4.195311 0.15625,-0.421875 0.35156,-0.839844 0.54687,-1.257813 0.45313,-0.984375 0.90625,-1.972656 0.82813,-3.042968 -0.15625,-2.21875 -2.73438,-3.671876 -4.91797,-3.257813 -0.48828,0.08984 -0.97266,0.261719 -1.39062,0.53125 -0.27344,0.179687 -0.51954,0.398437 -0.71094,0.667969 -1.12891,1.570312 -0.0547,3.695312 0.44531,5.5625 0.17578,0.65625 0.26953,1.320316 0.32422,1.996096 z m 11.9375,61.20313 c -0.91797,-0.3125 -1.92188,-0.33204 -2.82031,-0.69141 -0.69922,-0.27734 -1.32422,-0.75 -1.98438,-1.08203 -0.14062,-0.0703 -0.28125,-0.13281 -0.42187,-0.1875 0.10156,0.21875 0.19531,0.4375 0.28515,0.66015 -0.34375,1.37891 -0.28906,2.875 -0.0742,4.29688 0.45704,3.02734 0.99219,5.57031 0.83985,8.66406 -0.16406,3.22656 -0.56641,6.4336 -1.17578,9.60156 -0.70313,3.66016 -1.64063,7.21875 -2.19922,10.90235 -0.39063,2.59375 -0.82422,5.20703 -1.57031,7.72656 -0.55469,0.75 -1.38672,1.32031 -2.26563,1.67188 -1.34766,0.53906 -2.82422,0.66015 -4.25781,0.88281 -1.4375,0.23047 -2.91016,0.60937 -4.01563,1.55859 -0.11718,0.0977 -0.23828,0.22656 -0.23828,0.38672 0.008,0.25781 0.32813,0.37109 0.57813,0.41016 3.64843,0.5664 7.42187,0.30859 10.95703,-0.73828 3.6289,-4.9375 6.23437,-10.63282 7.58594,-16.61719 0.85937,-3.78906 1.22265,-7.69141 2.32812,-11.41016 0.49219,-1.66015 1.13672,-3.29687 1.33984,-5.01562 0.21094,-1.80469 -0.0703,-3.64063 0.13672,-5.44922 0.1211,-1.03516 0.41407,-2.0625 0.85157,-3.01172 -0.1211,-0.0898 -0.24219,-0.17578 -0.35547,-0.26172 -1.14063,-0.83984 -2.19141,-1.85156 -3.52344,-2.29687 z m 2.29297,-13.08985 c -0.99219,-0.74609 -1.875,-1.70703 -3.05469,-2.10547 -1.54297,-0.51562 -3.23437,0.0508 -4.70312,0.7461 -1.14063,0.54687 -2.28125,1.1914 -3.49219,1.48828 -0.0117,-0.0937 -0.0234,-0.1875 -0.0352,-0.27735 -0.043,-0.26953 -0.10156,-0.54296 -0.19922,-0.79296 -0.0117,-0.0508 -0.0312,-0.0937 -0.0547,-0.13672 -0.0742,-0.17188 -0.16797,-0.33985 -0.28907,-0.48438 -0.53515,-0.6289 -1.42578,-0.78906 -2.24609,-0.86328 -0.91016,-0.0742 -1.82031,-0.0859 -2.72656,-0.0312 -1.19532,0.0664 -2.38282,0.24219 -3.54297,0.52734 -0.83203,0.19922 -1.64844,0.45704 -2.44531,0.76172 -0.26954,0.10547 -0.52735,0.21485 -0.79297,0.32813 -1.21875,0.53906 -2.44922,1.26953 -3.125,2.39062 0.4375,1.44922 1.28906,2.75 2.33593,3.83594 0.48438,0.51172 1.01954,0.98047 1.62891,1.33594 0.5625,0.32422 1.17578,0.54297 1.76563,0.80469 0.66796,0.29296 1.3164,0.64062 1.93359,1.03515 -0.15625,0.42188 -0.27734,0.85547 -0.30078,1.29688 -0.0352,0.63672 0.17578,1.32031 0.68359,1.69922 0.84375,0.6289 2.06641,0.17187 2.875,-0.5 0.66406,-0.54688 1.21485,-1.23047 1.61328,-1.99219 1.21094,-0.15235 2.41797,-0.30078 3.62891,-0.45313 0.26562,-0.0312 0.53906,-0.0664 0.80469,-0.0312 0.0547,0.004 0.10937,0.0156 0.16406,0.0273 0.61719,0.14843 1.03906,0.70703 1.37109,1.25 0.10938,0.17187 0.21094,0.35547 0.3086,0.53515 0.375,-0.0391 0.75781,0.008 1.13281,0.0937 0.56641,0.13282 1.12891,0.36719 1.66797,0.57032 1.05859,0.40625 2.30859,0.72656 3.26562,0.12109 0.53125,-0.33594 0.8711,-0.89063 1.1836,-1.43359 0.92578,-1.57813 1.8164,-3.17969 2.68359,-4.79297 0.3125,-0.58203 0.63281,-1.19922 0.60547,-1.85938 -0.0469,-1.40625 -1.51563,-2.24609 -2.64453,-3.09375 z m 16.49219,-7.7539 c -1.1875,-0.3086 -2.39454,-0.63282 -3.60547,-0.8711 1.14062,2.27735 0.36328,5.23438 0.67968,7.86719 0.29297,2.42969 1.55079,4.63281 2.21875,6.98437 0.46875,1.65625 0.64454,3.39454 0.51563,5.11329 1.10156,0.0625 2.20703,0.22656 3.29687,0.46093 1.28516,-6.44922 0.60938,-13.28125 -1.92578,-19.35156 -0.39453,-0.004 -0.78906,-0.10156 -1.17968,-0.20312 z m 66.59765,65.33593 c -0.008,0.48828 -0.0547,1.03516 -0.43359,1.33985 -0.26563,0.22265 -0.63281,0.25781 -0.97656,0.28125 -1.86719,0.14453 -4.0625,0.12109 -5.42579,-0.98438 0.66407,-1.02344 1.20313,-2.11719 1.19141,-3.32422 -0.008,-1.1289 -0.49219,-2.10937 -1.20703,-2.96875 0.57422,-0.64453 1.33203,-1.14453 2.13672,-1.46875 0.72265,-0.30078 1.48437,-0.47265 2.2539,-0.58593 0.35938,0.35937 0.69141,0.74218 0.98047,1.16406 1.28125,1.8789 1.50782,4.27734 1.48047,6.54687"
         fill-opacity="1"
         fill-rule="nonzero"
         id="path21" />
    </g>
    <path
       fill="#29201f"
       d="m 166.29687,151.37891 c 0.6875,-0.20313 1.16407,-0.64844 1.0625,-0.98438 -0.10156,-0.33594 -0.73828,-0.44531 -1.42968,-0.23828 -0.6875,0.20703 -1.16407,0.64844 -1.0625,0.98828 0.10156,0.33594 0.74218,0.44141 1.42968,0.23438 z m -2.625,-1.875 c -1.21484,1.07812 -1.05078,2.98437 0.1875,3.97265 0.20704,0.16016 0.64063,-0.0273 0.4336,-0.29297 -0.78906,-1 -0.6875,-2.34375 -0.125,-3.41406 0.14844,-0.28516 -0.31641,-0.42187 -0.4961,-0.26562 z m 6.49219,2.49218 c 1.32813,-0.62109 2.33594,-1.9414 2.20703,-3.46093 -0.0234,-0.3086 -0.57031,-0.21875 -0.61328,0.0469 -0.21094,1.25391 -0.78125,2.36328 -1.91797,3.00391 -0.3164,0.17968 0.0469,0.53906 0.32422,0.41015 z m 4.65235,29.88672 c -0.6875,1.11328 -1.39454,2.25781 -2.46485,3.07031 -1.07031,0.82032 -2.59765,1.25 -3.875,0.73829 -1.09375,-0.4375 -1.82812,-1.48047 -2.96094,-1.82813 -2.44921,-0.73828 -4.63281,2.14453 -7.20703,2.05078 -2.02343,-0.0703 -3.42187,-1.95703 -3.91015,-3.77734 -0.48438,-1.82031 -0.41797,-3.76953 -1.19532,-5.4961 -0.9375,-2.0664 -3.0039,-3.61718 -3.6914,-5.76953 -0.56641,-1.75781 -0.11328,-3.66797 0.64844,-5.36328 0.75781,-1.69922 1.8164,-3.26953 2.53515,-4.98047 0.84375,-1.99609 1.20313,-4.13672 1.83985,-6.20312 0.63281,-2.06641 1.60156,-4.13672 3.36328,-5.52735 1.76562,-1.39843 4.47656,-1.93359 6.4375,-0.78906 l 0.0117,0.0195 c -0.26954,0.10547 -0.52735,0.21094 -0.79297,0.32813 -1.21875,0.53515 -2.44922,1.26953 -3.125,2.39062 0.4375,1.44922 1.28906,2.75 2.33593,3.83594 0.48438,0.51172 1.01954,0.97656 1.62891,1.33594 0.5625,0.32031 1.17578,0.53906 1.76563,0.80078 0.66796,0.29687 1.3164,0.64453 1.93359,1.03906 -0.15625,0.42188 -0.27734,0.85547 -0.30078,1.29688 -0.0352,0.63672 0.17578,1.32031 0.68359,1.69922 0.84375,0.6289 2.06641,0.17187 2.875,-0.5 0.66406,-0.54688 1.21485,-1.23438 1.61328,-1.99219 1.21094,-0.15235 2.41797,-0.30469 3.62891,-0.45313 0.26562,-0.0312 0.53906,-0.0664 0.80469,-0.0312 0.23828,0.92188 0.17968,1.98828 -0.10547,2.89453 -0.58594,1.88672 -1.76172,3.70704 -1.54688,5.66016 0.19141,1.6875 1.39453,3.12109 1.95703,4.73438 1.27344,3.64453 -0.83984,7.48437 -2.88671,10.8164"
       fill-opacity="1"
       fill-rule="nonzero"
       id="path25" />
    <g
       clip-path="url(#id3)"
       id="g29">
      <path
         fill="#dc8d67"
         d="m 177.63281,93.296875 c -0.0742,-0.121094 -0.28515,-0.128906 -0.35547,0.0039 -0.28515,0.527344 -0.11718,1.386719 -0.0937,1.964844 0.008,0.261719 0.53125,0.21875 0.53907,-0.02734 0.0156,-0.359375 0.0352,-0.71875 0.0391,-1.078125 0,-0.292968 0.0312,-0.605468 -0.12891,-0.863281 z m -2.33594,-0.8125 c -0.29296,0.707031 -0.17187,1.648437 -0.17578,2.398437 -0.004,0.335938 0.57813,0.339844 0.59766,0.02734 0.0469,-0.742187 0.25,-1.71875 -0.0156,-2.433594 -0.0547,-0.152343 -0.34375,-0.128906 -0.40625,0.0078 z m -2.01562,0.152344 c -0.44922,0.828125 -0.41406,1.878906 -0.0508,2.730469 0.0742,0.179687 0.38281,0.09375 0.38672,-0.08984 0.0156,-0.871094 0.17968,-1.695313 0.26172,-2.554688 0.0312,-0.335937 -0.47266,-0.320312 -0.59766,-0.08594 z m -3.55469,52.804691 c -0.21484,-0.14063 -0.51172,-0.0586 -0.74609,0.043 -0.86328,0.39844 -1.5625,1.05079 -2.1875,1.78125 1.16015,-0.28515 2.34765,-0.46093 3.54297,-0.52734 -0.0898,-0.33594 -0.21094,-0.66016 -0.36328,-0.97266 -0.0586,-0.12109 -0.13282,-0.24609 -0.2461,-0.32421 z m 2.85547,-46.351566 c 0.17578,0.65625 0.26953,1.320316 0.32422,1.996096 -1.07813,-0.85938 -1.70703,-2.445315 -2.88672,-3.277346 -0.71484,-0.503906 -1.60156,-0.703125 -2.33203,-1.175782 -0.71094,-0.460937 -1.23047,-1.144531 -1.74219,-1.8125 -0.94531,-1.238281 -1.89062,-2.480468 -2.83594,-3.71875 -0.25781,-0.347656 -0.53906,-0.78125 -0.38671,-1.1875 0.14453,-0.386718 0.63281,-0.542968 1.03906,-0.46875 0.40625,0.07422 0.7539,0.320313 1.10937,0.53125 1.53516,0.890626 3.33985,1.132813 5.05078,1.597657 1.02344,0.277343 2.07032,0.675781 2.92579,1.285156 -0.27344,0.179687 -0.51954,0.398437 -0.71094,0.667969 -1.12891,1.570312 -0.0547,3.691406 0.44531,5.5625"
         fill-opacity="1"
         fill-rule="nonzero"
         id="path27" />
    </g>
    <path
       style="fill:#5ca8a3;fill-opacity:1;stroke:none;stroke-width:0.75px;stroke-linecap:butt;stroke-linejoin:miter;stroke-opacity:1"
       d="m 206.73437,160.99609 -3.29687,-0.46094 c 0,0 -6.83121,-19.56681 -3.41406,-19.96484 0.0534,-0.0792 4.01688,1.01966 4.78516,1.07422 0.89925,0.0639 4.39196,14.60714 1.92577,19.35156 z"
       id="path883"
       sodipodi:nodetypes="cccsc" />
  </g>
</svg>
