<?xml version="1.0" encoding="UTF-8" standalone="no"?>
<svg
   width="559"
   zoomAndPan="magnify"
   viewBox="0 0 419.25 297.75"
   height="397"
   preserveAspectRatio="xMidYMid meet"
   version="1.0"
   id="svg38"
   sodipodi:docname="arms.svg"
   inkscape:version="1.1.1 (3bf5ae0d25, 2021-09-20)"
   xmlns:inkscape="http://www.inkscape.org/namespaces/inkscape"
   xmlns:sodipodi="http://sodipodi.sourceforge.net/DTD/sodipodi-0.dtd"
   xmlns="http://www.w3.org/2000/svg"
   xmlns:svg="http://www.w3.org/2000/svg">
  <sodipodi:namedview
     id="namedview40"
     pagecolor="#ffffff"
     bordercolor="#666666"
     borderopacity="1.0"
     inkscape:pageshadow="2"
     inkscape:pageopacity="0.0"
     inkscape:pagecheckerboard="0"
     showgrid="false"
     inkscape:zoom="7.5062972"
     inkscape:cx="260.38138"
     inkscape:cy="162.19715"
     inkscape:window-width="1920"
     inkscape:window-height="1001"
     inkscape:window-x="-9"
     inkscape:window-y="-9"
     inkscape:window-maximized="1"
     inkscape:current-layer="svg38" />
  <defs
     id="defs14">
    <clipPath
       id="id1">
      <path
         d="M 140.410156 89.527344 L 279.871094 89.527344 L 279.871094 208.417969 L 140.410156 208.417969 Z M 140.410156 89.527344 "
         clip-rule="nonzero"
         id="path2" />
    </clipPath>
    <clipPath
       id="id2">
      <path
         d="M 143.777344 91.210938 L 279.871094 91.210938 L 279.871094 208.417969 L 143.777344 208.417969 Z M 143.777344 91.210938 "
         clip-rule="nonzero"
         id="path5" />
    </clipPath>
    <clipPath
       id="id3">
      <path
         d="M 158 89.378906 L 256 89.378906 L 256 158 L 158 158 Z M 158 89.378906 "
         clip-rule="nonzero"
         id="path8" />
    </clipPath>
    <clipPath
       id="id4">
      <path
         d="M 140 102 L 240 102 L 240 208.558594 L 140 208.558594 Z M 140 102 "
         clip-rule="nonzero"
         id="path11" />
    </clipPath>
  </defs>
  <g
     clip-path="url(#id1)"
     id="g18">
    <path
       fill="rgb(97.24884%, 65.879822%, 48.239136%)"
       d="M 279.820312 163.203125 C 279.214844 160.257812 276.148438 158.742188 273.664062 157.144531 C 271.042969 155.457031 268.746094 153.25 266.9375 150.683594 C 266.070312 149.449219 265.296875 148.113281 264.203125 147.089844 C 263.105469 146.070312 261.570312 145.378906 260.136719 145.761719 C 258.941406 146.078125 258.039062 147.054688 257 147.738281 C 256.78125 147.886719 256.550781 148.019531 256.316406 148.140625 C 255.820312 147.824219 255.316406 147.527344 254.808594 147.238281 C 246.265625 142.320312 236.238281 139.988281 226.398438 140.664062 C 235.335938 134.03125 243.011719 125.703125 248.867188 116.246094 C 251.304688 112.292969 253.503906 107.828125 252.96875 103.214844 C 252.441406 98.664062 249.222656 94.714844 245.21875 92.476562 C 241.21875 90.238281 236.527344 89.53125 231.941406 89.527344 C 227.472656 89.523438 223.03125 90.164062 218.726562 91.335938 C 212.511719 93.03125 206.574219 95.839844 201.222656 99.445312 C 199.113281 100.867188 197.089844 102.402344 195.152344 104.046875 C 193.042969 105.828125 191.042969 107.734375 189.140625 109.734375 C 185.269531 113.796875 181.808594 118.261719 178.722656 122.949219 C 177.316406 125.09375 175.820312 127.398438 174.023438 129.234375 C 173.308594 129.964844 172.546875 130.625 171.71875 131.160156 C 171.132812 131.550781 170.507812 131.882812 169.847656 132.136719 C 169.878906 131.914062 169.894531 131.691406 169.898438 131.46875 C 169.964844 129.46875 169.148438 127.523438 167.820312 125.949219 C 168.578125 125.957031 169.328125 125.804688 170.035156 125.515625 C 171.492188 124.925781 172.75 123.773438 173.429688 122.347656 C 174.539062 120.007812 174.191406 117.121094 172.796875 114.941406 C 171.332031 112.628906 168.707031 111.066406 165.96875 110.996094 C 163.230469 110.925781 160.476562 112.40625 159.128906 114.785156 C 158.230469 116.375 158.007812 118.324219 158.472656 120.082031 C 158.667969 120.84375 158.996094 121.574219 159.453125 122.21875 C 155.871094 122.246094 152.292969 123.722656 149.277344 125.75 C 145.644531 128.191406 142.472656 131.558594 141.09375 135.710938 C 139.707031 139.863281 140.390625 144.839844 143.460938 147.960938 C 143.597656 148.097656 143.738281 148.234375 143.882812 148.363281 C 146.035156 150.304688 148.902344 151.292969 151.671875 152.21875 C 152.484375 152.492188 153.296875 152.761719 154.113281 153.035156 C 155.21875 154.402344 156.324219 155.773438 157.433594 157.136719 C 157.84375 157.644531 158.324219 158.195312 158.976562 158.253906 C 159.691406 158.328125 160.339844 157.746094 160.59375 157.078125 C 160.8125 156.5 160.808594 155.871094 160.769531 155.253906 C 162.046875 155.683594 163.324219 156.109375 164.605469 156.535156 C 165.742188 156.917969 166.96875 157.300781 168.121094 156.957031 C 170.269531 156.3125 170.941406 153.558594 170.652344 151.339844 C 170.546875 150.550781 170.367188 149.757812 170.199219 148.96875 C 174.285156 146.640625 178.261719 144.109375 182.097656 141.390625 C 182.816406 142.4375 183.652344 143.414062 184.535156 144.308594 C 186.996094 146.804688 189.878906 148.828125 192.488281 151.160156 C 198.898438 156.890625 203.523438 164.390625 206.910156 172.285156 C 209.914062 179.269531 212 186.601562 213.96875 193.941406 C 212.894531 194.566406 211.730469 195.035156 210.523438 195.324219 C 208.183594 195.882812 205.71875 195.773438 203.394531 196.382812 C 202.589844 196.59375 201.808594 196.890625 201.066406 197.265625 C 200.203125 197.703125 200.058594 198.71875 200.484375 199.410156 C 200.480469 199.414062 200.476562 199.417969 200.472656 199.417969 C 200.300781 199.578125 200.535156 199.707031 200.699219 199.675781 C 200.898438 199.875 201.164062 200.027344 201.492188 200.082031 C 203.214844 200.382812 205.046875 200.339844 206.804688 200.28125 C 209.582031 200.179688 212.359375 200.082031 215.136719 199.984375 C 215.082031 200.382812 214.96875 200.769531 214.769531 201.132812 C 213.546875 203.359375 210.347656 203.050781 207.808594 203.003906 C 204.699219 202.949219 201.589844 203.808594 198.925781 205.402344 C 197.78125 206.085938 198.148438 207.832031 199.46875 208 C 199.589844 208.015625 199.710938 208.027344 199.832031 208.042969 C 199.863281 208.1875 200.152344 208.214844 200.285156 208.09375 C 207.917969 208.941406 215.738281 208.105469 223.003906 205.605469 C 223.234375 197.851562 222.296875 190.097656 221.0625 182.433594 C 219.921875 175.347656 218.488281 168.191406 215.171875 161.828125 C 213.839844 159.265625 212.210938 156.859375 210.332031 154.667969 C 210.839844 154.777344 211.351562 154.855469 211.863281 154.90625 C 214.851562 155.207031 217.859375 154.730469 220.851562 154.539062 C 225.789062 154.21875 230.742188 154.667969 235.667969 155.144531 C 241.753906 155.722656 247.835938 156.347656 253.917969 157.003906 C 254.003906 157.011719 254.089844 157.019531 254.175781 157.03125 C 258.304688 157.476562 262.488281 157.953125 266.355469 159.503906 C 270.277344 161.085938 273.8125 163.75 277.941406 164.628906 C 278.605469 164.765625 279.460938 164.769531 279.769531 164.148438 C 279.910156 163.859375 279.882812 163.519531 279.820312 163.203125 "
       fill-opacity="1"
       fill-rule="nonzero"
       id="path16" />
  </g>
  <path
     fill="rgb(97.648621%, 90.589905%, 52.159119%)"
     d="M 213.007812 125.394531 C 211.1875 128.082031 209.367188 130.769531 207.546875 133.460938 C 205.78125 136.0625 203.988281 138.726562 203.070312 141.757812 C 202.761719 142.796875 202.566406 143.890625 202.511719 144.984375 C 199.867188 143.03125 198.132812 139.890625 197.238281 136.675781 C 196.167969 132.808594 196.125 128.742188 195.785156 124.746094 C 195.507812 121.589844 195.03125 118.402344 193.75 115.507812 C 192.738281 113.226562 191.175781 111.128906 189.140625 109.734375 C 191.042969 107.734375 193.042969 105.828125 195.152344 104.046875 C 203.96875 107.871094 210.757812 116.074219 213.007812 125.394531 "
     fill-opacity="1"
     fill-rule="nonzero"
     id="path20" />
  <g
     clip-path="url(#id2)"
     id="g24">
    <path
       fill="rgb(97.24884%, 65.879822%, 48.239136%)"
       d="M 213.007812 125.394531 C 215.871094 121.175781 218.726562 116.957031 221.585938 112.742188 C 218.582031 106.09375 217.558594 98.539062 218.726562 91.335938 C 212.511719 93.03125 206.574219 95.839844 201.222656 99.445312 C 199.113281 100.867188 197.089844 102.402344 195.152344 104.046875 C 203.96875 107.871094 210.757812 116.074219 213.007812 125.394531 Z M 215.171875 161.828125 C 213.839844 159.265625 212.210938 156.859375 210.332031 154.667969 C 207.863281 154.152344 205.503906 152.964844 204.050781 150.886719 C 202.867188 149.191406 202.421875 147.089844 202.511719 144.984375 C 199.867188 143.03125 198.132812 139.890625 197.238281 136.675781 C 196.167969 132.808594 196.125 128.742188 195.785156 124.746094 C 195.507812 121.589844 195.03125 118.402344 193.75 115.507812 C 192.738281 113.226562 191.175781 111.128906 189.140625 109.734375 C 185.269531 113.796875 181.808594 118.261719 178.722656 122.949219 C 177.316406 125.09375 175.820312 127.398438 174.023438 129.234375 C 175.304688 132.078125 177.332031 134.578125 179.828125 136.445312 C 179.941406 136.953125 180.089844 137.445312 180.269531 137.933594 C 176.621094 137.066406 173.40625 134.507812 171.71875 131.160156 C 171.132812 131.550781 170.507812 131.882812 169.847656 132.136719 C 169.636719 132.21875 169.421875 132.296875 169.203125 132.355469 C 167.578125 134.253906 165.414062 135.691406 163.03125 136.449219 C 162.542969 135.554688 161.851562 134.792969 160.960938 134.3125 C 159.484375 133.523438 157.425781 133.742188 156.410156 135.070312 C 155.441406 136.328125 155.644531 138.054688 156.230469 139.578125 C 154.28125 141.910156 152.269531 144.222656 149.777344 145.953125 C 148.023438 147.167969 145.980469 148.070312 143.882812 148.363281 C 146.035156 150.304688 148.902344 151.292969 151.671875 152.21875 C 152.484375 152.492188 153.296875 152.761719 154.113281 153.035156 C 156.332031 153.773438 158.546875 154.515625 160.769531 155.253906 C 162.046875 155.683594 163.324219 156.109375 164.605469 156.535156 C 165.742188 156.917969 166.96875 157.300781 168.121094 156.957031 C 170.269531 156.3125 170.941406 153.558594 170.652344 151.339844 C 170.546875 150.550781 170.367188 149.757812 170.199219 148.96875 C 174.285156 146.640625 178.261719 144.109375 182.097656 141.390625 C 182.816406 142.4375 183.652344 143.414062 184.535156 144.308594 C 186.996094 146.804688 189.878906 148.828125 192.488281 151.160156 C 198.898438 156.886719 203.523438 164.386719 206.910156 172.285156 C 209.914062 179.269531 212 186.597656 213.96875 193.941406 C 214.226562 194.90625 214.480469 195.863281 214.734375 196.828125 C 215.011719 197.847656 215.273438 198.960938 215.136719 199.984375 C 215.082031 200.382812 214.96875 200.769531 214.769531 201.132812 C 213.546875 203.359375 210.347656 203.050781 207.808594 203.003906 C 204.699219 202.949219 201.589844 203.808594 198.925781 205.402344 C 197.78125 206.085938 198.148438 207.832031 199.46875 208 C 207.359375 209.003906 215.480469 208.191406 223.003906 205.605469 C 223.234375 197.851562 222.296875 190.097656 221.0625 182.433594 C 219.921875 175.347656 218.488281 168.191406 215.171875 161.828125 Z M 279.769531 164.148438 C 279.460938 164.769531 278.605469 164.765625 277.941406 164.628906 C 273.8125 163.75 270.277344 161.085938 266.355469 159.503906 C 262.488281 157.953125 258.304688 157.476562 254.175781 157.03125 C 254.089844 157.019531 254.003906 157.011719 253.917969 157.003906 C 254.816406 154.328125 255.164062 151.472656 254.964844 148.660156 C 254.925781 148.183594 254.878906 147.707031 254.808594 147.238281 C 255.316406 147.527344 255.820312 147.824219 256.316406 148.140625 C 256.550781 148.019531 256.78125 147.886719 257 147.738281 C 258.039062 147.054688 258.941406 146.078125 260.136719 145.761719 C 261.570312 145.378906 263.105469 146.070312 264.203125 147.089844 C 265.296875 148.113281 266.070312 149.449219 266.9375 150.683594 C 268.746094 153.25 271.042969 155.457031 273.664062 157.144531 C 276.148438 158.742188 279.214844 160.257812 279.820312 163.203125 C 279.882812 163.519531 279.910156 163.859375 279.769531 164.148438 "
       fill-opacity="1"
       fill-rule="nonzero"
       id="path22" />
  </g>
  <path
     fill="rgb(97.648621%, 90.589905%, 52.159119%)"
     d="M 179.828125 136.445312 C 179.941406 136.953125 180.089844 137.445312 180.269531 137.933594 C 176.621094 137.066406 173.40625 134.507812 171.71875 131.160156 C 172.546875 130.625 173.308594 129.964844 174.023438 129.234375 C 175.304688 132.078125 177.332031 134.578125 179.828125 136.445312 "
     fill-opacity="1"
     fill-rule="nonzero"
     id="path26" />
  <g
     clip-path="url(#id3)"
     id="g30">
    <path
       fill="rgb(13.328552%, 31.759644%, 52.159119%)"
       d="M 158.472656 120.082031 C 158.667969 120.84375 158.996094 121.574219 159.453125 122.21875 C 160.421875 122.210938 161.390625 122.308594 162.355469 122.535156 C 164.464844 123.027344 166.429688 124.285156 167.820312 125.949219 C 168.578125 125.957031 169.328125 125.804688 170.035156 125.515625 C 167.726562 121.640625 162.933594 119.378906 158.472656 120.082031 Z M 253.914062 157.003906 C 247.835938 156.347656 241.753906 155.722656 235.667969 155.144531 C 230.742188 154.667969 225.789062 154.21875 220.851562 154.539062 C 217.855469 154.730469 214.851562 155.207031 211.863281 154.90625 C 211.351562 154.855469 210.839844 154.777344 210.332031 154.667969 C 207.863281 154.152344 205.503906 152.964844 204.050781 150.886719 C 202.867188 149.191406 202.421875 147.089844 202.511719 144.984375 C 202.566406 143.890625 202.757812 142.796875 203.070312 141.757812 C 203.988281 138.726562 205.78125 136.0625 207.546875 133.460938 C 209.367188 130.769531 211.1875 128.082031 213.007812 125.394531 C 215.871094 121.175781 218.726562 116.957031 221.585938 112.742188 C 218.582031 106.09375 217.554688 98.539062 218.726562 91.335938 C 223.03125 90.164062 227.472656 89.523438 231.941406 89.527344 C 236.523438 89.53125 241.21875 90.238281 245.21875 92.476562 C 249.222656 94.714844 252.441406 98.664062 252.96875 103.214844 C 253.503906 107.828125 251.304688 112.292969 248.867188 116.246094 C 243.011719 125.703125 235.335938 134.03125 226.398438 140.664062 C 236.238281 139.988281 246.261719 142.320312 254.808594 147.238281 C 254.878906 147.707031 254.925781 148.183594 254.964844 148.660156 C 255.164062 151.472656 254.8125 154.328125 253.914062 157.003906 "
       fill-opacity="1"
       fill-rule="nonzero"
       id="path28" />
  </g>
  <path
     fill="rgb(96.078491%, 51.759338%, 25.878906%)"
     d="M 154.113281 153.035156 C 155.21875 154.402344 156.324219 155.773438 157.433594 157.136719 C 157.84375 157.644531 158.324219 158.195312 158.976562 158.253906 C 159.691406 158.328125 160.339844 157.746094 160.59375 157.078125 C 160.8125 156.5 160.808594 155.871094 160.769531 155.253906 C 158.546875 154.515625 156.332031 153.773438 154.113281 153.035156 Z M 215.136719 199.984375 C 212.355469 200.082031 209.582031 200.179688 206.804688 200.28125 C 205.042969 200.339844 203.214844 200.382812 201.488281 200.082031 C 200.074219 199.835938 199.785156 197.914062 201.066406 197.265625 C 201.808594 196.890625 202.585938 196.59375 203.394531 196.382812 C 205.71875 195.773438 208.183594 195.882812 210.519531 195.324219 C 211.726562 195.035156 212.894531 194.566406 213.96875 193.941406 C 214.226562 194.90625 214.480469 195.863281 214.734375 196.828125 C 215.011719 197.847656 215.273438 198.960938 215.136719 199.984375 "
     fill-opacity="1"
     fill-rule="nonzero"
     id="path32" />
  <g
     clip-path="url(#id4)"
     id="g36">
    <path
       fill="rgb(23.919678%, 9.408569%, 17.649841%)"
       d="M 162.355469 122.535156 C 161.390625 122.308594 160.421875 122.210938 159.453125 122.21875 C 155.871094 122.246094 152.292969 123.722656 149.277344 125.75 C 145.644531 128.191406 142.472656 131.558594 141.09375 135.710938 C 139.707031 139.863281 140.390625 144.839844 143.460938 147.960938 C 143.597656 148.097656 143.738281 148.234375 143.882812 148.363281 C 145.980469 148.070312 148.023438 147.167969 149.777344 145.953125 C 152.269531 144.222656 154.28125 141.910156 156.230469 139.578125 C 155.644531 138.054688 155.441406 136.328125 156.410156 135.070312 C 157.425781 133.742188 159.484375 133.523438 160.960938 134.3125 C 161.851562 134.792969 162.542969 135.554688 163.03125 136.449219 C 165.414062 135.691406 167.574219 134.253906 169.203125 132.355469 C 169.421875 132.296875 169.636719 132.21875 169.847656 132.136719 C 169.878906 131.914062 169.894531 131.691406 169.898438 131.46875 C 169.964844 129.46875 169.148438 127.523438 167.820312 125.949219 C 166.429688 124.285156 164.464844 123.027344 162.355469 122.535156 Z M 165.96875 110.996094 C 163.230469 110.925781 160.476562 112.40625 159.128906 114.785156 C 158.230469 116.375 158.007812 118.324219 158.472656 120.082031 C 162.933594 119.378906 167.726562 121.640625 170.035156 125.515625 C 171.492188 124.925781 172.75 123.773438 173.429688 122.347656 C 174.539062 120.007812 174.191406 117.121094 172.796875 114.941406 C 171.332031 112.628906 168.707031 111.066406 165.96875 110.996094 Z M 238.839844 102.488281 C 231.9375 102.902344 224.667969 105.953125 221.339844 112.335938 C 221.183594 112.636719 221.714844 112.742188 221.855469 112.496094 C 225.382812 106.179688 232.242188 104.128906 238.902344 102.933594 C 239.253906 102.871094 239.1875 102.46875 238.839844 102.488281 Z M 156.191406 143.882812 C 153.722656 143.804688 151.058594 146.691406 152.136719 149.160156 C 152.1875 149.277344 152.4375 149.277344 152.457031 149.132812 C 152.769531 146.773438 153.832031 144.945312 156.246094 144.285156 C 156.488281 144.222656 156.4375 143.894531 156.191406 143.882812 Z M 157.945312 145.132812 C 157.734375 146.707031 157.105469 149.792969 154.777344 148.828125 C 154.523438 148.722656 154.164062 149.09375 154.46875 149.265625 C 155.425781 149.808594 156.574219 149.582031 157.394531 148.882812 C 158.476562 147.957031 158.707031 146.457031 158.4375 145.125 C 158.394531 144.898438 157.976562 144.898438 157.945312 145.132812 Z M 165.128906 147.796875 C 165.34375 150.328125 164.984375 152.597656 162.953125 154.332031 C 162.71875 154.53125 163.125 154.75 163.316406 154.621094 C 165.429688 153.195312 166.847656 150.113281 165.558594 147.699219 C 165.46875 147.527344 165.109375 147.574219 165.128906 147.796875 Z M 200.757812 199.660156 C 202.355469 198.847656 203.882812 198.40625 205.691406 198.546875 C 205.9375 198.566406 206.160156 198.195312 205.84375 198.125 C 203.996094 197.722656 201.890625 198.101562 200.472656 199.421875 C 200.277344 199.601562 200.601562 199.738281 200.757812 199.660156 Z M 207.457031 206.390625 C 205.53125 206.5 201.578125 206.355469 200.316406 208.066406 C 200.171875 208.257812 199.695312 208.179688 199.855469 207.917969 C 201.222656 205.730469 205.210938 205.855469 207.46875 205.929688 C 207.796875 205.941406 207.765625 206.375 207.457031 206.390625 "
       fill-opacity="1"
       fill-rule="nonzero"
       id="path34" />
  </g>
  <path
     style="fill:#f9e785;stroke:none;stroke-width:0.75px;stroke-linecap:butt;stroke-linejoin:miter;stroke-opacity:1;fill-opacity:1"
     d="m 195.15235,104.04688 c 0,0 12.34385,-10.450217 23.57421,-12.710942 0,0 -1.465,11.801172 2.85938,21.406252 l -8.57813,12.65234 c 0,0 -15.89091,-21.56324 -17.85546,-21.34765 z"
     id="path890" />
</svg>
