<?xml version="1.0" encoding="UTF-8" standalone="no"?>
<!-- Created with Inkscape (http://www.inkscape.org/) -->

<svg
   width="22.806061mm"
   height="39.514988mm"
   viewBox="0 0 22.806061 39.514988"
   version="1.1"
   id="svg910"
   inkscape:version="1.1.1 (3bf5ae0d25, 2021-09-20)"
   sodipodi:docname="stretching plant.svg"
   xmlns:inkscape="http://www.inkscape.org/namespaces/inkscape"
   xmlns:sodipodi="http://sodipodi.sourceforge.net/DTD/sodipodi-0.dtd"
   xmlns="http://www.w3.org/2000/svg"
   xmlns:svg="http://www.w3.org/2000/svg">
  <sodipodi:namedview
     id="namedview912"
     pagecolor="#ffffff"
     bordercolor="#666666"
     borderopacity="1.0"
     inkscape:pageshadow="2"
     inkscape:pageopacity="0.0"
     inkscape:pagecheckerboard="0"
     inkscape:document-units="mm"
     showgrid="false"
     fit-margin-top="0"
     fit-margin-left="0"
     fit-margin-right="0"
     fit-margin-bottom="0"
     inkscape:zoom="0.66368547"
     inkscape:cx="169.50801"
     inkscape:cy="371.41088"
     inkscape:window-width="1920"
     inkscape:window-height="1001"
     inkscape:window-x="-9"
     inkscape:window-y="-9"
     inkscape:window-maximized="1"
     inkscape:current-layer="layer1" />
  <defs
     id="defs907">
    <clipPath
       id="id1">
      <path
         d="m 161,89.378906 h 98 V 208.55859 h -98 z m 0,0"
         clip-rule="nonzero"
         id="path2" />
    </clipPath>
    <clipPath
       id="id2">
      <path
         d="m 189.23437,89.378906 h 68.92579 V 208.55859 h -68.92579 z m 0,0"
         clip-rule="nonzero"
         id="path5" />
    </clipPath>
    <clipPath
       id="id3">
      <path
         d="m 161,135 h 97 v 73.55859 h -97 z m 0,0"
         clip-rule="nonzero"
         id="path8" />
    </clipPath>
  </defs>
  <g
     inkscape:label="Layer 1"
     inkscape:groupmode="layer"
     id="layer1"
     transform="translate(-60.355359,-50.406264)">
    <g
       id="g882"
       transform="matrix(0.35277777,0,0,0.35277777,-34.178292,5.5322633)">
      <g
         id="g872"
         transform="matrix(0.66808566,0,0,0.66808566,160.14324,67.489128)">
        <g
           clip-path="url(#id1)"
           id="g862">
          <path
             fill="#f47185"
             d="m 198.67578,158.43359 0.0195,0.082 z m 53.48438,-21.20312 c 3.15625,0.625 4.64062,6.02734 5.25,8.60937 0,0 0,0.004 0.004,0.004 1.82813,7.76953 0.13672,13.54297 -3.32422,18.42969 -1.48047,2.09765 -3.28906,4.03125 -5.28515,5.88672 -1.51563,1.41406 -3.10157,2.75 -4.70703,4.05859 -4.85547,3.96484 -9.94922,7.74609 -14.1211,12.45703 -4.64062,5.24219 -8.94531,12.00391 -12.23828,21.88672 -0.67969,-0.21484 -1.39062,-0.35938 -2.04297,-0.45703 -1.27734,-0.1875 -2.30078,-0.19141 -2.30078,-0.19141 l -1.33203,0.3086 c -1.99219,-17.35938 -12.36328,-18.9336 -23.98828,-27.98438 -1.3086,-1.01953 -2.58203,-2.09375 -3.80078,-3.21094 -1.28516,-1.17578 -2.50782,-2.40625 -3.66016,-3.70703 -1.83203,-2.0664 -3.46875,-4.28515 -5.16797,-6.45312 -0.78906,-1.01563 -1.59375,-2.01563 -2.41797,-3.00391 -1.64062,-1.96484 -3.42968,-3.8125 -5.39843,-5.44922 -1.5586,-1.2539 -2.81641,-2.34765 -3.78125,-3.28515 -0.53907,-0.51954 -1.07422,-1.07032 -1.53907,-1.65625 -1.96093,-1.97657 -0.44531,-3.00391 1.60938,-3.58204 -0.0156,-0.0586 -0.0273,-0.11328 -0.0352,-0.16406 -0.11719,-0.98437 1.26953,-1.625 4.16797,-1.92578 1.36719,-0.14062 2.58203,-0.16016 3.79297,-0.13281 1.13281,0.0234 2.26172,0.082 3.39453,0.11328 1.45703,0.0391 2.91406,0.0312 4.37109,0.0664 1.65625,0.043 3.03907,0.17187 4.61329,0.63671 1.66796,0.49219 3.26953,1.28125 4.78906,2.11719 3.82812,2.10156 7.09765,5.07422 9.84765,8.44531 l -0.16406,-0.53125 c -0.22265,-0.72265 -0.4414,-1.44921 -0.65625,-2.1875 l -0.13672,-0.47656 c -0.004,-0.004 -0.004,-0.004 -0.004,-0.008 -0.0664,-0.23438 -0.13282,-0.46875 -0.20313,-0.70313 -0.52344,-1.85156 -0.92187,-3.75 -1.28906,-5.65234 -0.61328,-3.14844 -1.13672,-6.31641 -2.00391,-9.32031 -0.0508,-0.17969 -0.10156,-0.35547 -0.15625,-0.53125 -0.15625,-0.51172 -0.32031,-1.01172 -0.5,-1.51172 -0.32812,-0.92578 -0.6914,-1.79688 -1.08593,-2.61719 -0.81641,-1.71094 -2.03907,-3.17969 -2.74219,-4.82812 -0.11719,-0.27735 -0.21485,-0.55078 -0.28906,-0.8086 -0.0508,-0.17968 -0.0898,-0.35547 -0.1211,-0.52343 -0.16406,-0.98438 0.043,-1.78907 0.62891,-2.41797 0.082,0.0547 0.18359,0.11328 0.30078,0.16797 0.78125,0.39062 2.25391,0.83593 3.67578,1.33203 0.82813,0.29687 1.6875,0.60547 2.46484,1.02343 0.51172,0.27735 1.01563,0.57422 1.50391,0.89063 2.17578,1.41797 3.625,2.95312 5.12891,4.63672 1.03906,1.15625 2.05859,2.3164 3.16406,3.40625 0.88672,0.8789 1.82422,1.69922 2.77734,2.5039 0.30469,-1.51953 0.71875,-2.86718 -0.41015,-4.1914 -1.5,-1.75781 -4.6836,-2.90235 -6.01172,-3.9961 -1.47656,-1.21093 -3.30469,-3.33984 -2.50391,-9.55078 0.33594,-2.58203 2.76953,-8.39843 5.57031,-12.38281 1.32813,-1.89062 2.74219,-3.36719 4.05079,-3.89453 3.32031,-1.48047 5.60546,-4.01953 7.0664,-7.316406 1.28516,-2.90625 1.375,-6.804688 2.36719,-8.621094 0.42969,-0.777344 1.0625,-1.296875 1.90234,-1.558594 -1.08593,1.09375 -1.22265,2.09375 -0.41015,3.007813 2.13281,2.386719 3.70312,1.707031 5.96484,6.078125 1.94141,3.742186 1.41016,8.054686 2.05078,12.238286 1.35547,8.8164 2.51563,13.0664 -2.88281,22.5039 -1.51953,2.66016 -3.92578,5.69531 -6.64844,8.67188 -0.70312,0.76562 -2.73437,2.66796 -4.42578,4.3125 0.27734,0.32421 0.54688,0.66796 0.80859,1.02343 0.54297,0.73047 1.04297,1.4961 1.44922,2.3086 1.15625,2.32031 0.86328,3.69922 1.89844,5.96875 0.0742,0.16015 0.15234,0.32031 0.23047,0.48437 1.00391,2.1211 1.79687,3.79297 2.39844,5.29688 0.26953,0.67187 0.51953,1.35156 0.73437,2.04297 0.48047,-1.07422 1.00781,-2.13282 1.57813,-3.16407 0.64453,-1.14843 1.33984,-2.28125 2.13281,-3.33593 1.05469,-1.39454 2.06641,-2.36329 3.14062,-3.15625 1.34766,-0.9961 2.8711,-1.76563 4.33985,-2.56641 1.28515,-0.69922 2.54297,-1.42578 3.76953,-2.22266 0.27344,-0.17968 0.54297,-0.37109 0.80469,-0.57031 1.03906,-0.78516 2.15234,-1.8125 3.28906,-2.92578 1.21875,-1.19141 2.40234,-2.41797 3.61719,-3.60938 1.23047,-1.20703 2.42968,-2.32031 3.54687,-3.14843 0.11328,-0.082 0.22266,-0.16016 0.33203,-0.23828 1.22657,-0.85938 2.33985,-1.33204 3.25782,-1.14844"
             fill-opacity="1"
             fill-rule="evenodd"
             id="path860" />
        </g>
        <g
           clip-path="url(#id2)"
           id="g866">
          <path
             fill="#fbcbd5"
             d="m 217.32422,123.95703 c -1.125,4.64453 -2.00781,7.89844 -2.7461,9.73828 -0.27734,0.69141 -0.60156,1.17188 -0.93359,1.47656 -0.62109,3.98047 -0.92969,5.97266 -0.92969,5.97266 -0.34375,0.90234 -0.48828,1.57031 -0.42578,2.00781 -0.0586,0.0898 -0.11328,0.1836 -0.16797,0.27735 -0.44531,0.78125 -0.65234,1.59765 -0.85547,2.39843 -0.15625,0.60938 -0.30468,1.20704 -0.54687,1.77735 -0.13281,0.30859 -0.29688,0.60547 -0.5,0.89062 0.24609,-2.10156 0.47656,-4.14062 0.69141,-6.125 0.26953,-2.48828 0.51562,-4.88281 0.73437,-7.1875 -0.40234,-0.4375 -0.64453,-1.20312 -0.56641,-2.28906 0.13282,-1.85547 0.63282,-5.18359 1.64844,-9.87109 0.40235,-1.84766 0.88281,-3.90625 1.45313,-6.16797 0.66406,-2.98047 1.47656,-5.14844 2.4375,-6.49609 2.04297,-2.86719 3.73828,-1.125 3.5664,1.38281 -1.10547,4.78906 -2.04687,8.86719 -2.85937,12.21484 z m -24.58594,7.32813 c 0.3125,0.16015 0.64063,0.32031 0.98047,0.48046 -1.39063,-1.4414 -2.72656,-2.9414 -3.65234,-4.59374 -0.38672,1.65624 1.41796,2.72656 2.67187,4.11328 z m 1.46875,2.74218 c 0.97266,0.46094 1.94531,0.88672 2.92578,1.28516 -0.14453,-0.16016 -0.29297,-0.31641 -0.4375,-0.47656 -0.59765,-0.64844 -1.23047,-1.29297 -1.87109,-1.94141 l -0.41016,-0.41406 c -0.39844,-0.17969 -0.78125,-0.35938 -1.15234,-0.53906 0.0703,0.10546 0.13672,0.21093 0.19922,0.32031 0.34765,0.625 0.58203,1.20703 0.74609,1.76562 z m 0.49609,2.99219 c -0.10546,-0.88672 -0.17578,-1.70312 -0.375,-2.54297 1.11329,0.51953 2.23047,1 3.35157,1.4375 1.47265,1.62891 2.83203,3.21094 4.10156,4.83203 -2.16016,-0.96484 -4.32422,-2.09765 -6.22266,-3.21484 -0.29297,-0.17188 -0.57812,-0.34375 -0.85547,-0.51172 z m 0.91797,3.51172 c -0.28906,-0.55859 -0.55468,-1.19531 -0.71875,-2.09375 -0.0586,-0.33594 -0.10547,-0.65625 -0.14843,-0.96875 0.20703,0.125 0.41406,0.24609 0.625,0.37109 2.08984,1.22657 4.49218,2.47657 6.85937,3.4961 1.15234,1.50781 2.23047,3.0625 3.25,4.72656 0.10156,0.17187 0.20703,0.34375 0.30859,0.51562 -3.76953,-2.15234 -6.8164,-3.94921 -9.13671,-5.39453 -0.36329,-0.22656 -0.71094,-0.44531 -1.03907,-0.65234 z m 1.53516,4.875 c -0.0547,-0.52734 -0.12109,-1.06641 -0.19531,-1.61719 -0.15625,-1.17187 -0.5586,-1.875 -0.97657,-2.60547 0.16016,0.0977 0.32032,0.19922 0.48438,0.30469 2.42969,1.50781 5.66016,3.41406 9.69141,5.70313 1.10546,1.91796 2.14453,3.99609 3.13671,6.33593 -5.26171,-3.27343 -9.30468,-5.98047 -12.14062,-8.12109 z M 209,164.58984 c -1.87109,-1.32812 -3.55078,-2.54297 -5.03516,-3.64062 -2.39062,-1.76563 -4.26953,-3.22266 -5.64062,-4.37891 0.10937,0.62891 0.23047,1.27344 0.37109,1.94531 -0.26953,-0.875 -0.53515,-1.75781 -0.79297,-2.65625 l -0.004,-0.0156 c -0.0664,-0.23438 -0.13282,-0.46875 -0.20313,-0.70313 -0.48047,-1.70703 -0.85937,-3.45312 -1.20312,-5.20703 v -0.008 l -0.004,-0.008 -0.004,-0.0273 -0.004,-0.004 v -0.008 l -0.004,-0.0156 v -0.0117 l -0.004,-0.008 v -0.0156 l -0.004,-0.004 v -0.0156 l -0.004,-0.008 v -0.008 l -0.004,-0.004 v -0.0234 l -0.004,-0.004 -0.004,-0.0234 v -0.008 l -0.004,-0.004 v -0.0156 l -0.004,-0.0117 v -0.008 l -0.004,-0.008 -0.004,-0.0195 -0.004,-0.0234 v -0.004 l -0.004,-0.0156 -0.004,-0.0273 -0.004,-0.008 v -0.008 l -0.004,-0.0117 v -0.0117 l -0.004,-0.008 -0.004,-0.0234 v -0.0117 l -0.004,-0.008 v -0.0156 c -0.32422,-1.65625 -0.62109,-3.32031 -0.95703,-4.96484 l -0.004,-0.008 v -0.0195 l -0.004,-0.008 v -0.008 l -0.004,-0.008 -0.004,-0.0195 v -0.008 l -0.004,-0.008 v -0.008 l -0.004,-0.0117 v -0.0156 l -0.0117,-0.043 v -0.008 l -0.008,-0.0273 v -0.008 l -0.004,-0.0117 v -0.0156 l -0.004,-0.008 v -0.008 l -0.004,-0.0117 v -0.008 l -0.004,-0.0156 -0.004,-0.0117 v -0.0156 l -0.008,-0.0195 v -0.0156 l -0.0273,-0.12109 v -0.008 l -0.004,-0.008 v -0.0117 l -0.004,-0.008 -0.008,-0.043 -0.004,-0.008 c -0.26953,-1.28516 -0.57031,-2.55859 -0.92969,-3.80078 l -0.004,-0.0156 -0.004,-0.0117 v -0.008 l -0.008,-0.0156 -0.0469,-0.16797 v -0.008 l -0.008,-0.0156 -0.0117,-0.0391 -0.004,-0.0117 v -0.008 l -0.004,-0.008 v -0.008 l -0.0391,-0.11719 -0.004,-0.0156 -0.008,-0.0234 v -0.008 l -0.004,-0.0117 v -0.008 l -0.008,-0.0156 -0.004,-0.0156 c -0.15625,-0.51172 -0.32031,-1.01563 -0.5,-1.51172 -0.21093,-0.58984 -0.43359,-1.16016 -0.67187,-1.70703 v -0.008 l -0.004,-0.004 -0.004,-0.0117 -0.0117,-0.0234 v -0.004 l -0.004,-0.008 -0.004,-0.0117 -0.0273,-0.0547 -0.008,-0.0195 -0.004,-0.0117 -0.004,-0.008 v -0.004 l -0.0117,-0.0234 -0.004,-0.0117 -0.004,-0.004 v -0.004 l -0.004,-0.0117 -0.0117,-0.0234 -0.004,-0.004 -0.004,-0.008 -0.008,-0.0234 -0.008,-0.0156 -0.008,-0.0195 -0.004,-0.008 v -0.004 l -0.008,-0.008 v -0.008 l -0.008,-0.0117 -0.004,-0.008 -0.004,-0.0117 -0.008,-0.0156 -0.004,-0.0117 v -0.004 l -0.0117,-0.0234 -0.008,-0.0195 -0.008,-0.008 -0.004,-0.0117 -0.004,-0.008 v -0.008 l -0.004,-0.004 -0.008,-0.0156 -0.004,-0.0117 -0.004,-0.008 -0.004,-0.0117 -0.008,-0.0156 -0.0117,-0.0195 -0.004,-0.0117 -0.004,-0.008 -0.004,-0.0117 -0.004,-0.008 c -0.0469,-0.10156 -0.0937,-0.20312 -0.14453,-0.30078 -0.44922,-0.94922 -1.02735,-1.82031 -1.57032,-2.6914 l -0.008,-0.008 -0.004,-0.0117 -0.008,-0.008 -0.008,-0.0156 -0.004,-0.004 -0.004,-0.008 -0.008,-0.0117 -0.008,-0.008 -0.004,-0.0117 -0.0117,-0.0195 -0.008,-0.008 -0.0117,-0.0195 -0.004,-0.008 -0.008,-0.0117 -0.004,-0.008 -0.0195,-0.0273 -0.004,-0.0117 -0.008,-0.008 -0.004,-0.0117 -0.008,-0.008 -0.004,-0.0117 -0.008,-0.008 -0.004,-0.0117 -0.008,-0.008 -0.004,-0.008 -0.008,-0.0117 -0.004,-0.008 -0.008,-0.0117 -0.004,-0.008 -0.008,-0.0117 -0.004,-0.008 -0.004,-0.004 -0.008,-0.0156 -0.008,-0.008 -0.004,-0.0117 -0.0312,-0.0469 -0.004,-0.008 -0.008,-0.0117 -0.008,-0.0195 -0.008,-0.008 -0.008,-0.0117 -0.004,-0.008 -0.008,-0.0117 -0.008,-0.0156 -0.008,-0.0117 -0.004,-0.008 -0.008,-0.0117 -0.004,-0.008 c -0.3125,-0.51953 -0.59766,-1.03906 -0.83203,-1.58593 -0.11719,-0.27735 -0.21485,-0.55078 -0.28906,-0.8086 l -0.0117,-0.0508 -0.008,-0.0156 v -0.008 l -0.004,-0.0195 -0.004,-0.008 v -0.008 l -0.004,-0.008 v -0.008 h -0.004 v -0.008 l -0.004,-0.008 v -0.008 l -0.004,-0.0117 v -0.008 l -0.004,-0.0156 -0.004,-0.008 v -0.008 l -0.004,-0.008 -0.008,-0.043 -0.004,-0.008 v -0.008 l -0.004,-0.008 -0.0117,-0.0508 v -0.0156 l -0.0117,-0.0469 -0.004,-0.008 v -0.008 l -0.008,-0.0508 -0.004,-0.008 v -0.0156 l -0.004,-0.008 -0.004,-0.0234 v -0.008 l -0.004,-0.008 c -0.15234,-0.91016 0.0156,-1.66797 0.50391,-2.27344 l 0.008,-0.008 v -0.004 l 0.0195,-0.0195 v -0.004 l 0.0195,-0.0195 v -0.004 l 0.008,-0.004 v -0.004 l 0.0273,-0.0273 0.004,-0.008 0.008,-0.008 c 0.0117,-0.0117 0.0195,-0.0234 0.0312,-0.0352 0.082,0.0547 0.18359,0.11328 0.30078,0.16797 0.98047,1.71484 2.41797,3.27734 3.89062,4.78125 -0.0312,-0.9336 -0.0703,-1.74219 -0.12109,-2.42579 -0.0273,-0.38281 -0.0586,-0.72265 -0.0937,-1.02343 0.125,0.0469 0.25,0.0898 0.375,0.13281 0.0273,0.26172 0.0508,0.55078 0.0781,0.86328 0.0547,0.77344 0.0977,1.71484 0.1289,2.82813 l 0.38281,0.39062 c 0.64454,0.65625 1.28516,1.30469 1.87891,1.94922 0.22656,0.24609 0.45313,0.49219 0.67188,0.73437 0.082,-1.38281 0.12109,-2.58203 0.12109,-3.59765 0,-0.60547 -0.0117,-1.14453 -0.0391,-1.6211 0.125,0.0781 0.25,0.15625 0.37109,0.23438 0.0156,0.41797 0.0273,0.88281 0.0234,1.38672 0,1.11328 -0.0469,2.4375 -0.13672,3.96875 1.53516,1.70312 2.95312,3.35547 4.27344,5.05859 l 0.96875,-5.77734 c 0.10547,0.10937 0.20312,0.22656 0.30468,0.33984 l -0.97656,5.82422 c 1.15625,1.50781 2.23438,3.0625 3.25391,4.73438 0.14844,0.23828 0.29297,0.48046 0.4375,0.72656 0.53906,-1.98828 1.0039,-3.79688 1.38672,-5.41797 0.10937,-0.46484 0.21484,-0.91797 0.3125,-1.35156 0.10156,0.0898 0.20312,0.17968 0.30468,0.26953 -0.0859,0.3789 -0.17578,0.76562 -0.26953,1.16406 -0.40234,1.69922 -0.89843,3.625 -1.48437,5.76563 1.1289,1.96093 2.1875,4.08203 3.19531,6.47656 l 0.0859,-0.20703 c -0.043,0.34375 -0.0859,0.6875 -0.12891,1.03125 l -0.10156,-0.24219 c -5.30469,-3.29297 -9.41406,-6.02734 -12.32422,-8.20313 0.15625,1.53516 0.26172,2.98438 0.38281,4.44922 1.85157,1.4336 3.875,2.92188 6.07032,4.46094 1.75,1.22656 3.60546,2.48438 5.5664,3.77344 -0.0117,0.13672 -0.0195,0.27344 -0.0312,0.41015 -2.02734,-1.33203 -3.9414,-2.6289 -5.74219,-3.89062 -2.08984,-1.46875 -4.03125,-2.89453 -5.82421,-4.27344 0.14062,1.65625 0.30859,3.34766 0.60546,5.20703 1.38672,1.1875 3.36719,2.73047 5.94141,4.63672 1.42578,1.05078 3.03516,2.21485 4.82813,3.49219 0,0.14453 0,0.28906 -0.004,0.43359 z m 7.07812,22.53907 c -1.13671,1.6914 -2.21093,3.5625 -2.98437,6.18359 -0.5625,1.90625 -0.94141,3.96484 -1.13672,6.17969 -2.65234,-11.25 -5.99219,-20.02344 -9.19531,-28.94141 l -0.10547,-0.29297 c -0.88672,-2.47265 -1.76563,-4.96484 -2.61328,-7.52344 l -0.1211,-0.36328 -0.008,-0.0195 -0.004,-0.008 v -0.0156 l -0.004,-0.008 -0.0898,-0.26953 c -0.2461,-0.74609 -0.48829,-1.5 -0.72657,-2.26172 0.41797,1.01563 0.89453,1.98047 1.4336,2.89844 2.28125,2.03906 4.53125,3.94531 6.75,5.71094 0.625,0.5 1.24609,0.98437 1.86328,1.46093 0.0117,0.15625 0.0195,0.3125 0.0273,0.46875 -0.69922,-0.53515 -1.40625,-1.08593 -2.11328,-1.64843 -1.92578,-1.53516 -3.875,-3.16797 -5.84375,-4.91016 0.99219,1.47656 2.15625,2.80859 3.49609,3.99219 1.0625,1.12109 1.99219,2.26562 2.79297,3.42969 2.41797,3.52734 2.4375,5.84765 4.02344,9.19921 1.17188,2.47657 2.62891,3.40625 3.76563,5.1875 0.0977,-1.34765 0.14843,-2.6914 0.14843,-4.03125 -0.95312,-0.63281 -1.89843,-1.29687 -2.83203,-2 -0.0273,-0.16796 -0.0547,-0.33593 -0.0781,-0.5039 0.96093,0.72656 1.92968,1.41797 2.91015,2.07422 -0.0156,-1.80078 -0.10937,-3.59766 -0.28906,-5.38672 -0.0391,-0.40625 -0.082,-0.8086 -0.12891,-1.21094 -1.08984,-0.72656 -2.18359,-1.48828 -3.28515,-2.28516 -0.0117,-0.15625 -0.0234,-0.3125 -0.0352,-0.46875 1.09375,0.79688 2.1836,1.5586 3.26172,2.28516 -0.25,-2.00781 -0.60156,-4.01172 -1.03906,-6.01172 -0.85547,-0.59375 -1.67969,-1.16797 -2.47266,-1.72265 -0.004,-0.14844 -0.008,-0.29688 -0.008,-0.44141 0.76172,0.53125 1.54687,1.08203 2.36328,1.64844 -0.45703,-2.02344 -1.00781,-4.05078 -1.63672,-6.07422 -0.0742,-0.23047 -0.14453,-0.45703 -0.21484,-0.67969 l -0.41016,-0.26172 c 0.008,-0.13672 0.0156,-0.27734 0.0195,-0.41406 l 0.21875,0.14062 c -0.0625,-0.19531 -0.1289,-0.39062 -0.1914,-0.58203 0.0195,-0.3164 0.0391,-0.6289 0.0586,-0.9414 0.16406,0.48047 0.32813,0.96484 0.48828,1.46484 1.25781,-2.57422 2.3086,-4.875 3.14844,-6.89062 0.65234,-1.57422 1.17969,-2.97657 1.57812,-4.20313 0.082,0.15234 0.16016,0.29688 0.23047,0.44141 -0.38672,1.15625 -0.8789,2.45312 -1.48047,3.89843 -0.875,2.10157 -1.98046,4.51954 -3.32031,7.2461 0.0742,0.22265 0.14453,0.44531 0.21485,0.67187 0.6289,2.02344 1.17968,4.04688 1.64062,6.07032 1.27734,-2.51563 2.375,-4.96485 3.28906,-7.35157 0.59766,-1.55078 1.11328,-3.07422 1.55469,-4.5664 0.0195,0.043 0.043,0.0859 0.0625,0.13281 l 0.16797,0.35156 c -0.42188,1.37891 -0.90234,2.78125 -1.44922,4.20703 -0.96484,2.51953 -2.13281,5.10938 -3.50391,7.77344 0.42969,1.97266 0.77735,3.94531 1.03125,5.92578 1.92188,-3.19922 3.49219,-6.11719 4.71094,-8.75 0.62891,-1.35937 1.16797,-2.64844 1.60938,-3.85937 0.0664,0.16797 0.13281,0.33593 0.19531,0.5 -0.41797,1.10937 -0.91016,2.27734 -1.48047,3.51172 -1.27734,2.7539 -2.92969,5.80859 -4.96484,9.17187 0.0508,0.41406 0.0937,0.82422 0.13281,1.23828 0.17187,1.73047 0.26953,3.46485 0.28906,5.20313 1.79688,-2.52735 3.32813,-5.00782 4.58985,-7.4336 1.12109,-2.15625 2.03125,-4.26953 2.73046,-6.33984 0.0273,0.28516 0.0508,0.57812 0.0664,0.87891 1.75,-3.3711 3.80859,-6.03516 6.17188,-7.98829 2.92578,-2.42187 5.49609,-3.35937 8.32421,-6.52343 -2.53515,5.19531 -9.78906,10.79297 -13.57421,16.49609 -0.39063,0.59375 -0.6836,1.10547 -0.91407,1.58984 0.0547,-1.34375 0.0547,-2.50781 -0.008,-3.5625 -0.66406,1.83985 -1.48828,3.71094 -2.47656,5.61329 -1.33594,2.5664 -2.97266,5.19531 -4.91016,7.8789 0,1.53125 -0.0625,3.06641 -0.1875,4.60547 0.16797,0.30859 0.32813,0.64453 0.47656,1.01563 z m 39.67969,-46.29297 c 0.63672,1.33984 1.1836,3.01953 1.65235,5.0039 4.90625,20.8125 -15.45704,27.3125 -27.4336,40.83594 -4.64062,5.24609 -8.94531,12.00391 -12.23828,21.88672 -0.67969,-0.21484 -1.39062,-0.35938 -2.04297,-0.45703 -0.0273,-0.0742 -0.0547,-0.14453 -0.082,-0.21875 2.76563,-10.70703 6.21875,-19.00781 10.36719,-24.89453 4.58203,-6.50782 6.76172,-5.70313 11.16406,-9.76563 3.91406,-3.60937 4.96094,-8.42969 10.28125,-13.10937 7.19531,-6.32422 12.14453,-7.07422 8.33203,-19.28125 z m -29.85156,-7.62891 c 5.39844,-9.4375 4.23828,-13.6875 2.88281,-22.5039 -0.64062,-4.1836 -0.10937,-8.4961 -2.05078,-12.238286 -2.26172,-4.371094 -3.83203,-3.691406 -5.96484,-6.078125 -0.8125,-0.914063 -0.67578,-1.914063 0.41015,-3.007813 -0.83984,0.261719 -1.47265,0.78125 -1.90234,1.558594 -0.99219,1.816406 -1.08203,5.714844 -2.36719,8.621094 -0.78515,1.765626 -1.78125,3.265626 -2.99219,4.499996 -1.16015,1.1836 -2.51953,2.1211 -4.07421,2.81641 -1.3086,0.52734 -2.72266,2.00391 -4.05079,3.89453 -2.80078,3.98438 -5.23437,9.80078 -5.57031,12.38281 -0.80078,6.21094 1.02735,8.33985 2.50391,9.55078 1.32812,1.09375 4.51172,2.23829 6.01172,3.9961 1.1289,1.32422 0.71484,2.67187 0.41015,4.1914 -0.0977,0.46875 -0.17968,0.95313 -0.20312,1.45704 -0.0703,1.3789 0.0117,3.00781 0.2539,4.89843 0.0469,0.34375 0.0547,0.67969 0.0195,1 -0.0859,0.8125 -0.58594,1.4375 -0.4961,2.14063 0.0937,0.78906 0.69141,1.21875 1.20703,1.71094 0.082,0.0781 0.16016,0.15625 0.23438,0.24218 0.0195,0.0234 0.043,0.0469 0.0625,0.0703 0.0664,0.0742 0.13281,0.15625 0.1914,0.24609 0.45704,0.65234 0.77735,1.67187 0.64844,3.79297 0.10156,-1.03516 0.27735,-3.32031 0.57813,-5.17578 0.3164,-1.91407 0.42968,-2.29688 1.43359,-3.34375 0.20313,-0.21094 0.4375,-0.44532 0.71875,-0.72657 0.31641,-0.3164 0.66797,-0.65625 1.03125,-1.01171 1.69141,-1.64454 3.72266,-3.54688 4.42578,-4.3125 2.72656,-2.97657 5.12891,-6.01172 6.64844,-8.67188"
             fill-opacity="1"
             fill-rule="evenodd"
             id="path864" />
        </g>
        <g
           clip-path="url(#id3)"
           id="g870">
          <path
             fill="#f0394d"
             d="m 207.15625,185.95312 c -0.40625,-0.15234 -0.82031,-0.3125 -1.25,-0.49609 -0.73828,-0.31641 -1.3125,-0.76172 -1.85156,-1.28125 l 1.91406,-0.40234 c 0.41797,0.73047 0.8125,1.46093 1.1875,2.17968 z m -3.40234,-2.07812 2.02734,-0.42969 c -0.57031,-0.99219 -1.18359,-1.99219 -1.82422,-3 -0.87891,0.33203 -1.78125,0.625 -2.71094,0.88672 1.05469,0.89063 1.77344,1.78125 2.50782,2.54297 z m 0.46093,-3.68359 0.69922,-3.67188 c 0.53125,1.48047 1.0625,2.96875 1.58594,4.48438 -0.14844,0.64062 -0.31641,1.33984 -0.50781,2.09765 -0.5586,-0.96484 -1.15235,-1.9375 -1.77735,-2.91015 z m -0.28125,-0.4336 0.74219,-3.89844 c -0.54297,-1.51171 -1.08984,-3.01562 -1.62891,-4.51953 -0.25,1.75 -0.61328,3.58594 -1.08984,5.50391 0.6875,0.96875 1.34766,1.94141 1.97656,2.91406 z m -0.17578,0.38281 c -0.92187,0.33985 -1.87109,0.64844 -2.84765,0.91797 -0.86719,-0.67968 -1.94922,-1.34765 -3.41016,-1.94922 -0.37891,-0.15625 -0.75,-0.30859 -1.11719,-0.45703 1.83594,-0.45312 3.60547,-0.97656 5.3125,-1.55859 0.71875,1.01172 1.40625,2.03125 2.0625,3.04687 z m -7.9414,-1.71484 c 1.95703,-0.47266 3.84375,-1.01953 5.66406,-1.63672 -0.75,-1.05078 -1.53125,-2.09765 -2.33594,-3.13281 -2.92187,0.92187 -5.80469,1.68359 -8.64062,2.28906 -0.21485,0.043 -0.42969,0.0898 -0.64844,0.13281 1.73437,0.69922 3.67187,1.4336 5.96094,2.34766 z m 3.58593,-5.01953 c 0.44532,-1.89063 0.80469,-4.03906 1.08203,-6.44141 0.0859,-0.72265 0.16016,-1.46875 0.22657,-2.23828 0.64062,1.86719 1.28906,3.70313 1.94531,5.53125 0.0352,0.0977 0.0703,0.19531 0.10547,0.29297 0.008,0.0195 0.0117,0.0391 0.0195,0.0586 -0.23438,1.85547 -0.59766,3.80469 -1.09766,5.85157 -0.73437,-1.02344 -1.49609,-2.04297 -2.28125,-3.05469 z m -0.28515,-0.36328 c 0.41406,-1.8125 0.75,-3.85156 1.01172,-6.11719 0.11328,-0.97656 0.21093,-1.98828 0.29687,-3.04687 -0.12891,-0.37891 -0.25781,-0.76172 -0.38281,-1.14454 -0.043,-0.12109 -0.082,-0.24218 -0.1211,-0.36328 0,-0.004 -0.004,-0.008 -0.004,-0.008 0,-0.004 0,-0.008 -0.004,-0.0117 0,-0.004 0,-0.004 -0.004,-0.008 0,0 0,-0.004 0,-0.004 0,-0.004 0,-0.008 -0.004,-0.0117 0,-0.004 0,-0.008 -0.004,-0.008 0,-0.004 0,-0.008 0,-0.0117 -0.004,-0.004 -0.004,-0.008 -0.004,-0.0117 -0.004,-0.004 -0.004,-0.008 -0.004,-0.0117 -0.0273,-0.0781 -0.0508,-0.15625 -0.0781,-0.23438 -0.2461,-0.74609 -0.48829,-1.5 -0.72657,-2.26172 -0.0781,-0.24609 -0.15625,-0.49219 -0.23047,-0.74219 -0.37109,-0.44921 -0.74218,-0.88671 -1.11718,-1.3125 -0.10938,1.83985 -0.24219,3.60938 -0.39063,5.3086 -0.22265,2.44922 -0.48828,4.74219 -0.79687,6.875 0.1875,0.21875 0.37109,0.4375 0.55859,0.65625 0.67969,0.8125 1.35156,1.64062 2.00391,2.46875 z m -0.20703,0.3125 c -2.8711,0.90234 -5.69922,1.64453 -8.48047,2.23828 -0.39063,0.0859 -0.78125,0.16406 -1.17188,0.24219 -2.01562,-0.82422 -3.7539,-1.61328 -5.46875,-2.6211 1.40235,-0.22656 2.76953,-0.48437 4.10938,-0.76562 2.95312,-0.625 5.75781,-1.37891 8.41015,-2.26953 0.17578,0.20703 0.35547,0.41406 0.53125,0.625 0.70313,0.83984 1.39453,1.6914 2.07032,2.55078 z m -2.66407,-3.79688 c -0.9375,-1.08984 -1.89843,-2.15234 -2.87109,-3.18359 0.32812,-2.51563 0.52734,-5.02734 0.58594,-7.45703 0.043,-1.70703 0.0156,-3.3711 -0.082,-4.96485 1.21484,1.01954 2.39062,2.15235 3.52734,3.40625 -0.11328,1.96875 -0.25,3.85157 -0.41016,5.65235 -0.21093,2.3125 -0.45703,4.49609 -0.75,6.54687 z m -0.1875,0.32813 c -0.95312,-1.10938 -1.92968,-2.19141 -2.92187,-3.24219 -2.69141,0.94141 -5.41797,1.70313 -8.17578,2.28125 -1.92188,0.40625 -3.85547,0.72266 -5.8086,0.95313 1.46485,1.24609 2.8125,2.22265 4.16407,3.05078 1.53906,-0.24219 3.04296,-0.51953 4.50781,-0.82813 2.89062,-0.61328 5.63672,-1.35156 8.23437,-2.21484 z m -3,-3.84375 c 0.30469,-2.41016 0.48828,-4.8125 0.54688,-7.13281 0.0469,-1.81641 0.0117,-3.58594 -0.10547,-5.27344 -1.27344,-1.03516 -2.58984,-1.94531 -3.94922,-2.73047 0.35938,1.81641 0.58594,3.64844 0.67578,5.49609 0.10938,2.17188 0.0312,4.36719 -0.23047,6.58203 1.02735,0.97657 2.05078,2 3.0625,3.0586 z m -3.39062,-3.36328 c 0.23828,-2.10938 0.30469,-4.19532 0.20312,-6.26172 -0.0977,-1.9336 -0.33984,-3.84766 -0.73047,-5.7461 -0.043,-0.0234 -0.0859,-0.0469 -0.1289,-0.0703 -1.72656,-0.94922 -3.10156,-1.57031 -4.33985,-1.97656 1.27735,3.03125 2.01954,6.89062 2.22266,11.57812 0.92578,0.78516 1.85547,1.61329 2.77344,2.47657 z m 0.0977,0.58203 c 1.04297,0.98828 2.08204,2.02344 3.10157,3.09765 -2.62891,0.91016 -5.28907,1.65235 -7.98047,2.21875 -2.01563,0.42579 -4.04688,0.75391 -6.10156,0.98438 -0.91407,-0.79688 -1.875,-1.69922 -2.91407,-2.73438 1.84766,-0.17578 3.75,-0.49218 5.69532,-0.94921 2.64453,-0.61329 5.3789,-1.48829 8.19921,-2.61719 z m -8.27734,2.26953 c 2.57813,-0.60156 5.24219,-1.44922 7.99219,-2.53906 -0.92969,-0.875 -1.86719,-1.71094 -2.80078,-2.50391 -5.21875,1.60938 -10.00782,2.45703 -14.36328,2.54297 0.23828,0.27344 0.47656,0.55078 0.71093,0.83203 0.89063,0.96484 1.72657,1.83984 2.51563,2.63672 1.92578,-0.16797 3.90625,-0.49219 5.94531,-0.96875 z m -9.48047,-2.85156 c -1.10547,-1.23828 -2.23047,-2.3711 -3.37109,-3.39844 1.88281,0.0977 3.82031,0.0586 5.80859,-0.125 2.75,-0.25 5.59766,-0.76563 8.53906,-1.55469 1.11719,0.79688 2.24219,1.67188 3.3711,2.61328 -5.22656,1.58985 -10.00781,2.41407 -14.34766,2.46485 z m 9.64453,-10.60547 c -0.5664,-1.44531 -1.25,-2.85547 -2.04297,-4.22656 1.65625,0.043 3.03907,0.17187 4.61329,0.63671 1.30468,2.96094 2.07031,6.76563 2.30078,11.41016 -1.11719,-0.93359 -2.23438,-1.80078 -3.33985,-2.58984 -0.35547,-1.79297 -0.86328,-3.53516 -1.53125,-5.23047 z m 1.10547,4.92969 c -1.55859,-1.08594 -3.09765,-2.01954 -4.58203,-2.76172 -1.32422,-2.33594 -3.23828,-4.52344 -5.74219,-6.5586 0.89844,0.0273 1.81641,0.0703 2.80469,0.0977 1.54297,0.0391 2.81641,0.0352 3.94922,0.0547 0.83594,1.41797 1.54687,2.875 2.13281,4.36718 0.61328,1.5586 1.08985,3.16016 1.4375,4.80079 z m -5.16406,-3.04688 c -1.35547,-2.23437 -3.26953,-4.33203 -5.75,-6.28906 -1.21094,-0.0273 -2.42578,-0.008 -3.79297,0.13281 -2.89844,0.30078 -4.28516,0.94141 -4.16406,1.92578 2.51172,0.46094 5.03515,1.07422 7.42969,1.81641 2.24218,0.69922 4.375,1.50781 6.27734,2.41406 z m -0.13672,0.33203 c -3.01953,0.46485 -5.73828,0.72266 -8.16016,0.77735 -2.20703,0.0508 -4.17187,-0.0703 -5.88281,-0.36719 -0.44531,-0.44922 -0.8164,-0.85938 -1.10547,-1.22656 -1.53125,-1.54297 -1.13672,-2.69532 1.1875,-3.45704 2.60938,0.47266 5.23438,1.10157 7.71485,1.8711 2.23047,0.6914 4.35156,1.5 6.24609,2.40234 z m 0.55859,0.27344 c -3.23437,0.51562 -6.13671,0.80469 -8.71093,0.86328 -2.02344,0.043 -3.84375,-0.0547 -5.45703,-0.29687 0.96484,0.9375 2.22265,2.03125 3.78125,3.28515 0.1914,0.16016 0.38281,0.32031 0.57421,0.48438 2.01172,0.13281 4.07813,0.0977 6.20704,-0.0977 2.64062,-0.23828 5.37109,-0.73047 8.19531,-1.46484 -1.5625,-1.09375 -3.10156,-2.03125 -4.58985,-2.77344 z m 31.17969,4.42187 c -0.11328,1.71485 -0.17969,3.4375 -0.1914,5.17188 0,0.14453 -0.004,0.28906 -0.004,0.43359 -0.004,1.75 0.043,3.50391 0.13672,5.26953 0.0117,0.15625 0.0195,0.3125 0.0273,0.46875 0.0977,1.6211 0.23828,3.2461 0.42188,4.88282 0.5664,1.5 0.9414,2.93359 1.67187,4.60547 0.082,0.1875 0.16797,0.3789 0.26172,0.57421 0.52344,1.10547 1.10156,1.89844 1.68359,2.60157 -0.0781,-0.39844 -0.15234,-0.80078 -0.22265,-1.20313 -0.13672,-0.74609 -0.26172,-1.49609 -0.37891,-2.24219 -0.0273,-0.16796 -0.0547,-0.33593 -0.0781,-0.5039 -0.34766,-2.28516 -0.61328,-4.55078 -0.79297,-6.8086 -0.0117,-0.15625 -0.0234,-0.3125 -0.0391,-0.46875 -0.13672,-1.82421 -0.21875,-3.64453 -0.25,-5.44921 0,-0.14844 -0.004,-0.29688 -0.004,-0.44141 -0.0195,-1.80078 0.0156,-3.58984 0.10156,-5.36719 0.008,-0.14062 0.0156,-0.27734 0.0195,-0.41406 0.0117,-0.14453 0.0195,-0.29297 0.0273,-0.44141 0.0195,-0.3164 0.0391,-0.6289 0.0586,-0.9414 0.25391,-3.63282 0.73438,-7.22657 1.4375,-10.78125 -1.00391,1.04687 -1.11719,1.42968 -1.43359,3.34375 -0.30078,1.85547 -0.47657,4.14062 -0.57813,5.17578 0.14844,-2.40625 -0.28515,-3.39844 -0.83984,-4.03906 -0.0937,-0.10938 -0.19531,-0.21094 -0.29688,-0.3125 -0.0625,0.40234 -0.11718,0.80468 -0.17187,1.20703 -0.043,0.34375 -0.0859,0.6875 -0.12891,1.03125 -0.17187,1.40625 -0.30859,2.82031 -0.40625,4.23828 -0.0117,0.13672 -0.0195,0.27344 -0.0312,0.41015 z m 2.07031,-13.15625 c 0.20313,-0.80078 0.41016,-1.61718 0.85547,-2.39843 0.0547,-0.0937 0.10938,-0.1875 0.16797,-0.27735 -0.0625,-0.4375 0.082,-1.10547 0.42578,-2.00781 0,0 0.3086,-1.99219 0.92969,-5.97266 -0.46484,0.42969 -0.95312,0.52344 -1.375,0.40235 -0.23047,-0.0664 -0.44141,-0.19531 -0.625,-0.39063 -0.21875,2.30469 -0.46484,4.69922 -0.73437,7.1875 -0.21485,1.98438 -0.44532,4.02344 -0.69141,6.125 0.20312,-0.28515 0.36719,-0.58203 0.5,-0.89062 0.24219,-0.57031 0.39062,-1.16797 0.54687,-1.77735 z m 14.53516,11.35157 1.45313,4.83984 c 0.0937,-0.10547 0.1875,-0.20703 0.28125,-0.30469 l -1.47266,-4.89843 c -0.0859,0.12109 -0.17578,0.23828 -0.26172,0.36328 z m 3.40234,-3.51953 1.48047,5.32421 c 0.10157,-0.0742 0.20703,-0.14843 0.3086,-0.22265 l -1.48047,-5.32422 c -0.10156,0.0742 -0.20703,0.14844 -0.3086,0.22266 z m -4.53906,11.76171 c -0.60547,-1.7539 -1.04297,-3.14843 -1.3164,-4.17968 -0.082,0.15625 -0.16016,0.3164 -0.24219,0.47656 0.29297,1.05078 0.73047,2.41406 1.3125,4.08984 0.082,-0.1289 0.16406,-0.25781 0.24609,-0.38672 z m 8.87891,-14.32812 c 0.47656,1.51562 0.92578,3.17578 1.34375,4.97266 0.10547,-0.0781 0.20703,-0.16016 0.30859,-0.24219 -0.41406,-1.77344 -0.85937,-3.40625 -1.33203,-4.90625 -0.10547,0.0586 -0.21484,0.11719 -0.32031,0.17578 z m -5.91016,23.37109 -0.10156,0.32813 0.14453,-0.21094 z m 1.78516,-5.24609 c -0.57813,1.53906 -1.10938,3.10937 -1.61328,4.69922 l 0.12109,0.3164 c 0.69922,-0.98437 1.41406,-1.93359 2.13672,-2.86328 z m 2.64062,-5.28906 c -0.96484,1.60547 -1.84375,3.20703 -2.42578,4.72265 l -0.008,0.0156 0.70703,2.35937 c 0.91016,-1.15234 1.83594,-2.26562 2.76563,-3.35547 z m 3.39453,-5.46875 c -0.95703,1.60937 -2.08984,3.32812 -3.14062,5.05078 l 1.06641,3.83594 c 1.00781,-1.17188 2.02343,-2.3125 3.03125,-3.4375 -0.3086,-1.90625 -0.63672,-3.70704 -0.98438,-5.39844 z m -20.73046,49.14453 c -1.77344,0.41015 -2.66016,0.61719 -2.66016,0.61719 -0.55859,-5.71875 -0.21484,-10.6875 1.03125,-14.91016 1.77734,-6.01563 5.12891,-8.08594 7.21484,-13.11719 2.52344,-6.07812 1.65625,-6.99219 3.78907,-10.20703 3.78515,-5.70312 11.03906,-11.30078 13.57421,-16.49609 -0.24218,1.33984 -1.02734,2.9375 -2.04296,4.66797 l 0.0625,-0.10547 c 0.36328,1.72265 0.70703,3.5625 1.02343,5.51562 0.3711,-0.41015 0.74219,-0.82031 1.10938,-1.22656 0.76953,-0.85156 1.53125,-1.69531 2.28515,-2.53906 -0.43359,-2.77735 -0.87109,-5.21485 -1.32031,-7.3125 -0.32422,-1.5 -0.64844,-2.82032 -0.97656,-3.96485 0.10156,-0.0703 0.20312,-0.14843 0.30469,-0.22656 0.34765,1.18359 0.6875,2.55469 1.01953,4.12109 0.43359,2.01954 0.85937,4.36329 1.27734,7.03907 1.03125,-1.16407 2.03906,-2.32422 3.00781,-3.5 -0.34375,-2.5 -0.72656,-4.77735 -1.14453,-6.83203 -0.27343,-1.34766 -0.5625,-2.59766 -0.87109,-3.75391 0.0977,-0.0937 0.19531,-0.19141 0.29297,-0.28906 0.32812,1.21875 0.63672,2.54297 0.92969,3.97265 0.40234,1.97266 0.76953,4.14844 1.10156,6.52735 0.875,-1.06641 1.71484,-2.14844 2.51562,-3.25391 -0.10156,-1.62109 -0.29297,-3.33984 -0.57031,-5.16016 -0.25,-1.6289 -0.56641,-3.33203 -0.95312,-5.10937 0.10156,-0.0977 0.19921,-0.19922 0.30078,-0.29688 0.41015,1.8711 0.74609,3.65625 1.00781,5.35547 0.25391,1.66407 0.43359,3.25 0.54297,4.75391 0.84375,-1.1875 1.63672,-2.40234 2.37109,-3.66406 0.0977,-1.76563 0.0937,-3.60157 -0.008,-5.4961 -0.0742,-1.33203 -0.19531,-2.69922 -0.36719,-4.09765 0.11328,-0.082 0.22266,-0.16016 0.33203,-0.23828 0.1836,1.47265 0.3125,2.91406 0.39063,4.32031 0.0898,1.65625 0.10156,3.26562 0.043,4.82812 1.66797,-2.99218 3,-6.23437 3.83593,-9.91015 0.10938,0.0625 0.21485,0.1289 0.32032,0.20703 -0.83203,3.60547 -2.13672,6.80078 -3.76953,9.74609 1.34375,-1.07812 2.57031,-2.22656 3.68359,-3.44922 0.87891,-0.96875 1.6875,-1.98047 2.42578,-3.03906 0.0469,0.14453 0.0898,0.28906 0.13281,0.43359 -0.70312,0.98829 -1.46875,1.9375 -2.29687,2.84375 -1.3125,1.44141 -2.78125,2.78516 -4.40625,4.02735 -0.73438,1.25781 -1.52735,2.47656 -2.36719,3.66015 2.15234,-0.73046 4.14453,-1.65625 5.97266,-2.78125 1.47656,-0.90625 2.84765,-1.9414 4.10937,-3.10546 0.0156,0.15234 0.0312,0.29687 0.043,0.44531 -1.22266,1.10547 -2.54687,2.09375 -3.96484,2.96484 -1.98047,1.21875 -4.15235,2.20703 -6.51563,2.96875 -0.79687,1.09766 -1.63281,2.17578 -2.5,3.23828 3.13672,-0.45312 5.91016,-1.05859 8.31641,-1.8164 1.21094,-0.38282 2.32812,-0.80078 3.35156,-1.26172 -0.12891,0.19531 -0.26562,0.38281 -0.41016,0.57031 -0.88281,0.37109 -1.82812,0.71484 -2.83593,1.03125 -2.51953,0.79688 -5.4375,1.42188 -8.75782,1.88281 -0.97656,1.1836 -1.99218,2.35547 -3.03125,3.52344 2.42188,0.15234 4.87891,0.11328 7.3711,-0.12109 -0.15625,0.13281 -0.3086,0.26562 -0.46485,0.40234 -2.4375,0.20313 -4.83984,0.22266 -7.20703,0.0547 -0.75,0.84375 -1.51172,1.6875 -2.28125,2.53906 -0.38281,0.42188 -0.76562,0.84766 -1.14843,1.27344 2.02343,0.40625 4.18359,0.64844 6.47656,0.72656 -0.082,0.11328 -0.16406,0.23047 -0.2461,0.34766 -2.30468,-0.0898 -4.47265,-0.34766 -6.50781,-0.76563 -1.01172,1.12891 -2.03125,2.27344 -3.04297,3.44922 2.20703,0.54688 4.51953,1 6.9375,1.35547 -0.0703,0.11328 -0.14062,0.22266 -0.21093,0.33203 -2.4375,-0.36719 -4.76563,-0.82812 -6.98438,-1.38672 -0.94531,1.10156 -1.87891,2.23047 -2.79687,3.39453 2.2539,0.66016 4.54687,1.20313 6.8789,1.63672 -0.0977,0.0937 -0.19531,0.1875 -0.30078,0.28125 -0.004,0.008 -0.0117,0.0156 -0.0195,0.0195 -2.30469,-0.43359 -4.57031,-0.98047 -6.79688,-1.63281 -0.73046,0.93359 -1.44921,1.89453 -2.15234,2.88281 1.79688,0.4375 3.73047,0.83594 5.80078,1.19532 -0.14844,0.0977 -0.29687,0.1914 -0.4414,0.28515 -1.98829,-0.35156 -3.84766,-0.74219 -5.58204,-1.16797 -0.26171,0.3711 -0.51953,0.75 -0.77734,1.12891 -0.19531,0.65234 -0.39062,1.30469 -0.58203,1.95703 0.99219,0.29688 2.01562,0.56641 3.07422,0.80859 -0.10547,0.0937 -0.21094,0.19141 -0.32031,0.29297 -0.98047,-0.23047 -1.9336,-0.48437 -2.85547,-0.75781 -0.71094,2.41406 -1.40235,4.84375 -2.14063,7.25 -3.05859,5.04688 -5.70703,11.52734 -7.9414,19.44531 -0.56641,0.98438 -1.12891,1.875 -1.6875,2.67188 z m -6.42969,-21.23828 c -0.51953,-1.60938 -1.04297,-3.1836 -1.57422,-4.73047 -0.14063,0.60156 -0.29688,1.23437 -0.46875,1.90625 0.49609,0.875 0.96484,1.73828 1.40234,2.59375 0.21485,0.0781 0.42969,0.15625 0.64063,0.23047"
             fill-opacity="1"
             fill-rule="evenodd"
             id="path868" />
        </g>
      </g>
      <path
         fill="#37474f"
         d="m 323.0332,202.58398 c -0.54687,12.16797 -3.67969,24.38281 -8.59766,36.62891 h -22.46093 c -5.16797,-12.375 -8.51953,-24.60157 -9.14844,-36.62891 z m 0,0"
         fill-opacity="1"
         fill-rule="nonzero"
         id="path10" />
    </g>
  </g>
</svg>
