<?xml version="1.0" encoding="UTF-8" standalone="no"?>
<svg
   width="160.11014"
   zoomAndPan="magnify"
   viewBox="0 0 120.0826 118.88825"
   height="158.51767"
   preserveAspectRatio="xMidYMid meet"
   version="1.0"
   id="svg48"
   sodipodi:docname="weight loss.svg"
   inkscape:version="1.1.1 (3bf5ae0d25, 2021-09-20)"
   xmlns:inkscape="http://www.inkscape.org/namespaces/inkscape"
   xmlns:sodipodi="http://sodipodi.sourceforge.net/DTD/sodipodi-0.dtd"
   xmlns="http://www.w3.org/2000/svg"
   xmlns:svg="http://www.w3.org/2000/svg">
  <sodipodi:namedview
     id="namedview50"
     pagecolor="#ffffff"
     bordercolor="#666666"
     borderopacity="1.0"
     inkscape:pageshadow="2"
     inkscape:pageopacity="0.0"
     inkscape:pagecheckerboard="0"
     showgrid="false"
     inkscape:zoom="1.8765743"
     inkscape:cx="74.337584"
     inkscape:cy="82.863758"
     inkscape:window-width="1920"
     inkscape:window-height="1001"
     inkscape:window-x="-9"
     inkscape:window-y="-9"
     inkscape:window-maximized="1"
     inkscape:current-layer="svg48"
     fit-margin-top="0"
     fit-margin-left="0"
     fit-margin-right="0"
     fit-margin-bottom="0" />
  <defs
     id="defs14">
    <clipPath
       id="id1">
      <path
         d="M 150.24219,89.667969 H 270.32422 V 208.55469 H 150.24219 Z m 0,0"
         clip-rule="nonzero"
         id="path2" />
    </clipPath>
    <clipPath
       id="id2">
      <path
         d="m 239.27734,108 h 31.04688 v 64.73047 h -31.04688 z m 0,0"
         clip-rule="nonzero"
         id="path5" />
    </clipPath>
    <clipPath
       id="id3">
      <path
         d="m 178.63672,91.351562 h 88.07422 V 208.55469 h -88.07422 z m 0,0"
         clip-rule="nonzero"
         id="path8" />
    </clipPath>
    <clipPath
       id="id4">
      <path
         d="M 150,89.378906 H 251 V 168 H 150 Z m 0,0"
         clip-rule="nonzero"
         id="path11" />
    </clipPath>
  </defs>
  <g
     id="g2814"
     transform="translate(-150.24162,-89.666436)">
    <g
       clip-path="url(#id1)"
       id="g18">
      <path
         fill="#f8a268"
         d="m 210.8125,169.52344 c -0.70703,4.11718 -1.21094,8.36328 -1.14844,12.54297 -8.51562,-4.78125 -19.27344,-5.60157 -28.3125,-1.85938 1.67578,-3.63672 2.3711,-7.71484 2.05469,-11.70312 -0.0703,-0.82813 -0.17969,-1.64844 -0.33984,-2.46485 4.50781,-1.875 8.4414,-5.33594 11.32031,-9.34375 4.04297,-5.625 6.34765,-12.27734 8.51562,-18.86328 0.0234,-0.0781 0.0508,-0.14453 0.0742,-0.22266 2.01953,1.76954 4.53906,2.96875 7.1875,3.40625 0.51172,0.0859 1.03125,0.14063 1.55078,0.16407 0.86719,0.0508 1.74219,0.0195 2.60157,-0.0937 0.0664,1.02343 0.11328,2.05468 0.1289,3.08593 0.0937,8.55469 -2.17969,16.92579 -3.63281,25.35157 z m -31.03516,-2.42188 c 0,0.004 0,0.0117 0.004,0.0156 -0.0117,-0.004 -0.0195,-0.004 -0.0312,-0.0156 0.0117,0 0.0195,0 0.0273,0 z m 89.7461,-52.9414 c -0.6875,-2.15625 -1.72266,-4.16016 -2.98828,-6.03125 -1.10547,-1.64844 -2.38282,-3.19532 -3.75,-4.66016 -0.27344,-1.44531 -0.57422,-2.88281 -0.89454,-4.3125 -0.28125,-1.253906 -0.75,-2.691406 -1.96093,-3.109375 -0.74219,-0.253906 -1.58203,-0.02344 -2.22657,0.414063 -0.4375,0.296874 -0.80468,0.679687 -1.14062,1.085937 -1.27734,-1.113281 -2.58594,-2.195313 -3.91797,-3.25 -0.70703,-0.558594 -1.46484,-1.125 -2.35937,-1.226563 -1.67188,-0.1875 -3.00782,1.261719 -4.21485,2.4375 -3.80469,3.707032 -9.20703,5.699218 -14.5039,5.402348 -3.41797,-2.277348 -6.66797,-4.812504 -10.1875,-6.921879 -1.63672,-0.988281 -3.36329,-1.878906 -5.15235,-2.597656 -3.21484,-1.289063 -6.62109,-2.003906 -10.03906,-1.621094 -4.48438,0.503907 -8.89063,3.339844 -10.60547,7.398438 -0.44531,0.04687 -0.89062,0.09766 -1.33594,0.15625 -5.34375,0.714843 -10.5664,2.304687 -15.42578,4.652341 -6.08203,2.9336 -11.59375,7.0625 -16.04297,12.15235 -8.26562,9.44922 -12.78515,22.07421 -12.47656,34.62109 0.94922,0.85547 1.91406,1.68359 2.89844,2.5 -4.11719,14.35156 -3.9375,29.92187 0.55469,44.16797 0.89843,2.83594 2.05859,5.76172 4.39843,7.59765 2.65625,2.08204 6.26563,2.33985 9.63282,2.47266 14.5625,0.57813 29.14062,0.45313 43.71484,0.29688 -0.004,0.25781 -0.004,0.51562 -0.004,0.77343 -0.004,0.86719 0.28907,2.03516 1.15235,1.9961 0.72265,-0.0352 1.05078,-0.9375 1.67187,-1.3086 0.31641,-0.1914 0.66406,-0.22265 1.01953,-0.17578 0.0273,0.0508 0.0508,0.10547 0.082,0.15625 0.0508,0.0781 0.19141,0.0312 0.19532,-0.0547 0.004,-0.0195 0,-0.0352 0,-0.0508 0.57422,0.12891 1.17578,0.41016 1.75781,0.52344 1.71875,0.32813 3.32422,-0.86328 4.66797,-1.98047 0.30078,-0.25 0.60937,-0.50781 0.90625,-0.77344 6.99609,-0.0469 14.04297,0.0781 20.78125,1.90235 1.30859,0.35937 3.07031,0.58594 3.67187,-0.625 0.54688,-1.10156 -0.44922,-2.3125 -1.35937,-3.14453 -2.53906,-2.30469 -5.1836,-4.67188 -8.4336,-5.76172 -1.62109,-0.54688 -3.35546,-0.76172 -4.89453,-1.50391 -1.03515,-0.5 -1.92578,-1.20312 -2.77734,-1.97265 3.73437,0.95312 7.67187,1.125 11.46875,0.46875 0.76953,-0.13282 1.74609,-0.58985 1.59766,-1.35547 -0.1211,-0.63282 -0.89454,-0.82813 -1.48438,-1.08594 -2.03125,-0.89063 -2.58984,-3.49609 -4.09766,-5.12109 -2.88281,-3.11719 -8.35546,-1.95313 -11.67187,-4.60547 -1.00781,-0.80469 -1.73047,-1.90235 -2.64453,-2.8125 -0.23828,-0.23828 -0.50781,-0.47266 -0.78906,-0.67578 1.17968,-5.5586 2.97265,-11.06641 4.00781,-16.65625 0.89453,-4.875 1.22656,-9.90235 3.02344,-14.51563 1.6289,-4.17578 4.3789,-7.80469 7.07421,-11.38281 2.08985,-2.76953 4.1875,-5.58594 5.75,-8.66797 0.54297,0.85156 1.21875,1.63672 1.98047,2.30078 0.0547,0.75781 0.22657,1.52734 0.4375,2.24609 0.10547,0.36719 0.22657,0.73438 0.33985,1.10157 0.45703,1.41797 0.90625,2.84375 0.77734,4.3164 -0.26172,2.96094 -2.74219,5.16016 -4.32422,7.67578 -1.375,2.19922 -2.09765,4.79297 -2.0625,7.38282 0.0234,1.78515 0.63281,3.85156 2.30469,4.47656 0.54297,0.20703 1.14844,0.23437 1.67578,0.48047 1.21484,0.57031 1.62109,2.08984 1.70313,3.42969 0.11718,1.83984 -0.11719,3.6914 -0.13672,5.53515 -0.0117,1.53906 0.14843,3.15235 0.98047,4.44531 0.83593,1.29688 2.50781,2.15625 3.94921,1.6211 1.35547,-0.50391 2.06641,-1.99219 2.375,-3.40235 0.3086,-1.41406 0.36329,-2.91406 1.01563,-4.19921 0.85156,-1.66797 2.57422,-2.71875 3.60547,-4.27735 1.52734,-2.30859 1.19531,-5.67969 -0.76172,-7.64062 -1.55078,-1.55469 -3.89453,-2.23047 -5.16797,-4.02344 -1.49219,-2.10156 -1.00781,-4.97656 -0.41797,-7.48828 0.5586,-2.38281 1.1211,-5.05078 0.0195,-7.19531 -0.0586,-0.11329 -0.12109,-0.22657 -0.1914,-0.33985 -0.32813,-0.53515 -0.75782,-1 -1.09766,-1.52734 2.16406,0.62109 4.48828,0.80469 6.74609,0.71875 3.47657,-0.125 7.07032,-0.88672 9.79297,-3.04688 4.51563,-3.58203 5.55469,-10.30859 3.8086,-15.80468"
         fill-opacity="1"
         fill-rule="nonzero"
         id="path16" />
    </g>
    <g
       clip-path="url(#id2)"
       id="g22">
      <path
         fill="#cf7334"
         d="m 250.86719,148.84375 c -1.4961,-2.10156 -1.01172,-4.97656 -0.42188,-7.48828 0.5586,-2.38281 1.1211,-5.05078 0.0195,-7.19531 -1.89843,0.32031 -3.91015,-0.10157 -5.53515,-1.13672 0.45703,1.41797 0.91015,2.84375 0.77734,4.3164 -0.26172,2.96094 -2.74219,5.16016 -4.32422,7.67578 -1.37109,2.19922 -2.09765,4.79297 -2.0625,7.38282 0.0234,1.78515 0.63281,3.85156 2.30469,4.47656 0.54297,0.20703 1.14844,0.23437 1.67578,0.48047 1.21484,0.57031 1.625,2.08984 1.70703,3.42969 0.11328,1.83984 -0.12109,3.6914 -0.14062,5.53515 -0.0117,1.53906 0.14843,3.15235 0.98047,4.44531 0.83593,1.29688 2.51171,2.15625 3.95312,1.6211 1.35547,-0.50391 2.0625,-1.99219 2.37109,-3.40235 0.3086,-1.41406 0.36329,-2.91406 1.01563,-4.19921 0.85156,-1.66797 2.57422,-2.71875 3.60937,-4.27735 1.52735,-2.30859 1.19141,-5.67969 -0.76562,-7.64062 -1.55078,-1.55469 -3.89453,-2.23047 -5.16406,-4.02344 z m 14.84765,-18.87891 c -2.72265,2.16016 -6.3164,2.92188 -9.78906,3.04688 -2.26172,0.0859 -4.58203,-0.0977 -6.75,-0.71875 -1.52734,-0.4375 -2.98047,-1.08985 -4.27734,-2.02344 -0.25391,-0.18359 -0.50782,-0.38281 -0.7461,-0.58984 -0.76172,-0.66797 -1.43359,-1.45313 -1.98047,-2.30469 0.45313,-0.89844 0.86719,-1.82422 1.21485,-2.77344 1.43359,-3.89843 1.7539,-8.39062 0.0664,-12.14453 -0.0234,-0.0508 -0.0469,-0.10156 -0.0703,-0.15234 0.23438,-0.27735 0.4961,-0.52735 0.78516,-0.75 0.0234,-0.0195 0.0469,-0.0391 0.0742,-0.0586 0.38281,-0.28906 0.80859,-0.52343 1.2539,-0.69921 0.16797,1.44531 0.75782,2.82421 1.84375,3.77343 1.57813,1.3711 4.30078,1.42578 5.61719,-0.19922 0.54297,-0.66796 0.80078,-1.52343 0.96094,-2.36718 0.1875,-1.00391 0.25781,-2.02735 0.20703,-3.05078 1.92969,0.35546 3.88672,0.58203 5.84766,0.67578 1.63671,0.082 3.32031,0.0664 4.85156,-0.50782 0.61328,-0.23437 1.20312,-0.57031 1.71094,-0.99218 1.26562,1.87109 2.30078,3.875 2.98828,6.03125 1.75,5.49609 0.70703,12.22265 -3.8086,15.80468"
         fill-opacity="1"
         fill-rule="nonzero"
         id="path20" />
    </g>
    <path
       fill="#f7995f"
       d="m 175.66016,189.20703 c 3.45703,-6.75781 4.91796,-14.53906 4.12109,-22.08984 -0.0117,-0.004 -0.0195,-0.004 -0.0312,-0.0156 -9.58984,-3.8789 -18.58594,-9.24219 -26.55469,-15.85156 -4.11328,14.35156 -3.93359,29.92187 0.5586,44.16797 0.89843,2.83594 2.05859,5.76172 4.39843,7.59765 2.65625,2.08204 6.26563,2.33985 9.63282,2.47266 14.5625,0.57813 29.14062,0.45313 43.71484,0.29688 0.004,-4.16407 0.0156,-8.32813 0.0273,-12.4961 -0.20703,-0.57422 -0.39062,-1.16015 -0.5625,-1.73828 -10.76562,-5.60937 -23.89062,-6.44141 -35.30468,-2.34375 z m 71.74609,16.96094 c -0.60156,1.21094 -2.36719,0.98437 -3.67188,0.625 -6.73828,-1.82422 -13.78906,-1.94922 -20.78515,-1.90235 1.03515,-0.93359 1.96875,-1.99218 2.26562,-3.33203 0.29297,-1.33984 -0.11328,-2.72656 -0.51953,-4.03906 -0.85937,-2.78906 -1.72656,-5.58203 -2.58594,-8.37891 1.78907,-0.0703 3.64454,0.90235 5.07422,2.09766 0.95313,0.80078 1.82813,1.71094 2.75782,2.54688 0.84765,0.76953 1.74218,1.47265 2.77343,1.97265 1.53907,0.74219 3.27344,0.95703 4.89453,1.50391 3.25391,1.08984 5.89454,3.45703 8.4375,5.76172 0.91016,0.83203 1.90625,2.04297 1.35938,3.14453"
       fill-opacity="1"
       fill-rule="nonzero"
       id="path24" />
    <g
       clip-path="url(#id3)"
       id="g28">
      <path
         fill="#f8a268"
         d="m 262.78516,103.46875 c -1.03125,-1.11328 -2.1211,-2.17969 -3.21875,-3.21094 -0.98438,-0.921872 -1.98438,-1.824216 -3.00391,-2.710935 -1.27734,-1.113281 -2.58594,-2.195313 -3.91797,-3.25 -0.70703,-0.558594 -1.46484,-1.125 -2.35937,-1.226563 -1.67188,-0.1875 -3.00782,1.261719 -4.21485,2.4375 -3.80469,3.707032 -9.20703,5.699218 -14.5039,5.402348 -3.41797,-2.277348 -6.66797,-4.812504 -10.1875,-6.921879 -1.63672,-0.988281 -3.36329,-1.878906 -5.15235,-2.597656 1.1211,3.484375 1.19922,7.296875 0.23438,10.828125 2.58593,-0.87891 5.46875,-0.83203 8.21875,-0.56641 4.30859,0.41016 8.63281,1.31641 12.44922,3.35547 2.85937,1.52735 5.41796,3.75 7.11328,6.48828 0.38281,-0.28906 0.80859,-0.52343 1.2539,-0.69921 0.16797,1.44531 0.75782,2.82421 1.84375,3.77343 1.57813,1.3711 4.30078,1.42578 5.61719,-0.19922 0.54297,-0.66796 0.80078,-1.52343 0.96094,-2.36718 0.1875,-1.00391 0.25781,-2.02735 0.20703,-3.05078 1.92969,0.35546 3.88672,0.58203 5.84766,0.67578 1.63671,0.082 3.32031,0.0664 4.85156,-0.50782 0.61328,-0.23437 1.20312,-0.57031 1.71094,-0.99218 -1.10547,-1.64844 -2.38282,-3.19532 -3.75,-4.66016 z m -51.07032,37.71094 c -0.24218,-3.17188 -1.27343,-6.33203 -2.69922,-9.20313 -2.26171,-4.54297 -5.46875,-8.53125 -8.37109,-12.69531 -2.90625,-4.16406 -5.5625,-8.65625 -6.49219,-13.64453 -0.51172,-2.74219 -0.46875,-5.57813 0.0937,-8.312501 -5.34375,0.710937 -10.5664,2.300781 -15.42578,4.648441 6.96094,7.82812 8.78125,19.8125 16.16406,27.52734 1.75,1.83203 3.78125,3.37891 5.53516,5.20703 0.72656,0.75781 1.41016,1.58594 1.98047,2.47266 0.15625,0.14453 0.31641,0.28906 0.47656,0.42578 2.01953,1.77344 4.53906,2.96875 7.1875,3.41015 0.51172,0.082 1.03125,0.13672 1.55078,0.16407 z m 31.73828,-28.72266 c 1.6875,3.75391 1.36719,8.2461 -0.0664,12.14453 -0.34766,0.94922 -0.76172,1.875 -1.21485,2.77344 -1.5625,3.08203 -3.66015,5.89844 -5.75,8.66797 -2.69531,3.57812 -5.44531,7.20703 -7.07031,11.38281 -1.80078,4.61328 -2.13281,9.64063 -3.02734,14.51563 -1.03516,5.58984 -2.82813,11.09765 -4.00781,16.65625 -0.53907,2.54687 -0.94532,5.09765 -1.09375,7.67968 0.29687,0.95703 0.59375,1.91016 0.88671,2.86328 0.85938,2.79688 1.72657,5.58985 2.58594,8.37891 0.40625,1.3125 0.8125,2.69922 0.51953,4.03906 -0.29687,1.33985 -1.23047,2.39844 -2.26562,3.33203 -0.29688,0.26563 -0.60547,0.52344 -0.90625,0.77344 -1.34375,1.11719 -2.94922,2.3086 -4.66797,1.98047 -1.03906,-0.20312 -2.14453,-0.94141 -3.05469,-0.39844 -0.62109,0.3711 -0.94531,1.27344 -1.67187,1.3086 -0.85938,0.0391 -1.15235,-1.12891 -1.15235,-1.9961 0,-0.25781 0,-0.51562 0.004,-0.77343 0.008,-4.16407 0.0156,-8.32813 0.0273,-12.4961 -0.20703,-0.57422 -0.39062,-1.16015 -0.5625,-1.73828 -0.875,-3.07031 -1.25781,-6.25781 -1.30078,-9.48437 -0.0625,-4.17969 0.44141,-8.42579 1.14844,-12.54297 1.45312,-8.42578 3.72656,-16.79688 3.63281,-25.35157 -0.0156,-1.03125 -0.0625,-2.0625 -0.1289,-3.08593 -0.26954,-4.08985 -0.87891,-8.16797 -1.01172,-12.27344 -0.16016,-5.12891 0.50781,-10.49219 3.29687,-14.80078 3.125,-4.80859 8.86719,-7.79688 14.59766,-7.59766 4.63672,0.16407 9.13672,2.41016 12.15234,5.92578 0.0117,-0.0117 0.0234,-0.0234 0.0312,-0.0352 0.0234,0.0508 0.0469,0.10156 0.0703,0.15234"
         fill-opacity="1"
         fill-rule="nonzero"
         id="path26" />
    </g>
    <path
       fill="#e76035"
       d="m 181.35156,180.20703 c 1.67578,-3.63672 2.3711,-7.71484 2.05469,-11.70312 -0.0703,-0.82813 -0.17969,-1.64844 -0.33984,-2.46485 -1.0625,0.44922 -2.16407,0.80469 -3.28907,1.0625 0,0.004 0,0.0117 0.004,0.0156 0.79687,7.55078 -0.66406,15.33203 -4.12109,22.08984 11.41406,-4.09766 24.54296,-3.26562 35.30468,2.34375 -0.875,-3.07031 -1.25781,-6.25781 -1.30078,-9.48437 -8.51562,-4.78125 -19.27344,-5.60157 -28.3125,-1.85938 z m 60.17188,11.60547 c -2.03125,-0.89063 -2.59375,-3.49609 -4.10157,-5.12109 -2.88281,-3.11719 -8.35156,-1.95313 -11.67187,-4.60547 -1.00781,-0.80469 -1.73047,-1.90235 -2.64063,-2.8125 -0.24218,-0.23828 -0.51171,-0.47266 -0.79296,-0.67578 -0.53907,2.54687 -0.94532,5.09765 -1.09375,7.67968 0.29687,0.95703 0.59375,1.91016 0.88671,2.86328 1.78907,-0.0703 3.64454,0.90235 5.07422,2.09766 0.95313,0.80078 1.82813,1.71094 2.75782,2.54688 3.73046,0.95312 7.66796,1.125 11.46484,0.46875 0.76953,-0.13282 1.74609,-0.58985 1.60156,-1.35547 -0.125,-0.63282 -0.89844,-0.82813 -1.48437,-1.08594 z m 21.26172,-88.34375 c -1.03125,-1.11328 -2.1211,-2.17969 -3.21875,-3.21094 -0.98438,-0.921872 -1.98438,-1.824216 -3.00391,-2.707029 0.33594,-0.410156 0.70312,-0.792969 1.14062,-1.089843 0.64454,-0.4375 1.48438,-0.667969 2.22657,-0.414063 1.21093,0.417969 1.67968,1.859375 1.96093,3.109375 0.32032,1.43359 0.6211,2.87109 0.89454,4.3125"
       fill-opacity="1"
       fill-rule="nonzero"
       id="path30" />
    <g
       clip-path="url(#id4)"
       id="g34">
      <path
         fill="#590f1b"
         d="m 200.51953,134.70703 c -1.75391,-1.82812 -3.78516,-3.375 -5.53516,-5.20312 -7.38281,-7.71485 -9.20312,-19.70313 -16.16406,-27.52735 -6.08203,2.9336 -11.59375,7.0625 -16.04297,12.15235 -8.26562,9.44922 -12.78515,22.07421 -12.47656,34.62109 0.94922,0.85547 1.91406,1.68359 2.89844,2.5 7.96484,6.60937 16.96094,11.97266 26.55078,15.85156 0.0117,0 0.0195,0 0.0273,0 1.12891,-0.25781 2.22657,-0.61328 3.29297,-1.0625 4.50391,-1.875 8.4375,-5.33594 11.31641,-9.34375 4.04297,-5.625 6.34765,-12.27734 8.51953,-18.86328 0.0234,-0.0781 0.0508,-0.14453 0.0703,-0.22266 -0.16015,-0.13671 -0.3164,-0.28125 -0.47265,-0.42968 -0.57032,-0.88672 -1.25782,-1.71094 -1.98047,-2.47266 z m 49.75781,-0.88672 c -0.33203,-0.53515 -0.75781,-1 -1.10156,-1.52734 -1.52734,-0.4375 -2.98047,-1.08985 -4.27734,-2.02344 -0.25391,-0.18359 -0.50782,-0.38281 -0.7461,-0.58984 0.0586,0.7539 0.22657,1.52343 0.4375,2.24218 0.10938,0.36719 0.22657,0.73438 0.33985,1.10157 1.625,1.03515 3.63672,1.45703 5.53515,1.13672 -0.0547,-0.11329 -0.11718,-0.22657 -0.1875,-0.33985 z m -6.10937,-22.26562 c -0.28906,0.22265 -0.55078,0.47265 -0.78516,0.75 -0.008,0.0117 -0.0195,0.0234 -0.0312,0.0352 -3.01562,-3.51171 -7.51562,-5.76171 -12.15234,-5.92578 -5.73047,-0.19922 -11.47266,2.78907 -14.59766,7.60157 -2.78906,4.30468 -3.45703,9.66796 -3.29687,14.79687 0.13281,4.10547 0.74218,8.18359 1.01172,12.27344 -0.85938,0.11328 -1.73438,0.14453 -2.60157,0.0937 -0.24218,-3.16797 -1.27343,-6.33203 -2.69922,-9.20313 -2.26171,-4.53906 -5.46875,-8.53125 -8.37109,-12.6914 -2.90625,-4.16797 -5.5625,-8.65625 -6.49219,-13.64844 -0.51172,-2.74219 -0.46875,-5.57813 0.0937,-8.312501 0.44532,-0.05859 0.89063,-0.109375 1.33594,-0.15625 1.71484,-4.058594 6.12109,-6.894531 10.60547,-7.398438 3.41797,-0.382812 6.82422,0.332031 10.03906,1.621094 1.1211,3.484375 1.19922,7.296875 0.23438,10.828125 2.58593,-0.87891 5.46875,-0.83203 8.21875,-0.56641 4.30859,0.41016 8.63281,1.31641 12.44922,3.35547 2.85937,1.52735 5.41796,3.75 7.11328,6.48828 -0.0273,0.0195 -0.0508,0.0391 -0.0742,0.0586"
         fill-opacity="1"
         fill-rule="nonzero"
         id="path32" />
    </g>
    <path
       fill="#590f1b"
       d="m 257.46875,105.75 c 1.06641,-1.29297 2.28516,-1.92969 3.9375,-2.15625 0.26953,-0.0352 0.28906,-0.36719 0.008,-0.40625 -1.70312,-0.21875 -3.60547,0.83984 -4.36328,2.38281 -0.11719,0.24219 0.28125,0.34375 0.41797,0.17969"
       fill-opacity="1"
       fill-rule="nonzero"
       id="path36" />
    <path
       fill="#590f1b"
       d="m 251.72656,101.625 c -0.54687,-1.683594 0.16016,-3.4375 1.72656,-4.277344 0.33985,-0.183594 0.0937,-0.53125 -0.23046,-0.421875 -1.90625,0.648438 -2.85157,3.019531 -1.97657,4.824219 0.0937,0.19531 0.55469,0.10547 0.48047,-0.125"
       fill-opacity="1"
       fill-rule="nonzero"
       id="path38" />
    <path
       fill="#590f1b"
       d="m 257.97656,108.21094 c 2.0625,0.27734 4.71094,-0.60938 5.94141,-2.35156 0.21875,-0.3086 -0.22656,-0.50391 -0.46875,-0.32813 -0.82422,0.61328 -1.58985,1.26172 -2.53906,1.68359 -0.9375,0.41407 -1.91016,0.57032 -2.91407,0.69532 -0.19922,0.0234 -0.23437,0.26953 -0.0195,0.30078"
       fill-opacity="1"
       fill-rule="nonzero"
       id="path40" />
    <path
       fill="#590f1b"
       d="m 215.61719,207.17187 c 0.0273,-0.4375 -0.0625,-0.87109 -0.0781,-1.30859 -0.0195,-0.48828 -0.008,-0.97656 0.0117,-1.46875 0.004,-0.17969 -0.3125,-0.14062 -0.35156,0 -0.26172,0.87891 -0.29688,2.03516 0.22656,2.83203 0.0508,0.0781 0.1875,0.0312 0.19141,-0.0547"
       fill-opacity="1"
       fill-rule="nonzero"
       id="path42" />
    <path
       fill="#590f1b"
       d="m 219.11719,206.8125 c 0.0469,-0.42969 -0.13282,-0.86719 -0.20703,-1.28906 -0.082,-0.48047 -0.125,-0.96875 -0.17579,-1.45703 -0.0156,-0.1836 -0.32031,-0.15625 -0.36328,0 -0.24218,0.85937 -0.19531,2.21875 0.58985,2.80468 0.0547,0.043 0.14453,0.0117 0.15625,-0.0586"
       fill-opacity="1"
       fill-rule="nonzero"
       id="path44" />
    <path
       fill="#590f1b"
       d="m 223.30078,204.35156 c -0.16016,-0.73437 -0.44922,-1.48047 -0.86719,-2.10547 -0.12109,-0.17968 -0.58593,-0.13281 -0.51172,0.13672 0.20313,0.75391 0.57813,1.45703 1.03516,2.08594 0.082,0.11719 0.38281,0.0469 0.34375,-0.11719"
       fill-opacity="1"
       fill-rule="nonzero"
       id="path46" />
    <path
       style="fill:#590f1b;fill-opacity:1;stroke:none;stroke-width:0.75px;stroke-linecap:butt;stroke-linejoin:miter;stroke-opacity:1"
       d="m 194.24609,97.324222 c 0,0 -10.58046,1.781088 -15.42578,4.652338 -5.04252,2.98811 22.07486,36.59398 23.67969,35.20313 -0.28504,0.66318 6.98278,4.95864 10.41383,3.7502 2.45541,-0.86481 -18.66774,-43.605668 -18.66774,-43.605668 z"
       id="path900"
       sodipodi:nodetypes="cscsc" />
  </g>
</svg>
